<?xml version="1.0" encoding="UTF-8" standalone="no"?>
<svg
   width="40" height="40" viewBox="0 0 40 40" id="favicon" version="1.1"
   xmlns:xlink="http://www.w3.org/1999/xlink" xmlns="http://www.w3.org/2000/svg" xmlns:svg="http://www.w3.org/2000/svg" xmlns:rdf="http://www.w3.org/1999/02/22-rdf-syntax-ns#" xmlns:cc="http://creativecommons.org/ns#" xmlns:dc="http://purl.org/dc/elements/1.1/">
   <metadata  id="metadataIcon"> <rdf:RDF><cc:Work><dc:format>image/svg+xml</dc:format><dc:title>SEACMS</dc:title></cc:Work></rdf:RDF></metadata>
  <defs id="defsIcon">
    <circle id="circle" cx="276.5" cy="374" r="191.5" />
    <clipPath id="mask">
      <use xlink:href="#circle" id="use11-8-6-7-0-1" x="0" y="0" width="100%" height="100%" />
    </clipPath>
  </defs>
  <title id="title">SEACMS</title>
  <desc id="desc">Created by MB</desc>
  <g id="icon" transform="matrix(0.10355115,0,0,0.10355115,-8.5983452,-18.724697)">
    <path id="color-5" style="fill:#a4ebd4;" clip-path="url(#mask)" d="m 26.4,179 h 536 c 0,0 0.1,0 0.1,0.1 v 389.8 c 0,0 0,0.1 -0.1,0.1 h -536 c 0,0 -0.1,0 -0.1,-0.1 L 26.4,179 c -0.1,0 -0.1,0 0,0 z"/>
    <g id="mask-color-4" clip-path="url(#mask)">
      <path id="color-4" style="fill:#49d7ac;" d="M 26.872277,253.5852 H 563.07228 v 234.6 c 0,0 -23.7,14.2 -67.2,14.2 -65.5,0 -127.3,-28 -206.3,-20.3 -84.8,8.3 -117.9,34.1 -131.7,41.8 -14.1,7.9 -50.5,36 -87.000003,34.1 -36.5,-1.9 -44.2,-12.8 -44.2,-12.8 z"/>
    </g>
    <g id="mask-color-3" clip-path="url(#mask)">
      <path id="color-3" style="fill:#44ac9b;" d="M 26.872277,253.5852 H 563.07228 v 209.2 c 0,0 -18.4,17.3 -39.5,24.1 -21.2,6.8 -54.9,13 -95.7,-4.1 -15.9,-6.7 -54.5,-32.5 -88.5,-47.8 -19.4,-8.7 -48.3,-18.8 -67.6,-18.4 -19.8,0.3 -37,0.6 -116,51.1 -44.1,28.2 -61.700003,34.4 -80.500003,34.7 -23.9,0.2 -48.7,-20.8 -48.7,-20.8 z"/>
    </g>
    <g id="mask-color-2" clip-path="url(#mask)">
      <path id="color-2" style="fill:#3e7f8a;" d="M 26.872277,253.5852 H 563.07228 v 148.5 c 0,0 -34,24.8 -81.2,23.1 -21.2,-0.8 -70.9,-11.5 -116.1,-28.8 -45,-17.2 -96.6,-20.8 -123.7,-18.7 -27.5,2.2 -50.2,10.2 -76.5,20.7 -26.4,10.5 -74.300003,24.2 -104.400003,25.8 -23.6,1.2 -34.5,-6.8 -34.5,-6.8 z"/>
    </g>
    <g id="mask-color-1" clip-path="url(#mask)">
      <path id="color-1" style="fill:#38547a;" d="m 26.872277,161.33169 536.200003,-0.14927 -0.2,195.80278 c 0,0 -28,18.4 -60.7,17.3 -35.4,-1.3 -64.4,-21.2 -106,-41.8 -39.1,-19.4 -76.7,-33.6 -102.2,-34.6 -28,-1 -43.9,3.2 -57.2,7.9 -13.3,4.8 -35.9,16.4 -60,32.7 -23.4,15.9 -72.7,57.3 -121.000003,55.7 -17.4,-0.6 -29,-6 -29,-6 z"/>
    </g>
  </g>
</svg>
