<?xml version="1.0" encoding="utf-8"?>
<svg version="1.1"
	 id="svg13" xmlns:cc="http://creativecommons.org/ns#" xmlns:rdf="http://www.w3.org/1999/02/22-rdf-syntax-ns#" xmlns:svg="http://www.w3.org/2000/svg"
	 xmlns="http://www.w3.org/2000/svg" xmlns:xlink="http://www.w3.org/1999/xlink" x="0px" y="0px" viewBox="0 0 39.7 39.7"
	 style="enable-background:new 0 0 39.7 39.7;" xml:space="preserve">
<style type="text/css">
	.st0{fill:#A4EBD4;}
	.st1{fill:#49D7AC;}
	.st2{fill:#44AC9B;}
	.st3{fill:#3E7F8A;}
	.st4{fill:#38547A;}
</style>
<path id="color-5" class="st0" d="M35.2,32.3c-3.6,4.5-9.2,7.3-15.4,7.3c-4.6,0-8.9-1.6-12.3-4.3c1.4-0.8,4.8-3.5,13.6-4.3
	C26.4,30.5,30.9,31.5,35.2,32.3z"/>
<path id="color-4" class="st1" d="M36,31.3c-0.2,0.3-0.5,0.7-0.8,1c-4.3-0.8-8.8-1.8-14-1.3C12.4,31.9,9,34.6,7.6,35.4
	c-1.4-1.1-2.6-2.3-3.7-3.8c0.9-0.5,2.1-1.2,3.4-2.1c8.2-5.2,10-5.3,12-5.3s5,1,7,1.9c3.5,1.6,7.5,4.2,9.2,5
	C35.7,31.2,35.8,31.3,36,31.3z"/>
<path id="color-3" class="st2" d="M39,24.9c-0.6,2.3-1.7,4.5-3,6.4c-0.2,0-0.3-0.1-0.5-0.2c-1.7-0.7-5.7-3.4-9.2-5c-2-0.9-5-2-7-1.9
	c-2,0-3.8,0.1-12,5.3c-1.4,0.9-2.5,1.5-3.4,2.1c-1.5-2.1-2.7-4.4-3.3-7c2.7-0.5,5.8-1.5,7.8-2.2c2.7-1.1,5.1-1.9,7.9-2.1
	s8.2,0.2,12.8,1.9C32.6,23.5,36.4,24.5,39,24.9z"/>
<path id="color-2" class="st3" d="M39.7,19.8c0,1.8-0.2,3.5-0.7,5.1c-2.6-0.4-6.4-1.4-9.9-2.7c-4.7-1.8-10-2.1-12.8-1.9
	s-5.2,1-7.9,2.1c-2,0.8-5,1.7-7.8,2.2c-0.2-1-0.4-2-0.5-3.1c3.9-1.1,7.5-4,9.4-5.3c2.5-1.7,4.8-2.9,6.2-3.4s3-0.9,5.9-0.8
	c2.6,0.1,6.5,1.6,10.6,3.6c2.9,1.4,5.1,2.8,7.4,3.6C39.7,19.4,39.7,19.6,39.7,19.8z"/>
<path id="color-1" class="st4" d="M35.3,7.4C31.6,2.9,26.1,0,19.8,0C13.6,0,8,2.9,4.4,7.4C1.6,10.8,0,15.1,0,19.8
	c0,0.6,0,1.1,0.1,1.7c3.9-1.1,7.5-4,9.4-5.3c2.5-1.7,4.8-2.9,6.2-3.4s3-0.9,5.9-0.8c2.6,0.1,6.5,1.6,10.6,3.6
	c2.9,1.4,5.1,2.8,7.4,3.6C39.5,14.7,37.9,10.6,35.3,7.4z"/>
</svg>
