<?xml version="1.0" encoding="utf-8"?>
<svg version="1.1"
	 id="SeaCms" xmlns:cc="http://creativecommons.org/ns#" xmlns:svg="http://www.w3.org/2000/svg"
	 xmlns="http://www.w3.org/2000/svg" xmlns:xlink="http://www.w3.org/1999/xlink" x="0px" y="0px" viewBox="0 0 200 50"
	 style="enable-background:new 0 0 200 50;" xml:space="preserve">
<style type="text/css">
	.st0{fill:#38547A;}
	.st1{fill:#A4EBD4;}
	.st2{fill:#49D7AC;}
	.st3{fill:#44AC9B;}
	.st4{fill:#3E7F8A;}
</style>
<g id="text">
	<path id="path383320" class="st0" d="M186.9,30.8c0-1-0.3-1.8-1-2.4c-0.7-0.6-2.1-1.2-4.2-1.8c-2.1-0.6-3.8-1.4-5.1-2.4
		c-1.2-1-1.9-2.3-1.9-4c0-1.7,0.7-3.1,2-4.2c1.3-1.1,3.1-1.7,5.3-1.7c2.4,0,4.3,0.7,5.6,2c1.3,1.3,2,2.8,2,4.5h-2.9
		c0-1.2-0.4-2.2-1.2-3c-0.8-0.8-2-1.2-3.6-1.2c-1.5,0-2.7,0.3-3.4,1c-0.7,0.7-1.1,1.5-1.1,2.5c0,0.9,0.4,1.7,1.2,2.3
		c0.8,0.6,2,1.1,3.8,1.6c2.5,0.7,4.3,1.6,5.5,2.6c1.1,1,1.7,2.4,1.7,4.1c0,1.8-0.7,3.2-2.1,4.2c-1.4,1-3.2,1.6-5.5,1.6
		c-1.3,0-2.6-0.2-3.9-0.7c-1.2-0.5-2.3-1.2-3.1-2.2c-0.8-1-1.2-2.2-1.2-3.6h2.9c0,1.5,0.5,2.5,1.6,3.2c1.1,0.7,2.3,1,3.7,1
		c1.5,0,2.6-0.3,3.4-0.9C186.5,32.7,186.9,31.8,186.9,30.8L186.9,30.8z"/>
	<path id="path383318" class="st0" d="M157.6,32.2l7.1-17.6h3.7v21.6h-2.9v-8.4l0.3-9l-7.1,17.5h-2.2l-7.1-17.5l0.3,9.1v8.4h-2.9
		V14.6h3.7L157.6,32.2z"/>
	<path id="path383316" class="st0" d="M138.1,29.4h2.9c-0.2,2-1,3.8-2.3,5.1c-1.3,1.4-3.3,2-5.9,2c-2.5,0-4.5-0.9-6.1-2.7
		c-1.5-1.8-2.3-4.2-2.3-7.2v-2.3c0-3,0.8-5.5,2.3-7.3c1.6-1.8,3.7-2.7,6.4-2.7c2.4,0,4.3,0.7,5.6,2c1.3,1.3,2.1,3.1,2.3,5.2h-2.9
		c-0.2-1.5-0.7-2.7-1.5-3.6c-0.8-0.9-2-1.3-3.6-1.3c-1.9,0-3.4,0.7-4.3,2.1c-1,1.4-1.5,3.3-1.5,5.6v2.2c0,2.1,0.5,3.9,1.4,5.4
		c0.9,1.5,2.3,2.2,4.2,2.2c1.8,0,3.1-0.4,3.8-1.3C137.3,32.1,137.8,30.9,138.1,29.4L138.1,29.4z"/>
	<path id="path383314" class="st0" d="M100.6,36.2l8.2-21.6h3.4l8.2,21.6h-3.9l-1.8-5h-8.4l-1.8,5H100.6z M107.3,28.2h6.3l-3.1-9
		L107.3,28.2z"/>
	<path id="path383312" class="st0" d="M83.3,36.2V14.6h14v3H87.1v6h8.9v3h-8.9v6.7h10.4v3H83.3z"/>
	<path id="path383310" class="st0" d="M74.2,30.7c0-0.9-0.3-1.5-0.9-2.1c-0.6-0.5-1.9-1.1-3.9-1.7c-2-0.6-3.7-1.5-5-2.4
		c-1.3-1-1.9-2.4-1.9-4.1c0-1.7,0.7-3.2,2.1-4.3c1.4-1.1,3.3-1.7,5.6-1.7c2.4,0,4.4,0.7,5.7,2c1.4,1.3,2.1,2.8,2.1,4.6h-3.7
		c0-1.1-0.3-1.9-1-2.6c-0.7-0.7-1.7-1-3.1-1c-1.3,0-2.3,0.3-2.9,0.9c-0.6,0.6-0.9,1.3-0.9,2.1c0,0.8,0.4,1.5,1.1,2
		c0.8,0.5,1.9,1,3.4,1.5c2.4,0.7,4.3,1.6,5.4,2.7c1.2,1.1,1.8,2.5,1.8,4.2c0,1.8-0.7,3.3-2.1,4.3c-1.4,1.1-3.3,1.6-5.6,1.6
		c-1.4,0-2.7-0.3-4-0.8c-1.3-0.5-2.4-1.3-3.2-2.3c-0.8-1-1.2-2.3-1.2-3.8h3.8c0,1.4,0.5,2.4,1.4,3c0.9,0.6,2,0.9,3.4,0.9
		c1.3,0,2.3-0.3,2.9-0.8C73.9,32.2,74.2,31.5,74.2,30.7L74.2,30.7z"/>
</g>
<g id="icon">
	<path id="color-5" class="st1" d="M42.4,37.8c-3.6,4.5-9.2,7.3-15.4,7.3c-4.6,0-8.9-1.6-12.3-4.3c1.4-0.8,4.8-3.5,13.6-4.3
		C33.5,36.1,38,37.1,42.4,37.8z"/>
	<path id="color-4" class="st2" d="M43.1,36.8c-0.2,0.3-0.5,0.7-0.8,1c-4.3-0.8-8.8-1.8-14-1.3c-8.8,0.9-12.2,3.5-13.6,4.3
		c-1.4-1.1-2.6-2.3-3.7-3.8c0.9-0.5,2.1-1.2,3.4-2.1c8.2-5.2,10-5.3,12-5.3c2,0,5,1,7,1.9c3.5,1.6,7.5,4.2,9.2,5
		C42.8,36.7,43,36.8,43.1,36.8z"/>
	<path id="color-3" class="st3" d="M46.1,30.4c-0.6,2.3-1.7,4.5-3,6.4c-0.2,0-0.3-0.1-0.5-0.2c-1.7-0.7-5.7-3.4-9.2-5
		c-2-0.9-5-2-7-1.9c-2,0-3.8,0.1-12,5.3C13.1,36,12,36.6,11,37.1c-1.5-2.1-2.7-4.4-3.3-7c2.7-0.5,5.8-1.5,7.8-2.2
		c2.7-1.1,5.1-1.9,7.9-2.1c2.8-0.2,8.2,0.2,12.8,1.9C39.8,29,43.5,30,46.1,30.4z"/>
	<path id="color-2" class="st4" d="M46.8,25.3c0,1.8-0.2,3.5-0.7,5.1c-2.6-0.4-6.4-1.4-9.9-2.7c-4.7-1.8-10-2.1-12.8-1.9
		c-2.8,0.2-5.2,1-7.9,2.1c-2,0.8-5,1.7-7.8,2.2c-0.2-1-0.4-2-0.5-3.1c3.9-1.1,7.5-4,9.4-5.3c2.5-1.7,4.8-2.9,6.2-3.4
		c1.4-0.5,3-0.9,5.9-0.8c2.6,0.1,6.5,1.6,10.6,3.6c2.9,1.4,5.1,2.8,7.4,3.6C46.8,24.9,46.8,25.1,46.8,25.3z"/>
	<path id="color-1" class="st0" d="M42.4,12.9C38.8,8.4,33.2,5.5,27,5.5c-6.2,0-11.8,2.9-15.4,7.4c-2.8,3.4-4.4,7.7-4.4,12.4
		c0,0.6,0,1.1,0.1,1.7c3.9-1.1,7.5-4,9.4-5.3c2.5-1.7,4.8-2.9,6.2-3.4c1.4-0.5,3-0.9,5.9-0.8c2.6,0.1,6.5,1.6,10.6,3.6
		c2.9,1.4,5.1,2.8,7.4,3.6C46.6,20.2,45,16.1,42.4,12.9z"/>
</g>
</svg>
