<?xml version="1.0" encoding="UTF-8" standalone="no"?>
<svg
   width="200"
   height="50"
   viewBox="0 0 200 50"
   version="1.1"
   id="svg13"
   xmlns:xlink="http://www.w3.org/1999/xlink"
   xmlns="http://www.w3.org/2000/svg"
   xmlns:svg="http://www.w3.org/2000/svg"
   xmlns:rdf="http://www.w3.org/1999/02/22-rdf-syntax-ns#"
   xmlns:cc="http://creativecommons.org/ns#"
   xmlns:dc="http://purl.org/dc/elements/1.1/">
  <metadata
     id="metadata19">
    <rdf:RDF>
      <cc:Work
         rdf:about="">
        <dc:format>image/svg+xml</dc:format>
        <dc:type
           rdf:resource="http://purl.org/dc/dcmitype/StillImage" />
        <dc:title>SEACMS</dc:title>
      </cc:Work>
    </rdf:RDF>
  </metadata>
  <defs
     id="defs17">
    <clipPath
       id="SVGID_00000139277566381745791680000004499664948049727412_-3">
      <use
         xlink:href="#SVGID_1_"
         style="overflow:visible"
         id="use11-6"
         x="0"
         y="0"
         width="100%"
         height="100%" />
    </clipPath>
    <clipPath
       id="clipPath1004">
      <use
         xlink:href="#SVGID_1_"
         style="overflow:visible"
         id="use1002"
         x="0"
         y="0"
         width="100%"
         height="100%" />
    </clipPath>
    <clipPath
       id="clipPath1008">
      <use
         xlink:href="#SVGID_1_"
         style="overflow:visible"
         id="use1006"
         x="0"
         y="0"
         width="100%"
         height="100%" />
    </clipPath>
    <clipPath
       id="clipPath1012">
      <use
         xlink:href="#SVGID_1_"
         style="overflow:visible"
         id="use1010"
         x="0"
         y="0"
         width="100%"
         height="100%" />
    </clipPath>
    <clipPath
       id="clipPath1016">
      <use
         xlink:href="#SVGID_1_"
         style="overflow:visible"
         id="use1014"
         x="0"
         y="0"
         width="100%"
         height="100%" />
    </clipPath>
    <circle
       id="SVGID_1_"
       cx="276.5"
       cy="374"
       r="191.5" />
    <clipPath
       id="SVGID_00000139277566381745791680000004499664948049727412_-7">
      <use
         xlink:href="#SVGID_1_"
         style="overflow:visible"
         id="use11-5"
         x="0"
         y="0"
         width="100%"
         height="100%" />
    </clipPath>
    <clipPath
       id="clipPath1728">
      <use
         xlink:href="#SVGID_1_"
         style="overflow:visible"
         id="use1726"
         x="0"
         y="0"
         width="100%"
         height="100%" />
    </clipPath>
    <clipPath
       id="clipPath1732">
      <use
         xlink:href="#SVGID_1_"
         style="overflow:visible"
         id="use1730"
         x="0"
         y="0"
         width="100%"
         height="100%" />
    </clipPath>
    <clipPath
       id="clipPath1736">
      <use
         xlink:href="#SVGID_1_"
         style="overflow:visible"
         id="use1734"
         x="0"
         y="0"
         width="100%"
         height="100%" />
    </clipPath>
    <clipPath
       id="clipPath1740">
      <use
         xlink:href="#SVGID_1_"
         style="overflow:visible"
         id="use1738"
         x="0"
         y="0"
         width="100%"
         height="100%" />
    </clipPath>
    <clipPath
       id="SVGID_00000139277566381745791680000004499664948049727412_-1">
      <use
         xlink:href="#SVGID_1_"
         style="overflow:visible"
         id="use11-8"
         x="0"
         y="0"
         width="100%"
         height="100%" />
    </clipPath>
    <clipPath
       id="clipPath31521">
      <use
         xlink:href="#SVGID_1_"
         style="overflow:visible"
         id="use31519"
         x="0"
         y="0"
         width="100%"
         height="100%" />
    </clipPath>
    <clipPath
       id="clipPath31525">
      <use
         xlink:href="#SVGID_1_"
         style="overflow:visible"
         id="use31523"
         x="0"
         y="0"
         width="100%"
         height="100%" />
    </clipPath>
    <clipPath
       id="clipPath31529">
      <use
         xlink:href="#SVGID_1_"
         style="overflow:visible"
         id="use31527"
         x="0"
         y="0"
         width="100%"
         height="100%" />
    </clipPath>
    <clipPath
       id="clipPath31533">
      <use
         xlink:href="#SVGID_1_"
         style="overflow:visible"
         id="use31531"
         x="0"
         y="0"
         width="100%"
         height="100%" />
    </clipPath>
    <clipPath
       id="SVGID_00000139277566381745791680000004499664948049727412_-1-8">
      <use
         xlink:href="#SVGID_1_"
         style="overflow:visible"
         id="use11-8-6"
         x="0"
         y="0"
         width="100%"
         height="100%" />
    </clipPath>
    <clipPath
       id="clipPath100298">
      <use
         xlink:href="#SVGID_1_"
         style="overflow:visible"
         id="use100296"
         x="0"
         y="0"
         width="100%"
         height="100%" />
    </clipPath>
    <clipPath
       id="clipPath100302">
      <use
         xlink:href="#SVGID_1_"
         style="overflow:visible"
         id="use100300"
         x="0"
         y="0"
         width="100%"
         height="100%" />
    </clipPath>
    <clipPath
       id="clipPath100306">
      <use
         xlink:href="#SVGID_1_"
         style="overflow:visible"
         id="use100304"
         x="0"
         y="0"
         width="100%"
         height="100%" />
    </clipPath>
    <clipPath
       id="clipPath100310">
      <use
         xlink:href="#SVGID_1_"
         style="overflow:visible"
         id="use100308"
         x="0"
         y="0"
         width="100%"
         height="100%" />
    </clipPath>
    <clipPath
       id="SVGID_00000139277566381745791680000004499664948049727412_-1-8-0">
      <use
         xlink:href="#SVGID_1_"
         style="overflow:visible"
         id="use11-8-6-4"
         x="0"
         y="0"
         width="100%"
         height="100%" />
    </clipPath>
    <clipPath
       id="clipPath122165">
      <use
         xlink:href="#SVGID_1_"
         style="overflow:visible"
         id="use122163"
         x="0"
         y="0"
         width="100%"
         height="100%" />
    </clipPath>
    <clipPath
       id="clipPath122169">
      <use
         xlink:href="#SVGID_1_"
         style="overflow:visible"
         id="use122167"
         x="0"
         y="0"
         width="100%"
         height="100%" />
    </clipPath>
    <clipPath
       id="clipPath122173">
      <use
         xlink:href="#SVGID_1_"
         style="overflow:visible"
         id="use122171"
         x="0"
         y="0"
         width="100%"
         height="100%" />
    </clipPath>
    <clipPath
       id="clipPath122177">
      <use
         xlink:href="#SVGID_1_"
         style="overflow:visible"
         id="use122175"
         x="0"
         y="0"
         width="100%"
         height="100%" />
    </clipPath>
    <clipPath
       id="SVGID_00000139277566381745791680000004499664948049727412_-1-8-6">
      <use
         xlink:href="#SVGID_1_"
         style="overflow:visible"
         id="use11-8-6-8"
         x="0"
         y="0"
         width="100%"
         height="100%" />
    </clipPath>
    <clipPath
       id="clipPath310138">
      <use
         xlink:href="#SVGID_1_"
         style="overflow:visible"
         id="use310136"
         x="0"
         y="0"
         width="100%"
         height="100%" />
    </clipPath>
    <clipPath
       id="clipPath310142">
      <use
         xlink:href="#SVGID_1_"
         style="overflow:visible"
         id="use310140"
         x="0"
         y="0"
         width="100%"
         height="100%" />
    </clipPath>
    <clipPath
       id="clipPath310146">
      <use
         xlink:href="#SVGID_1_"
         style="overflow:visible"
         id="use310144"
         x="0"
         y="0"
         width="100%"
         height="100%" />
    </clipPath>
    <clipPath
       id="clipPath310150">
      <use
         xlink:href="#SVGID_1_"
         style="overflow:visible"
         id="use310148"
         x="0"
         y="0"
         width="100%"
         height="100%" />
    </clipPath>
    <clipPath
       id="SVGID_00000139277566381745791680000004499664948049727412_-1-8-4">
      <use
         xlink:href="#SVGID_1_"
         style="overflow:visible"
         id="use11-8-6-7"
         x="0"
         y="0"
         width="100%"
         height="100%" />
    </clipPath>
    <clipPath
       id="clipPath310337">
      <use
         xlink:href="#SVGID_1_"
         style="overflow:visible"
         id="use310335"
         x="0"
         y="0"
         width="100%"
         height="100%" />
    </clipPath>
    <clipPath
       id="clipPath310341">
      <use
         xlink:href="#SVGID_1_"
         style="overflow:visible"
         id="use310339"
         x="0"
         y="0"
         width="100%"
         height="100%" />
    </clipPath>
    <clipPath
       id="clipPath310345">
      <use
         xlink:href="#SVGID_1_"
         style="overflow:visible"
         id="use310343"
         x="0"
         y="0"
         width="100%"
         height="100%" />
    </clipPath>
    <clipPath
       id="clipPath310349">
      <use
         xlink:href="#SVGID_1_"
         style="overflow:visible"
         id="use310347"
         x="0"
         y="0"
         width="100%"
         height="100%" />
    </clipPath>
    <circle
       id="circle907"
       cx="276.5"
       cy="374"
       r="191.5" />
    <clipPath
       id="SVGID_00000139277566381745791680000004499664948049727412_-1-8-4-0">
      <use
         xlink:href="#SVGID_1_"
         style="overflow:visible"
         id="use11-8-6-7-0"
         x="0"
         y="0"
         width="100%"
         height="100%" />
    </clipPath>
    <clipPath
       id="clipPath363820">
      <use
         xlink:href="#SVGID_1_"
         style="overflow:visible"
         id="use363818"
         x="0"
         y="0"
         width="100%"
         height="100%" />
    </clipPath>
    <clipPath
       id="clipPath363824">
      <use
         xlink:href="#SVGID_1_"
         style="overflow:visible"
         id="use363822"
         x="0"
         y="0"
         width="100%"
         height="100%" />
    </clipPath>
    <clipPath
       id="clipPath363828">
      <use
         xlink:href="#SVGID_1_"
         style="overflow:visible"
         id="use363826"
         x="0"
         y="0"
         width="100%"
         height="100%" />
    </clipPath>
    <clipPath
       id="clipPath363832">
      <use
         xlink:href="#SVGID_1_"
         style="overflow:visible"
         id="use363830"
         x="0"
         y="0"
         width="100%"
         height="100%" />
    </clipPath>
    <clipPath
       id="SVGID_00000139277566381745791680000004499664948049727412_-1-8-4-0-2">
      <use
         xlink:href="#SVGID_1_"
         style="overflow:visible"
         id="use11-8-6-7-0-1"
         x="0"
         y="0"
         width="100%"
         height="100%" />
    </clipPath>
    <clipPath
       id="clipPath3722">
      <use
         xlink:href="#SVGID_1_"
         style="overflow:visible"
         id="use3720"
         x="0"
         y="0"
         width="100%"
         height="100%" />
    </clipPath>
    <clipPath
       id="clipPath3726">
      <use
         xlink:href="#SVGID_1_"
         style="overflow:visible"
         id="use3724"
         x="0"
         y="0"
         width="100%"
         height="100%" />
    </clipPath>
    <clipPath
       id="clipPath3730">
      <use
         xlink:href="#SVGID_1_"
         style="overflow:visible"
         id="use3728"
         x="0"
         y="0"
         width="100%"
         height="100%" />
    </clipPath>
    <clipPath
       id="clipPath3734">
      <use
         xlink:href="#SVGID_1_"
         style="overflow:visible"
         id="use3732"
         x="0"
         y="0"
         width="100%"
         height="100%" />
    </clipPath>
  </defs>
  <!-- Generator: Sketch 61.2 (89653) - https://sketch.com -->
  <title
     id="title2">SEACMS</title>
  <desc
     id="desc4">Created with Sketch.</desc>
  <g
     aria-label="Bouder "
     style="font-style:normal;font-weight:normal;font-size:29.099px;line-height:1.25;font-family:sans-serif;letter-spacing:0px;word-spacing:0px;fill:#353353;fill-opacity:1;stroke:none;stroke-width:0.727476"
     id="text828-3"
     transform="matrix(1.2529267,0,0,1.2529267,0.22593123,-27.901608)">
    <g
       id="g310853"
       transform="matrix(3.8730029,0,0,3.8730029,-56.797554,-519.24437)" />
    <g
       id="g362601"
       transform="matrix(0.64439364,0,0,0.64439364,-14.701013,-117.21075)"
       style="font-style:normal;font-weight:normal;font-size:29.099px;line-height:1.25;font-family:sans-serif;letter-spacing:0px;word-spacing:0px;fill:#353353;fill-opacity:1;stroke:none;stroke-width:0.727476">
      <g
         aria-label="SEACMS"
         id="text74623-9"
         style="font-size:37.6559px;letter-spacing:2.47715px;fill:#38547a;stroke-width:0.941401">
        <path
           d="m 114.47767,254.42545 q 0,-1.58125 -1.06643,-2.55575 -1.04804,-0.97449 -4.87247,-2.15124 -3.80604,-1.19513 -6.19631,-3.0338 -2.371877,-1.85705 -2.371877,-5.07472 0,-3.23605 2.610907,-5.31375 2.62929,-2.09608 6.87661,-2.09608 4.54151,0 7.09726,2.42704 2.55575,2.40866 2.55575,5.75503 h -4.63344 q 0,-1.96737 -1.23191,-3.21767 -1.23191,-1.26868 -3.84282,-1.26868 -2.44542,0 -3.62217,1.06643 -1.15836,1.04804 -1.15836,2.62929 0,1.50771 1.39739,2.50059 1.39738,0.97449 4.21054,1.80189 4.54151,1.32384 6.71114,3.3096 2.18801,1.98577 2.18801,5.18505 0,3.38314 -2.59252,5.35052 -2.57413,1.96737 -6.93177,1.96737 -2.57414,0 -4.98279,-0.93772 -2.39027,-0.93772 -3.95313,-2.81316 -1.544483,-1.87544 -1.544483,-4.70699 h 4.651823 q 0,2.53736 1.67319,3.65895 1.69157,1.12159 4.15539,1.12159 2.42704,0 3.64056,-0.99288 1.23191,-0.99288 1.23191,-2.61091 z"
           style="font-weight:500;font-family:Roboto;-inkscape-font-specification:'Roboto Medium'"
           id="path383310" />
        <path
           d="m 125.72526,261.33884 v -26.77099 h 17.3754 v 3.73249 H 130.3587 v 7.40983 h 10.99523 v 3.65894 H 130.3587 v 8.25562 h 12.87067 v 3.71411 z"
           style="font-weight:500;font-family:Roboto;-inkscape-font-specification:'Roboto Medium'"
           id="path383312" />
        <path
           d="m 147.08553,261.33884 10.11266,-26.77099 h 4.17378 l 10.14944,26.77099 h -4.85408 l -2.18801,-6.25147 h -10.37009 l -2.16962,6.25147 z m 8.32916,-9.98396 h 7.77756 l -3.89798,-11.14233 z"
           style="font-weight:500;font-family:Roboto;-inkscape-font-specification:'Roboto Medium'"
           id="path383314" />
        <path
           d="m 193.56198,252.82581 h 3.53025 q -0.40451,3.80604 -2.86833,6.3434 -2.46381,2.53736 -7.28112,2.53736 -4.67021,0 -7.53853,-3.32799 -2.84993,-3.34637 -2.90509,-8.88076 v -2.86832 q 0,-5.62632 2.8867,-9.02785 2.9051,-3.40154 7.8695,-3.40154 4.5415,0 6.98693,2.50059 2.44543,2.50059 2.84994,6.45372 h -3.53025 q -0.4045,-2.79477 -1.80189,-4.4128 -1.39739,-1.63641 -4.50473,-1.63641 -3.54863,0 -5.3873,2.6109 -1.83866,2.61091 -1.83866,6.87662 v 2.70284 q 0,3.95313 1.67318,6.74791 1.67319,2.77638 5.2402,2.77638 3.38315,0 4.76215,-1.58125 1.39739,-1.58125 1.85705,-4.4128 z"
           style="font-family:Roboto;-inkscape-font-specification:Roboto"
           id="path383316" />
        <path
           d="m 217.71702,256.39282 8.75205,-21.82497 h 4.5599 v 26.77099 h -3.53024 v -10.44363 l 0.34934,-11.19748 -8.80721,21.64111 h -2.68446 l -8.78882,-21.67789 0.34934,11.23426 v 10.44363 h -3.53024 v -26.77099 h 4.5599 z"
           style="font-family:Roboto;-inkscape-font-specification:Roboto"
           id="path383318" />
        <path
           d="m 254.00726,254.57254 q 0,-1.83866 -1.25029,-2.94186 -1.23191,-1.1032 -5.20343,-2.26157 -3.97152,-1.17674 -6.28824,-2.97864 -2.29833,-1.82028 -2.29833,-4.90924 0,-3.12573 2.4822,-5.20342 2.50058,-2.0777 6.6192,-2.0777 4.52312,0 6.96854,2.4822 2.46382,2.4822 2.46382,5.60794 h -3.53024 q 0,-2.24318 -1.45255,-3.71411 -1.45255,-1.47093 -4.44957,-1.47093 -2.83155,0 -4.19216,1.25029 -1.36062,1.23191 -1.36062,3.08896 0,1.67319 1.43416,2.79477 1.45255,1.1032 4.70699,2.02254 4.65183,1.30545 6.78468,3.23605 2.13286,1.91222 2.13286,5.03795 0,3.27283 -2.55575,5.22181 -2.55575,1.94899 -6.78468,1.94899 -2.46382,0 -4.79892,-0.91933 -2.31672,-0.91934 -3.82443,-2.72123 -1.48932,-1.82028 -1.48932,-4.48635 h 3.53024 q 0,2.73962 2.00415,3.98991 2.00414,1.25029 4.57828,1.25029 2.77638,0 4.2657,-1.13997 1.50771,-1.15836 1.50771,-3.10735 z"
           style="font-family:Roboto;-inkscape-font-specification:Roboto"
           id="path383320" />
      </g>
      <g
         id="g2181-7-2-2"
         transform="matrix(0.1282561,0,0,0.1282561,20.478355,199.89853)"
         style="font-style:normal;font-weight:normal;font-size:29.099px;line-height:1.25;font-family:sans-serif;letter-spacing:0px;word-spacing:0px;fill:#353353;fill-opacity:1;stroke:none;stroke-width:0.727476">
        <path
           style="fill:#a4ebd4;fill-opacity:1"
           d="m 26.4,179 h 536 c 0,0 0.1,0 0.1,0.1 v 389.8 c 0,0 0,0.1 -0.1,0.1 h -536 c 0,0 -0.1,0 -0.1,-0.1 L 26.4,179 c -0.1,0 -0.1,0 0,0 z"
           clip-path="url(#SVGID_00000139277566381745791680000004499664948049727412_-1-8-4-0-2)"
           id="rect19608-9-9-5"
           transform="translate(-0.1)" />
        <g
           id="path16818-2-9-9"
           clip-path="url(#SVGID_00000139277566381745791680000004499664948049727412_-1-8-4-0-2)">
          <g
             id="g19-0-08-5">
            <path
               class="st3"
               d="M 26.872277,253.5852 H 563.07228 v 234.6 c 0,0 -23.7,14.2 -67.2,14.2 -65.5,0 -127.3,-28 -206.3,-20.3 -84.8,8.3 -117.9,34.1 -131.7,41.8 -14.1,7.9 -50.5,36 -87.000003,34.1 -36.5,-1.9 -44.2,-12.8 -44.2,-12.8 z"
               id="path17-2-1-0"
               style="fill:#49d7ac;fill-opacity:1" />
          </g>
        </g>
        <g
           id="path11646-3-3-0"
           clip-path="url(#SVGID_00000139277566381745791680000004499664948049727412_-1-8-4-0-2)">
          <g
             id="g26-7-1-7">
            <path
               class="st4"
               d="M 26.872277,253.5852 H 563.07228 v 209.2 c 0,0 -18.4,17.3 -39.5,24.1 -21.2,6.8 -54.9,13 -95.7,-4.1 -15.9,-6.7 -54.5,-32.5 -88.5,-47.8 -19.4,-8.7 -48.3,-18.8 -67.6,-18.4 -19.8,0.3 -37,0.6 -116,51.1 -44.1,28.2 -61.700003,34.4 -80.500003,34.7 -23.9,0.2 -48.7,-20.8 -48.7,-20.8 z"
               id="path24-5-1-0"
               style="fill:#44ac9b;fill-opacity:1" />
          </g>
        </g>
        <g
           id="path7323-9-0-0"
           clip-path="url(#SVGID_00000139277566381745791680000004499664948049727412_-1-8-4-0-2)">
          <g
             id="g33-2-3-7">
            <path
               class="st5"
               d="M 26.872277,253.5852 H 563.07228 v 148.5 c 0,0 -34,24.8 -81.2,23.1 -21.2,-0.8 -70.9,-11.5 -116.1,-28.8 -45,-17.2 -96.6,-20.8 -123.7,-18.7 -27.5,2.2 -50.2,10.2 -76.5,20.7 -26.4,10.5 -74.300003,24.2 -104.400003,25.8 -23.6,1.2 -34.5,-6.8 -34.5,-6.8 z"
               id="path31-2-4-6"
               style="fill:#3e7f8a;fill-opacity:1" />
          </g>
        </g>
        <g
           id="path996-8-0-8"
           clip-path="url(#SVGID_00000139277566381745791680000004499664948049727412_-1-8-4-0-2)">
          <g
             id="g40-9-3-2">
            <path
               class="st6"
               d="m 26.872277,161.33169 536.200003,-0.14927 -0.2,195.80278 c 0,0 -28,18.4 -60.7,17.3 -35.4,-1.3 -64.4,-21.2 -106,-41.8 -39.1,-19.4 -76.7,-33.6 -102.2,-34.6 -28,-1 -43.9,3.2 -57.2,7.9 -13.3,4.8 -35.9,16.4 -60,32.7 -23.4,15.9 -72.7,57.3 -121.000003,55.7 -17.4,-0.6 -29,-6 -29,-6 z"
               id="path38-7-9-5"
               style="fill:#38547a;fill-opacity:1" />
          </g>
        </g>
      </g>
    </g>
  </g>
  <style
     type="text/css"
     id="style2">
	.st0{display:none;}
	.st1{clip-path:url(#SVGID_00000166655562898774251410000002291716198273262767_);fill:#355C7D;}
	.st2{clip-path:url(#SVGID_00000166655562898774251410000002291716198273262767_);}
	.st3{fill:#6C5B7B;}
	.st4{fill:#C06C84;}
	.st5{fill:#F67280;}
	.st6{fill:#F8B195;}
</style>
</svg>
