<?xml version="1.0" encoding="UTF-8" standalone="no"?>
<svg
   width="200" height="50" viewBox="0 0 200 50" id="logo" version="1.1"
   xmlns:xlink="http://www.w3.org/1999/xlink" xmlns="http://www.w3.org/2000/svg" xmlns:svg="http://www.w3.org/2000/svg" xmlns:rdf="http://www.w3.org/1999/02/22-rdf-syntax-ns#" xmlns:cc="http://creativecommons.org/ns#" xmlns:dc="http://purl.org/dc/elements/1.1/">
  <metadata id="metadataLogo"><rdf:RDF><cc:Work><dc:format>image/svg+xml</dc:format><dc:title>Logo SEACMS</dc:title></cc:Work></rdf:RDF></metadata>
  <defs id="defsIcon">
    <circle id="circle" cx="276.5" cy="374" r="191.5" />
    <clipPath id="mask">
      <use xlink:href="#circle" id="use11-8-6-7-0-1" x="0" y="0" width="100%" height="100%" />
    </clipPath>
  </defs>
  <title id="title">SEACMS</title>
  <desc id="desc">Created by MB</desc>
  <g id="icon" transform="matrix(0.10355115,0,0,0.10355115,-1.6595872,-13.364411)">
    <path id="color-5" style="fill:#a4ebd4;" clip-path="url(#mask)" d="m 26.4,179 h 536 c 0,0 0.1,0 0.1,0.1 v 389.8 c 0,0 0,0.1 -0.1,0.1 h -536 c 0,0 -0.1,0 -0.1,-0.1 L 26.4,179 c -0.1,0 -0.1,0 0,0 z"/>
    <g id="mask-color-4" clip-path="url(#mask)">
      <path id="color-4" style="fill:#49d7ac;" d="M 26.872277,253.5852 H 563.07228 v 234.6 c 0,0 -23.7,14.2 -67.2,14.2 -65.5,0 -127.3,-28 -206.3,-20.3 -84.8,8.3 -117.9,34.1 -131.7,41.8 -14.1,7.9 -50.5,36 -87.000003,34.1 -36.5,-1.9 -44.2,-12.8 -44.2,-12.8 z"/>
    </g>
    <g id="mask-color-3" clip-path="url(#mask)">
      <path id="color-3" style="fill:#44ac9b;" d="M 26.872277,253.5852 H 563.07228 v 209.2 c 0,0 -18.4,17.3 -39.5,24.1 -21.2,6.8 -54.9,13 -95.7,-4.1 -15.9,-6.7 -54.5,-32.5 -88.5,-47.8 -19.4,-8.7 -48.3,-18.8 -67.6,-18.4 -19.8,0.3 -37,0.6 -116,51.1 -44.1,28.2 -61.700003,34.4 -80.500003,34.7 -23.9,0.2 -48.7,-20.8 -48.7,-20.8 z"/>
    </g>
    <g id="mask-color-2" clip-path="url(#mask)">
      <path id="color-2" style="fill:#3e7f8a;" d="M 26.872277,253.5852 H 563.07228 v 148.5 c 0,0 -34,24.8 -81.2,23.1 -21.2,-0.8 -70.9,-11.5 -116.1,-28.8 -45,-17.2 -96.6,-20.8 -123.7,-18.7 -27.5,2.2 -50.2,10.2 -76.5,20.7 -26.4,10.5 -74.300003,24.2 -104.400003,25.8 -23.6,1.2 -34.5,-6.8 -34.5,-6.8 z"/>
    </g>
    <g id="mask-color-1" clip-path="url(#mask)">
      <path id="color-1" style="fill:#38547a;" d="m 26.872277,161.33169 536.200003,-0.14927 -0.2,195.80278 c 0,0 -28,18.4 -60.7,17.3 -35.4,-1.3 -64.4,-21.2 -106,-41.8 -39.1,-19.4 -76.7,-33.6 -102.2,-34.6 -28,-1 -43.9,3.2 -57.2,7.9 -13.3,4.8 -35.9,16.4 -60,32.7 -23.4,15.9 -72.7,57.3 -121.000003,55.7 -17.4,-0.6 -29,-6 -29,-6 z"/>
    </g>
  </g>
  <g id="text" transform="matrix(0.78594546,0,0,0.78594546,-13.618908,-122.00863)" style="fill:#38547a;">
    <path id="S" d="m 115.50815,192.81199 q 0,4.32072 -2.91648,6.55309 -2.91649,2.23238 -8.56943,2.23238 -2.26838,0 -4.212702,-0.32406 -1.944324,-0.32405 -3.888648,-1.00817 v -6.69711 q 1.764294,1.00817 3.888648,1.54826 2.124352,0.54009 4.320722,0.54009 1.72829,0 2.59243,-0.54009 0.86414,-0.54009 0.86414,-1.62027 0,-0.75613 -0.72012,-1.36823 -0.68411,-0.64811 -3.16852,-1.65628 -2.3764,-1.00817 -3.52859,-1.65627 -1.116188,-0.68412 -1.944326,-1.47625 -1.152192,-1.11619 -1.728288,-2.52042 -0.576096,-1.44024 -0.576096,-3.20453 0,-3.88865 2.844474,-6.04901 2.844476,-2.16036 7.957326,-2.16036 2.08835,0 4.10468,0.43207 2.01634,0.39607 3.49259,1.15219 v 7.05718 q -1.40424,-1.1882 -3.49259,-1.87231 -2.08834,-0.72012 -4.2127,-0.72012 -1.51225,0 -2.23237,0.43207 -0.72012,0.39606 -0.72012,1.26021 0,0.82814 0.75613,1.54826 0.79213,0.68411 3.45657,1.8363 2.26838,0.97216 3.34856,1.62027 1.11619,0.6121 1.90832,1.29622 1.1882,1.08018 1.76429,2.4124 0.6121,1.33222 0.6121,2.95249 z"/>
    <path id="E" d="m 140.81308,195.33241 v 5.90499 H 122.66605 V 173.76482 H 140.381 v 5.90498 h -9.86564 v 4.68078 h 9.14552 v 5.90499 h -9.14552 v 5.07684 z"/>
    <path id="A" d="m 155.46021,196.19656 -1.54826,5.04084 h -8.10135 l 9.14553,-27.47258 h 8.13735 l 9.14553,27.47258 h -8.10135 l -1.54826,-5.04084 z m 3.45658,-14.94249 q -0.14403,0.97216 -0.43207,2.4484 -0.28805,1.44024 -0.61211,2.59244 l -1.11618,3.99666 h 4.53675 l -1.08018,-3.99666 q -0.32405,-1.1882 -0.6481,-2.62844 -0.28805,-1.47625 -0.39607,-2.4124 z"/>
    <path id="C" d="m 181.59324,187.4831 q 0,4.71679 2.08835,7.45325 2.12436,2.73645 5.68895,2.73645 1.69228,0 3.56459,-0.6121 1.90832,-0.6121 3.34856,-1.65628 v 4.21271 q -1.40423,0.90015 -3.42057,1.47624 -2.01633,0.54009 -3.99666,0.54009 -5.22087,0 -8.42541,-3.96066 -3.20453,-3.96066 -3.20453,-10.15369 0,-6.22904 3.27654,-10.1897 3.31256,-3.96066 8.67745,-3.96066 1.94432,0 3.85264,0.50409 1.90832,0.50408 3.06051,1.36822 v 4.21271 q -1.51225,-1.04418 -3.20453,-1.58427 -1.69228,-0.57609 -3.31255,-0.57609 -3.67262,0 -5.83298,2.73645 -2.16036,2.70045 -2.16036,7.45324 z"/>
    <path id="M" d="m 208.05038,185.50277 -0.39606,15.73463 h -4.39274 l 1.29622,-27.47258 h 4.96883 l 6.33705,18.36306 q 0.39607,1.15219 0.72012,2.26838 0.32406,1.08018 0.5761,2.16036 h 0.10802 q 0.036,-0.072 0.46808,-1.65628 0.46807,-1.62027 0.86414,-2.80847 l 6.33706,-18.32705 h 4.96882 l 1.29622,27.47258 h -4.39273 l -0.39607,-15.73463 q -0.036,-1.36822 0,-2.70045 0.072,-1.33222 0.18003,-2.62843 h -0.10802 q -0.28804,1.29621 -0.68411,2.62843 -0.39607,1.33223 -0.86414,2.70045 l -5.43691,15.73463 h -4.53676 l -5.4369,-15.73463 q -0.46808,-1.36822 -0.86415,-2.70045 -0.36006,-1.33222 -0.68411,-2.62843 h -0.10802 q 0.14403,1.29621 0.18003,2.62843 0.036,1.33223 0,2.70045 z"/>
    <path id="S" d="m 254.74285,193.74815 q 0,3.67261 -2.55642,5.79696 -2.52042,2.08835 -7.02117,2.08835 -1.7643,0 -3.42057,-0.36006 -1.62027,-0.36006 -3.20454,-1.08018 v -4.32072 q 1.47625,0.97216 3.20454,1.51225 1.72828,0.50409 3.49258,0.50409 2.4124,0 3.74462,-0.97216 1.36823,-0.97217 1.36823,-2.70045 0,-1.33223 -0.93616,-2.41241 -0.90015,-1.11618 -4.03267,-2.80846 -2.05234,-1.11619 -3.0245,-1.7643 -0.93616,-0.68411 -1.62027,-1.40423 -1.04418,-1.04418 -1.54826,-2.30439 -0.50408,-1.29621 -0.50408,-2.80846 0,-3.38457 2.37639,-5.3649 2.3764,-1.98033 6.40907,-1.98033 1.65628,0 3.16853,0.36006 1.51225,0.32406 2.77246,0.97216 v 4.53676 q -1.04417,-0.93616 -2.73646,-1.47625 -1.65627,-0.54009 -3.42057,-0.54009 -2.01633,0 -3.09651,0.82814 -1.08018,0.79213 -1.08018,2.26838 0,1.26021 0.86414,2.30438 0.90015,1.00817 3.92466,2.59244 2.12435,1.11618 3.09651,1.8003 1.00817,0.68411 1.69228,1.40423 1.08018,1.11619 1.58427,2.44841 0.50408,1.29621 0.50408,2.88048 z"/>
  </g>
</svg>
