<?xml version="1.0" standalone="no"?>
<!DOCTYPE svg PUBLIC "-//W3C//DTD SVG 1.1//EN" "http://www.w3.org/Graphics/SVG/1.1/DTD/svg11.dtd" >
<svg xmlns="http://www.w3.org/2000/svg" xmlns:xlink="http://www.w3.org/1999/xlink" version="1.1">
<metadata>
Created by FontForge 20170812 at Wed Mar 20 07:51:07 2019
 By www-data
Luciole (c) Laurent Bourcellier &#38; Jonathan Perez - 2019
</metadata>
<defs>
<font id="Luciole-Bold" horiz-adv-x="660" >
  <font-face 
    font-family="Luciole"
    font-weight="600"
    font-stretch="normal"
    units-per-em="1000"
    panose-1="2 11 8 0 2 2 0 0 0 3"
    ascent="800"
    descent="-200"
    x-height="544"
    cap-height="763"
    bbox="-115 -388 1794 1387"
    underline-thickness="120"
    underline-position="-310"
    unicode-range="U+0020-FB04"
  />
<missing-glyph horiz-adv-x="840" 
d="M760 802v-1037h-680v1037h680zM670 712h-500v-857h500v857zM603 466q0 -34 -15 -66t-64 -87q-55 -61 -72 -100t-17 -82h-101q-1 54 17 100.5t75 111.5q38 44 49 66.5t11 45.5q0 43 -25 67t-69 24q-40 0 -82.5 -17t-72.5 -45v111q34 25 78 38.5t89 13.5q90 0 144.5 -48.5
t54.5 -132.5zM463 -10q0 -32 -23 -55t-55 -23t-55 23t-23 55t23 55t55 23t55 -23t23 -55z" />
    <glyph glyph-name="f_f" unicode="ff" horiz-adv-x="958" 
d="M312 395v-395h-200v395h-82v150h83q8 128 71 192t183 64q33 0 69 -5t73 -15v-162q-32 10 -59 14t-57 4q-43 0 -62 -21t-18 -71h143v-150h-144zM791 395v-395h-200v395h-82v150h83q8 128 71 192t183 64q33 0 69 -5t73 -15v-162q-32 10 -59 14t-57 4q-43 0 -62 -21t-18 -71
h143v-150h-144z" />
    <glyph glyph-name="fi" unicode="fi" horiz-adv-x="839" 
d="M779 744q0 -50 -34.5 -83.5t-84.5 -33.5q-52 0 -86.5 33.5t-34.5 83.5t34.5 83t86.5 33q51 0 85 -33t34 -83zM312 395v-395h-200v395h-82v150h83q8 128 71 192t183 64q33 0 69 -5t73 -15v-162q-32 10 -59 14t-57 4q-43 0 -62 -21t-18 -71h143v-150h-144zM759 545v-545
h-200v545h200z" />
    <glyph glyph-name="fl" unicode="fl" horiz-adv-x="839" 
d="M312 395v-395h-200v395h-82v150h83q8 128 71 192t183 64q33 0 69 -5t73 -15v-162q-32 10 -59 14t-57 4q-43 0 -62 -21t-18 -71h143v-150h-144zM759 791v-791h-200v791h200z" />
    <glyph glyph-name="f_f_i" unicode="ffi" horiz-adv-x="1318" 
d="M1258 744q0 -50 -34.5 -83.5t-84.5 -33.5q-52 0 -86.5 33.5t-34.5 83.5t34.5 83t86.5 33q51 0 85 -33t34 -83zM312 395v-395h-200v395h-82v150h83q8 128 71 192t183 64q33 0 69 -5t73 -15v-162q-32 10 -59 14t-57 4q-43 0 -62 -21t-18 -71h143v-150h-144zM791 395v-395
h-200v395h-82v150h83q8 128 71 192t183 64q33 0 69 -5t73 -15v-162q-32 10 -59 14t-57 4q-43 0 -62 -21t-18 -71h143v-150h-144zM1238 545v-545h-200v545h200z" />
    <glyph glyph-name="f_f_l" unicode="ffl" horiz-adv-x="1318" 
d="M312 395v-395h-200v395h-82v150h83q8 128 71 192t183 64q33 0 69 -5t73 -15v-162q-32 10 -59 14t-57 4q-43 0 -62 -21t-18 -71h143v-150h-144zM791 395v-395h-200v395h-82v150h83q8 128 71 192t183 64q33 0 69 -5t73 -15v-162q-32 10 -59 14t-57 4q-43 0 -62 -21t-18 -71
h143v-150h-144zM1238 791v-791h-200v791h200z" />
    <glyph glyph-name=".notdef" horiz-adv-x="840" 
d="M760 802v-1037h-680v1037h680zM670 712h-500v-857h500v857zM603 466q0 -34 -15 -66t-64 -87q-55 -61 -72 -100t-17 -82h-101q-1 54 17 100.5t75 111.5q38 44 49 66.5t11 45.5q0 43 -25 67t-69 24q-40 0 -82.5 -17t-72.5 -45v111q34 25 78 38.5t89 13.5q90 0 144.5 -48.5
t54.5 -132.5zM463 -10q0 -32 -23 -55t-55 -23t-55 23t-23 55t23 55t55 23t55 -23t23 -55z" />
    <glyph glyph-name="glyph1" horiz-adv-x="0" 
 />
    <glyph glyph-name="nonmarkingreturn" horiz-adv-x="357" 
 />
    <glyph glyph-name="space" unicode=" " horiz-adv-x="390" 
 />
    <glyph glyph-name="exclam" unicode="!" horiz-adv-x="324" 
d="M61 474q-4 116 -5.5 176.5t-1.5 112.5h211q0 -47 -1 -102t-5 -161q-3 -97 -4 -141.5t-1 -79.5h-188q0 31 -1 70.5t-4 124.5zM289 104q0 -50 -35 -83.5t-86 -33.5q-53 0 -88 33.5t-35 83.5t35.5 83t87.5 33q51 0 86 -33t35 -83z" />
    <glyph glyph-name="quotedbl" unicode="&#x22;" horiz-adv-x="523" 
d="M272 754l-110 -310l-132 37l61 305zM503 754l-110 -310l-132 37l61 305z" />
    <glyph glyph-name="numbersign" unicode="#" horiz-adv-x="864" 
d="M375 0l51 181h-98l-51 -181h-182l51 181h-96v160h141l20 74h-89v160h134l53 188h182l-53 -188h98l53 188h182l-53 -188h96v-160h-141l-20 -74h89v-160h-134l-51 -181h-182zM373 341h98l20 74h-98z" />
    <glyph glyph-name="dollar" unicode="$" horiz-adv-x="644" 
d="M594 234q0 -86 -42 -142.5t-123 -81.5v-88h-200v69q-48 3 -91.5 12t-87.5 24v186q49 -28 108 -43t120 -15q48 0 72 15t24 45q0 21 -19.5 38.5t-88.5 45.5q-66 28 -97.5 46.5t-54.5 40.5q-32 31 -48 70.5t-16 88.5q0 82 46.5 137.5t132.5 76.5v111h200v-102
q37 -6 71 -15.5t61 -23.5v-196q-39 33 -97 52.5t-117 19.5q-42 0 -62 -11.5t-20 -35.5q0 -23 21.5 -42.5t95.5 -51.5q63 -27 93.5 -44.5t52.5 -36.5q33 -30 49.5 -67t16.5 -82z" />
    <glyph glyph-name="percent" unicode="%" horiz-adv-x="1332" 
d="M552 518q0 -120 -62 -185.5t-179 -65.5q-118 0 -179.5 65t-61.5 186t62 186t179 65t179 -65.5t62 -185.5zM915 763l-314 -763h-182l314 763h182zM368 518q0 63 -14 93.5t-43 30.5t-43 -30t-14 -94t14 -94t43 -30t43 30.5t14 93.5zM1262 241q0 -120 -62 -185.5t-179 -65.5
q-118 0 -179.5 65t-61.5 186t62 186t179 65t179 -65.5t62 -185.5zM1078 241q0 63 -14 93.5t-43 30.5t-43 -30t-14 -94t14 -94t43 -30t43 30.5t14 93.5z" />
    <glyph glyph-name="ampersand" unicode="&#x26;" horiz-adv-x="855" 
d="M272 543q0 -38 31.5 -57.5t93.5 -19.5h418v-162h-132v-49q0 -54 14 -73.5t49 -19.5q13 0 31.5 3t47.5 11v-163q-33 -12 -66 -17.5t-67 -5.5q-63 0 -109 23.5t-71 70.5q-8 -9 -16.5 -17t-18.5 -16q-19 -15 -38.5 -26.5t-40.5 -18.5q-22 -8 -44.5 -12t-45.5 -4
q-114 0 -181 63.5t-67 172.5q0 60 35 104.5t90 56.5v4q-50 14 -81 63.5t-31 113.5q0 97 68.5 152t193.5 55q63 0 125.5 -12.5t105.5 -34.5v-184q-20 14 -44.5 26t-53.5 22q-28 9 -55 14t-53 5q-45 0 -66.5 -16.5t-21.5 -51.5zM260 232q0 -39 25 -58.5t74 -19.5q44 0 75.5 15
t48.5 44v91h-86q-80 0 -108.5 -17t-28.5 -55z" />
    <glyph glyph-name="quotesingle" unicode="'" horiz-adv-x="292" 
d="M272 754l-110 -310l-132 37l61 305z" />
    <glyph glyph-name="parenleft" unicode="(" horiz-adv-x="393" 
d="M260 284q0 -137 31.5 -250.5t91.5 -193.5l-145 -95q-86 101 -132 240.5t-46 297.5q0 157 46 296.5t132 243.5l145 -95q-60 -79 -91.5 -192.5t-31.5 -251.5z" />
    <glyph glyph-name="parenright" unicode=")" horiz-adv-x="393" 
d="M133 283q0 137 -31.5 250.5t-91.5 193.5l145 95q86 -101 132 -240.5t46 -297.5q0 -157 -46 -296.5t-132 -243.5l-145 95q60 79 91.5 192.5t31.5 251.5z" />
    <glyph glyph-name="asterisk" unicode="*" horiz-adv-x="594" 
d="M433 506l79 -97l-147 -107l-67 105l-69 -105l-147 107l79 96l-121 33l56 173l117 -45l-7 125h182l-7 -125l117 45l56 -173z" />
    <glyph glyph-name="plus" unicode="+" horiz-adv-x="742" 
d="M652 192h-196v-192h-170v192h-196v160h196v192h170v-192h196v-160z" />
    <glyph glyph-name="comma" unicode="," horiz-adv-x="308" 
d="M293 76l-171 -281l-122 64l122 286z" />
    <glyph glyph-name="hyphen" unicode="-" horiz-adv-x="480" 
d="M440 353v-160h-400v160h400z" />
    <glyph glyph-name="period" unicode="." horiz-adv-x="324" 
d="M284 104q0 -50 -35 -83.5t-86 -33.5q-53 0 -88 33.5t-35 83.5t35.5 83t87.5 33q51 0 86 -33t35 -83z" />
    <glyph glyph-name="slash" unicode="/" horiz-adv-x="529" 
d="M319 870h200l-309 -948h-200z" />
    <glyph glyph-name="zero" unicode="0" horiz-adv-x="760" 
d="M700 381q0 -189 -82 -290t-238 -101q-157 0 -238.5 100.5t-81.5 290.5t81.5 291t238.5 101q156 0 238 -101.5t82 -290.5zM496 381q0 113 -28.5 167.5t-87.5 54.5t-87.5 -54t-28.5 -168t28.5 -167.5t87.5 -53.5t87.5 54t28.5 167z" />
    <glyph glyph-name="one" unicode="1" horiz-adv-x="564" 
d="M534 164v-164h-484v164h142v353h-142v146q18 0 34.5 2t30.5 7q16 5 29.5 13.5t23.5 19.5q12 14 18 28.5t6 29.5h200v-599h142z" />
    <glyph glyph-name="two" unicode="2" horiz-adv-x="621" 
d="M561 164v-164h-511v168q195 184 247.5 249.5t52.5 113.5q0 41 -23 60t-72 19q-52 0 -100.5 -14t-92.5 -41v173q43 21 105 34t121 13q122 0 191.5 -60t69.5 -170q0 -74 -54.5 -153.5t-204.5 -223.5l3 -4h268z" />
    <glyph glyph-name="three" unicode="3" horiz-adv-x="617" 
d="M258 -10q-26 0 -51 2t-49 5q-31 5 -55.5 10.5t-42.5 12.5v176q22 -9 47.5 -16t54.5 -13q29 -7 55.5 -10t50.5 -3q55 0 82 19t27 59q0 38 -28.5 55t-108.5 17h-91v162h91q62 0 93.5 19.5t31.5 57.5q0 35 -21.5 51.5t-66.5 16.5q-26 0 -53 -5t-55 -14q-29 -10 -53.5 -22
t-44.5 -26v184q43 22 105.5 34.5t125.5 12.5q125 0 193.5 -55t68.5 -152q0 -64 -31 -113.5t-81 -63.5v-4q55 -12 90 -56.5t35 -104.5q0 -111 -84.5 -173.5t-234.5 -62.5z" />
    <glyph glyph-name="four" unicode="4" horiz-adv-x="708" 
d="M379 0v163h-339v152l293 448h246v-444h79v-156h-79v-163h-200zM245 322l1 -3h133v141q0 28 1.5 56.5t3.5 56.5h-3q-14 -27 -29.5 -55t-31.5 -58z" />
    <glyph glyph-name="five" unicode="5" horiz-adv-x="643" 
d="M259 -11q-24 0 -48 1.5t-48 5.5q-29 4 -52.5 9t-40.5 12v175q56 -19 106 -29t95 -10q56 0 86.5 24.5t30.5 69.5q0 58 -62.5 77t-241.5 9v430h469v-164h-269v-112q143 7 223.5 -53.5t80.5 -178.5q0 -125 -86.5 -195.5t-242.5 -70.5z" />
    <glyph glyph-name="six" unicode="6" horiz-adv-x="711" 
d="M656 259q0 -120 -80.5 -195t-214.5 -75q-142 0 -221.5 98t-79.5 269q0 204 91.5 311t264.5 107q47 0 101 -8.5t91 -22.5v-182q-47 24 -95 36.5t-95 12.5q-81 0 -121 -40.5t-40 -122.5q34 21 76.5 33t86.5 12q108 0 172 -63t64 -170zM456 243q0 48 -24 73.5t-69 25.5
q-29 0 -56 -10t-46 -28q0 -69 28 -110t78 -41q40 0 64.5 24.5t24.5 65.5z" />
    <glyph glyph-name="seven" unicode="7" horiz-adv-x="580" 
d="M550 611l-269 -611h-201l264 597l-1 2h-323v164h530v-152z" />
    <glyph glyph-name="eight" unicode="8" horiz-adv-x="724" 
d="M664 229q0 -104 -85.5 -171.5t-213.5 -67.5q-140 0 -222.5 59t-82.5 158q0 59 30 107t88 82q-45 33 -66 70.5t-21 83.5q0 102 73 162.5t198 60.5q120 0 194 -56.5t74 -144.5q0 -50 -26 -92.5t-70 -66.5q65 -32 97.5 -78t32.5 -106zM429 545q0 33 -20 52.5t-54 19.5
q-28 0 -46 -17t-18 -44q0 -25 22 -45t71 -37q25 19 35 35t10 36zM464 219q0 32 -32 58t-114 55q-27 -19 -42 -44.5t-15 -53.5q0 -41 27 -64.5t74 -23.5t74.5 20t27.5 53z" />
    <glyph glyph-name="nine" unicode="9" horiz-adv-x="711" 
d="M55 504q0 120 80.5 195t214.5 75q142 0 221.5 -98t79.5 -269q0 -204 -91.5 -311t-264.5 -107q-47 0 -101 8.5t-91 22.5v182q47 -24 95 -36.5t95 -12.5q81 0 121 40.5t40 122.5q-34 -21 -76.5 -33t-86.5 -12q-108 0 -172 63t-64 170zM255 520q0 -48 24 -73.5t69 -25.5
q29 0 56 10t46 28q0 69 -28 110t-78 41q-40 0 -64.5 -24.5t-24.5 -65.5z" />
    <glyph glyph-name="colon" unicode=":" horiz-adv-x="324" 
d="M284 440q0 -50 -35 -83.5t-86 -33.5q-53 0 -88 33.5t-35 83.5t35.5 83t87.5 33q51 0 86 -33t35 -83zM284 104q0 -50 -35 -83.5t-86 -33.5q-53 0 -88 33.5t-35 83.5t35.5 83t87.5 33q51 0 86 -33t35 -83z" />
    <glyph glyph-name="semicolon" unicode=";" horiz-adv-x="343" 
d="M303 467q0 -50 -35 -83.5t-86 -33.5q-53 0 -88 33.5t-35 83.5t35.5 83t87.5 33q51 0 86 -33t35 -83zM283 76l-171 -281l-122 64l122 286z" />
    <glyph glyph-name="less" unicode="&#x3c;" horiz-adv-x="742" 
d="M652 139l-55 -150l-507 213v141l507 213l55 -150l-315 -133z" />
    <glyph glyph-name="equal" unicode="=" horiz-adv-x="742" 
d="M652 492v-160h-562v160h562zM652 212v-160h-562v160h562z" />
    <glyph glyph-name="greater" unicode="&#x3e;" horiz-adv-x="742" 
d="M652 202l-507 -213l-55 150l315 134l-315 133l55 150l507 -213v-141z" />
    <glyph glyph-name="question" unicode="?" horiz-adv-x="537" 
d="M497 591q0 -35 -17 -68.5t-73 -89.5q-54 -55 -71 -87.5t-17 -66.5h-183q-1 46 20.5 90t86.5 108q35 36 45 51t10 28q0 28 -21 41t-64 13t-85.5 -13.5t-87.5 -41.5v173q42 21 98.5 34t107.5 13q124 0 187.5 -46.5t63.5 -137.5zM357 104q0 -50 -35 -83.5t-86 -33.5
q-53 0 -88 33.5t-35 83.5t35.5 83t87.5 33q51 0 86 -33t35 -83z" />
    <glyph glyph-name="at" unicode="@" horiz-adv-x="849" 
d="M453 -82q49 0 102 9.5t81 24.5v-152q-27 -15 -75 -24t-105 -9q-198 0 -307 105.5t-109 291.5q0 180 109.5 286t300.5 106q163 0 241 -70t78 -213v-273h-155l-20 52l-4 1q-35 -35 -68.5 -49.5t-75.5 -14.5q-79 0 -123.5 46t-44.5 124q0 87 63 129t194 42h35q1 3 1 6.5
v10.5q0 25 -36.5 40.5t-93.5 15.5q-110 0 -173.5 -64.5t-63.5 -173.5q0 -115 65.5 -181t183.5 -66zM548 216q-41 0 -59.5 -10.5t-18.5 -35.5q0 -21 11.5 -31.5t33.5 -10.5q23 0 44 10t29 25v53h-40z" />
    <glyph glyph-name="A" unicode="A" horiz-adv-x="774" 
d="M288 140l-43 -140h-225l254 763h226l254 -763h-225l-43 140h-198zM384 555q-4 -27 -12 -67.5t-17 -72.5l-31 -111h126l-30 111q-9 33 -17.5 73.5t-11.5 66.5h-7z" />
    <glyph glyph-name="B" unicode="B" horiz-adv-x="724" 
d="M400 763q117 0 180 -51.5t63 -146.5q0 -67 -30.5 -109t-92.5 -60v-2q71 -11 112.5 -57.5t41.5 -113.5q0 -109 -77 -166t-225 -57h-292v763h320zM298 470h61q34 0 51.5 16.5t17.5 48.5q0 31 -17.5 46.5t-51.5 15.5h-61v-127zM298 166h78q38 0 60 19.5t22 53.5
q0 30 -22 47.5t-61 17.5h-77v-138z" />
    <glyph glyph-name="C" unicode="C" horiz-adv-x="668" 
d="M268 382q0 -103 40 -155t120 -52q51 0 104 17t96 47v-192q-48 -28 -110 -42.5t-129 -14.5q-157 0 -248 107t-91 284q0 180 96.5 286t266.5 106q60 0 111.5 -11.5t98.5 -34.5v-197q-44 31 -88.5 45t-100.5 14q-85 0 -125.5 -51t-40.5 -156z" />
    <glyph glyph-name="D" unicode="D" horiz-adv-x="775" 
d="M735 381q0 -176 -103 -278.5t-286 -102.5h-266v763h263q188 0 290 -100.5t102 -281.5zM334 589h-36v-415h48q83 0 127 54t44 154q0 101 -46.5 154t-136.5 53z" />
    <glyph glyph-name="E" unicode="E" horiz-adv-x="644" 
d="M584 164v-164h-504v763h492v-164h-274v-130h254v-164h-254v-141h286z" />
    <glyph glyph-name="F" unicode="F" horiz-adv-x="623" 
d="M80 763h493v-164h-275v-130h255v-164h-255v-305h-218v763z" />
    <glyph glyph-name="G" unicode="G" horiz-adv-x="775" 
d="M382 436h313v-384q-86 -35 -147.5 -48.5t-127.5 -13.5q-175 0 -277.5 103.5t-102.5 287.5q0 186 108 289t297 103q68 0 125 -11.5t119 -38.5v-193q-60 37 -115 54t-115 17q-103 0 -152 -53.5t-49 -165.5q0 -113 41.5 -167.5t129.5 -54.5q12 0 24.5 1.5t23.5 4.5v106h-95
v164z" />
    <glyph glyph-name="H" unicode="H" horiz-adv-x="812" 
d="M298 300v-300h-218v763h218v-289h216v289h218v-763h-218v300h-216z" />
    <glyph glyph-name="I" unicode="I" horiz-adv-x="563" 
d="M503 164v-164h-443v164h113v435h-113v164h443v-164h-112v-435h112z" />
    <glyph glyph-name="J" unicode="J" horiz-adv-x="603" 
d="M523 297q0 -158 -67 -232.5t-210 -74.5q-53 0 -112 9.5t-84 22.5v197q34 -18 76 -29t79 -11q58 0 79 29t21 106v285h-233v164h451v-466z" />
    <glyph glyph-name="K" unicode="K" horiz-adv-x="740" 
d="M298 291v-291h-218v763h218v-285q33 0 47.5 14.5t34.5 54.5q9 18 21 43t29 65q8 16 17 37.5t31 70.5h253l-162 -278q-21 -36 -40 -58t-39 -32v-4q18 -11 37.5 -35.5t42.5 -63.5l170 -292h-253q-24 49 -34.5 70.5t-18.5 38.5q-19 39 -31.5 64t-22.5 43q-24 44 -38.5 59.5
t-43.5 15.5z" />
    <glyph glyph-name="L" unicode="L" horiz-adv-x="614" 
d="M584 174v-174h-504v763h218v-589h286z" />
    <glyph glyph-name="M" unicode="M" horiz-adv-x="1022" 
d="M287 235l-3 -235h-219l53 763h219l136 -392q14 -43 23 -74t14 -55h4q4 24 12.5 55.5t23.5 74.5l134 391h218l55 -763h-220l-5 235q-1 48 0 93.5t4 88.5h-5q-8 -43 -20 -89.5t-28 -95.5l-76 -232h-193l-79 233q-16 48 -28 94t-19 90h-5q3 -44 4 -89.5t0 -92.5z" />
    <glyph glyph-name="N" unicode="N" horiz-adv-x="812" 
d="M288 295v-295h-208v763h200l179 -291q20 -31 36.5 -62t29.5 -61l4 1q-2 31 -3.5 61t-1.5 60v292h208v-763h-200l-179 294q-19 32 -36 63t-31 60l-4 -1q3 -30 4.5 -60.5t1.5 -60.5z" />
    <glyph glyph-name="O" unicode="O" horiz-adv-x="828" 
d="M788 381q0 -179 -100.5 -285t-274.5 -106t-273.5 105.5t-99.5 285.5t100 286t273 106q174 0 274.5 -106.5t100.5 -285.5zM570 381q0 104 -41 161t-116 57t-115 -56.5t-40 -161.5t40 -161t115 -56q76 0 116.5 56.5t40.5 160.5z" />
    <glyph glyph-name="P" unicode="P" horiz-adv-x="695" 
d="M297 223v-223h-217v763h271q152 0 233 -67t81 -196q0 -133 -85.5 -205t-239.5 -72h-43zM351 593h-54v-200h43q52 0 80 26.5t28 76.5q0 48 -25 72.5t-72 24.5z" />
    <glyph glyph-name="Q" unicode="Q" horiz-adv-x="828" 
d="M807 56l-129 -117l-79 91q-39 -19 -86 -29.5t-100 -10.5q-174 0 -273.5 105.5t-99.5 285.5t100 286t273 106q174 0 274.5 -106.5t100.5 -285.5q0 -74 -18 -136.5t-51 -110.5zM258 381q0 -105 40 -161t115 -56q13 0 25 1.5t22 5.5l-95 85l126 118l70 -80q5 19 7 41t2 46
q0 104 -41 161t-116 57t-115 -56.5t-40 -161.5z" />
    <glyph glyph-name="R" unicode="R" horiz-adv-x="731" 
d="M297 251v-251h-217v763h269q156 0 236 -62t80 -184q0 -68 -28 -122t-79 -85l153 -310h-243l-106 253q-10 -1 -22 -1.5t-22 -0.5h-21zM349 593h-52v-172h41q54 0 82 22.5t28 66.5q0 40 -26 61.5t-73 21.5z" />
    <glyph glyph-name="S" unicode="S" horiz-adv-x="644" 
d="M594 234q0 -120 -81 -182t-238 -62q-63 0 -117 9t-108 28v186q49 -28 108 -43t120 -15q48 0 72 15t24 45q0 21 -19.5 38.5t-88.5 45.5q-66 28 -97.5 46.5t-54.5 40.5q-32 31 -48 70.5t-16 88.5q0 108 79 168t221 60q58 0 114 -11.5t97 -32.5v-196q-39 33 -97 52.5
t-117 19.5q-42 0 -62 -11.5t-20 -35.5q0 -23 21.5 -42.5t95.5 -51.5q63 -27 93.5 -44.5t52.5 -36.5q33 -30 49.5 -67t16.5 -82z" />
    <glyph glyph-name="T" unicode="T" horiz-adv-x="608" 
d="M412 589v-589h-216v589h-196v174h608v-174h-196z" />
    <glyph glyph-name="U" unicode="U" horiz-adv-x="812" 
d="M732 382q0 -223 -73.5 -307.5t-252.5 -84.5t-252.5 86t-73.5 306v381h218v-396q0 -56 3 -82t9 -44q11 -33 35 -49t62 -16q37 0 60.5 16t34.5 49q7 19 9.5 44.5t2.5 81.5v396h218v-381z" />
    <glyph glyph-name="V" unicode="V" horiz-adv-x="774" 
d="M754 763l-256 -763h-222l-256 763h225l141 -539h4l139 539h225z" />
    <glyph glyph-name="W" unicode="W" horiz-adv-x="1072" 
d="M533 450l-120 -450h-218l-155 763h220l37 -253q6 -40 11.5 -96t9.5 -128h5q12 68 24 124t24 101l69 252h193l72 -253q13 -44 25 -100t24 -124h5q4 72 9 128t10 96l35 253h219l-153 -763h-219l-123 450h-4z" />
    <glyph glyph-name="X" unicode="X" horiz-adv-x="747" 
d="M365 221l-119 -221h-236l245 405l-233 358h237l120 -206h4l113 206h235l-242 -385l248 -378h-236l-133 221h-3z" />
    <glyph glyph-name="Y" unicode="Y" horiz-adv-x="724" 
d="M471 281v-281h-216v281l-265 482h243l96 -208q8 -18 14.5 -36t16.5 -53h6q8 29 15 49t16 40l93 208h244z" />
    <glyph glyph-name="Z" unicode="Z" horiz-adv-x="654" 
d="M604 174v-174h-554v159l294 427l-2 3h-282v174h534v-169l-295 -417l2 -3h303z" />
    <glyph glyph-name="bracketleft" unicode="[" horiz-adv-x="379" 
d="M369 635h-109v-703h109v-156h-309v1015h309v-156z" />
    <glyph glyph-name="backslash" unicode="\" horiz-adv-x="529" 
d="M10 870h200l309 -948h-200z" />
    <glyph glyph-name="bracketright" unicode="]" horiz-adv-x="379" 
d="M119 635h-109v156h309v-1015h-309v156h109v703z" />
    <glyph glyph-name="asciicircum" unicode="^" horiz-adv-x="792" 
d="M702 290v-217l-306 221l-306 -221v217l259 186h94z" />
    <glyph glyph-name="underscore" unicode="_" horiz-adv-x="570" 
d="M575 -64v-160h-580v160h580z" />
    <glyph glyph-name="grave" unicode="`" horiz-adv-x="338" 
d="M156 924l172 -217l-94 -92l-224 188z" />
    <glyph glyph-name="a" unicode="a" horiz-adv-x="611" 
d="M362 53q-36 -36 -69.5 -50t-77.5 -14q-77 0 -121 46.5t-44 124.5q0 86 63.5 128t193.5 42h35q1 3 1 6.5v15.5q0 27 -22.5 39.5t-69.5 12.5q-39 0 -73 -6.5t-80 -23.5v157q41 12 87 18t97 6q140 0 199.5 -60t59.5 -196v-299h-155l-20 52zM320 228q-41 0 -59.5 -13
t-18.5 -45q0 -24 12 -37t33 -13q22 0 43.5 10.5t29.5 24.5v73h-40z" />
    <glyph glyph-name="b" unicode="b" horiz-adv-x="665" 
d="M625 293q0 -137 -80 -220t-214 -83q-52 0 -110.5 14t-140.5 45v742h200v-290l2 -2q28 29 63.5 43t81.5 14q88 0 143 -72t55 -191zM280 159q13 -6 26 -9t26 -3q45 0 69 33.5t24 95.5q0 59 -23 90.5t-66 31.5q-18 0 -32.5 -6.5t-23.5 -18.5v-214z" />
    <glyph glyph-name="c" unicode="c" horiz-adv-x="510" 
d="M470 28q-37 -19 -77 -28.5t-82 -9.5q-123 0 -197 78t-74 204q0 131 71.5 207t199.5 76q48 0 86 -9.5t70 -28.5v-163q-27 20 -63 31.5t-72 11.5q-46 0 -69.5 -31t-23.5 -91q0 -59 24 -90.5t69 -31.5q38 0 74 11.5t64 31.5v-168z" />
    <glyph glyph-name="d" unicode="d" horiz-adv-x="666" 
d="M383 43q-22 -26 -57 -40t-79 -14q-93 0 -150 76.5t-57 203.5q0 126 60.5 206.5t160.5 80.5q30 0 61.5 -7.5t58.5 -21.5l5 3v261h200v-791h-200v41zM386 388q-10 7 -24.5 10.5t-29.5 3.5q-44 0 -68 -34.5t-24 -96.5q0 -60 23 -95t65 -35q19 0 34 7.5t24 21.5v218z" />
    <glyph glyph-name="e" unicode="e" horiz-adv-x="585" 
d="M522 21q-45 -16 -91.5 -24t-96.5 -8q-135 0 -214.5 78t-79.5 213q0 125 73.5 200.5t198.5 75.5q111 0 172 -59.5t61 -166.5q0 -28 -4 -56t-11 -51h-301q9 -44 38.5 -63.5t87.5 -19.5q34 0 69 6t98 26v-151zM382 359q0 35 -19.5 54.5t-54.5 19.5q-39 0 -60.5 -25
t-22.5 -73h155q1 2 1.5 6.5t0.5 17.5z" />
    <glyph glyph-name="f" unicode="f" horiz-adv-x="479" 
d="M312 395v-395h-200v395h-82v150h83q8 128 71 192t183 64q33 0 69 -5t73 -15v-162q-32 10 -59 14t-57 4q-43 0 -62 -21t-18 -71h143v-150h-144z" />
    <glyph glyph-name="g" unicode="g" horiz-adv-x="632" 
d="M50 -88q0 29 13.5 53t41.5 44q-22 16 -33 37.5t-11 47.5q0 27 15 59.5t47 72.5q-28 26 -43 60t-15 73q0 86 66 141t179 55q36 0 69 -7t64 -21l151 38v-157h-47q3 -11 5 -23.5t2 -25.5q0 -87 -65.5 -141.5t-178.5 -54.5q-19 0 -35 2t-29 5q-5 -6 -7.5 -13.5t-2.5 -14.5
q0 -12 7 -17t22 -5h157q81 0 130.5 -45t49.5 -116q0 -89 -79 -141.5t-216 -52.5q-122 0 -189.5 39t-67.5 108zM375 359q0 34 -16.5 52t-48.5 18t-49 -18.5t-17 -51.5t17 -51.5t49 -18.5t48.5 18t16.5 52zM262 -20h-17.5t-9.5 1q-5 -5 -8 -14t-3 -19q0 -29 21.5 -42.5
t70.5 -13.5q54 0 81 12.5t27 36.5q0 21 -11.5 30t-39.5 9h-111z" />
    <glyph glyph-name="h" unicode="h" horiz-adv-x="686" 
d="M280 377v-377h-200v791h200v-281l4 -3q31 24 68 36.5t79 12.5q86 0 130.5 -48t44.5 -141v-367h-200v326q0 42 -10 58.5t-37 16.5q-21 0 -43 -6.5t-36 -17.5z" />
    <glyph glyph-name="i" unicode="i" horiz-adv-x="360" 
d="M300 744q0 -50 -34.5 -83.5t-84.5 -33.5q-52 0 -86.5 33.5t-34.5 83.5t34.5 83t86.5 33q51 0 85 -33t34 -83zM280 545v-545h-200v545h200z" />
    <glyph glyph-name="j" unicode="j" horiz-adv-x="360" 
d="M300 744q0 -50 -34.5 -83.5t-84.5 -33.5q-52 0 -86.5 33.5t-34.5 83.5t34.5 83t86.5 33q51 0 85 -33t34 -83zM-79 -57q44 -4 74 -0.5t48 15.5q19 14 28 40t9 70v477h200v-471q0 -95 -22 -157t-67 -97q-42 -33 -109.5 -46t-160.5 -5v174z" />
    <glyph glyph-name="k" unicode="k" horiz-adv-x="626" 
d="M280 202v-202h-200v791h200v-439q19 0 31.5 16.5t39.5 69.5q9 17 20.5 40l33.5 67h210l-120 -196q-20 -34 -36 -52.5t-24 -18.5v-3q12 0 28 -14t32 -40l136 -221h-210q-26 45 -39.5 69t-23.5 41q-33 57 -47 74.5t-31 17.5z" />
    <glyph glyph-name="l" unicode="l" horiz-adv-x="360" 
d="M280 791v-791h-200v791h200z" />
    <glyph glyph-name="m" unicode="m" horiz-adv-x="994" 
d="M280 377v-377h-200v545h200v-45l4 -3q38 31 75.5 45t80.5 14t75 -15t52 -45q40 30 85 45t96 15q82 0 124 -46.5t42 -137.5v-372h-200v333q0 38 -9.5 53t-33.5 15q-17 0 -35 -6t-39 -18v-377h-200v333q0 38 -9.5 53t-34.5 15q-19 0 -39 -6.5t-34 -17.5z" />
    <glyph glyph-name="n" unicode="n" horiz-adv-x="686" 
d="M280 377v-377h-200v545h200v-35l4 -3q31 24 68 36.5t79 12.5q86 0 130.5 -48t44.5 -141v-367h-200v326q0 42 -10 58.5t-37 16.5q-21 0 -43 -6.5t-36 -17.5z" />
    <glyph glyph-name="o" unicode="o" horiz-adv-x="639" 
d="M599 272q0 -131 -75 -206.5t-205 -75.5t-204.5 75.5t-74.5 206.5t74.5 207t204.5 76t205 -76t75 -207zM398 272q0 66 -19.5 98.5t-59.5 32.5q-39 0 -58.5 -32.5t-19.5 -98.5t19.5 -98t58.5 -32q40 0 59.5 32t19.5 98z" />
    <glyph glyph-name="p" unicode="p" horiz-adv-x="666" 
d="M280 15v-239h-200v769h200v-40l3 -2q24 26 59 39.5t77 13.5q93 0 150 -76.5t57 -198.5q0 -131 -60.5 -211.5t-162.5 -80.5q-29 0 -60.5 8t-57.5 21zM338 404q-19 0 -34 -7.5t-24 -21.5v-218q10 -7 24.5 -10.5t29.5 -3.5q44 0 68 34.5t24 96.5q0 60 -23 95t-65 35z" />
    <glyph glyph-name="q" unicode="q" horiz-adv-x="666" 
d="M383 43q-20 -25 -55.5 -39.5t-76.5 -14.5q-97 0 -154 75t-57 198q0 135 60 214.5t168 79.5q34 0 68 -9t63 -26l187 34v-779h-200v265zM386 388q-10 7 -24.5 10.5t-29.5 3.5q-44 0 -68 -35.5t-24 -97.5q0 -59 22.5 -93.5t64.5 -34.5q20 0 35 7.5t24 21.5v218z" />
    <glyph glyph-name="r" unicode="r" horiz-adv-x="491" 
d="M280 292v-292h-200v545h200v-65l4 -3q37 43 70.5 61t71.5 18q10 0 21 -1t24 -4v-205q-19 3 -26.5 3.5t-13.5 0.5q-58 0 -93.5 -13.5t-57.5 -44.5z" />
    <glyph glyph-name="s" unicode="s" horiz-adv-x="534" 
d="M484 170q0 -81 -63.5 -131.5t-161.5 -50.5q-54 0 -105.5 8.5t-92.5 24.5v160q38 -21 86 -34.5t88 -13.5q31 0 45 7t14 22q0 12 -12.5 20.5t-56.5 20.5q-52 15 -78 27t-44 29q-24 22 -36 52.5t-12 69.5q0 85 59.5 129.5t173.5 44.5q44 0 85.5 -6t84.5 -19v-155
q-26 15 -73 25.5t-89 10.5q-28 0 -39.5 -6t-11.5 -21q0 -11 12 -19t56 -20q51 -15 77 -27t44 -28q25 -22 37.5 -52t12.5 -68z" />
    <glyph glyph-name="t" unicode="t" horiz-adv-x="500" 
d="M470 13q-33 -12 -69 -17.5t-74 -5.5q-102 0 -160.5 53.5t-58.5 147.5v204h-88v150h88v144h200v-144h152v-150h-152v-140q0 -54 16.5 -73.5t56.5 -19.5q17 0 39.5 3.5t49.5 10.5v-163z" />
    <glyph glyph-name="u" unicode="u" horiz-adv-x="686" 
d="M402 37q-31 -24 -68 -36.5t-79 -12.5q-86 0 -130.5 48t-44.5 141v367h200v-326q0 -42 10 -58.5t37 -16.5q21 0 43 6.5t36 17.5v377h200v-544h-200v34z" />
    <glyph glyph-name="v" unicode="v" horiz-adv-x="593" 
d="M593 545l-207 -545h-180l-206 545h214l61 -246q9 -36 14 -61.5t6 -39.5h3q1 14 6 39.5t14 61.5l60 246h215z" />
    <glyph glyph-name="w" unicode="w" horiz-adv-x="856" 
d="M401 135l-41 -135h-180l-180 545h204l47 -228q7 -30 10.5 -51.5t3.5 -33.5h2q1 12 5.5 33.5t11.5 51.5l55 228h180l53 -228q7 -30 11 -51.5t5 -33.5h2q1 12 5 33.5t10 51.5l49 228h202l-180 -545h-180l-41 135q-12 39 -18 68.5t-7 48.5h-4q0 -19 -6.5 -48.5t-18.5 -68.5z
" />
    <glyph glyph-name="x" unicode="x" horiz-adv-x="619" 
d="M305 141l-75 -141h-220l186 285l-177 260h220l76 -129h3l61 129h220l-178 -275l188 -270h-220l-80 141h-4z" />
    <glyph glyph-name="y" unicode="y" horiz-adv-x="613" 
d="M396 0q-56 -140 -117.5 -187t-176.5 -47q-16 0 -33 0.5t-36 2.5v174q19 -1 28 -1.5t16 -0.5q55 0 90.5 15t48.5 44l-216 545h214l71 -246q10 -32 15 -55t5 -36h3q1 13 6 36t14 55l70 246h215z" />
    <glyph glyph-name="z" unicode="z" horiz-adv-x="554" 
d="M514 162v-162h-464v128l204 251l-2 4h-192v162h443v-128l-206 -252l2 -3h215z" />
    <glyph glyph-name="braceleft" unicode="{" horiz-adv-x="383" 
d="M104 51q15 36 19.5 53.5t4.5 31.5q0 26 -18 49t-50 32v132q32 9 50 32t18 49q0 14 -4.5 31.5t-19.5 53.5q-17 39 -22 58.5t-5 36.5q0 103 77.5 151.5t218.5 33.5v-146q-53 5 -73.5 -8.5t-20.5 -49.5q0 -17 4.5 -36.5t19.5 -57.5q15 -39 19.5 -59t4.5 -38q0 -37 -16.5 -62
t-60.5 -55q44 -30 60.5 -55t16.5 -62q0 -18 -4.5 -38t-19.5 -59q-15 -38 -19.5 -57.5t-4.5 -36.5q0 -36 20.5 -49.5t73.5 -8.5v-146q-141 -15 -218.5 33.5t-77.5 151.5q0 17 5 37t22 58z" />
    <glyph glyph-name="bar" unicode="|" horiz-adv-x="360" 
d="M80 -224v1015h200v-1015h-200z" />
    <glyph glyph-name="braceright" unicode="}" horiz-adv-x="383" 
d="M279 516q-15 -36 -19.5 -53.5t-4.5 -31.5q0 -26 18 -49t50 -32v-132q-32 -9 -50 -32t-18 -49q0 -14 4.5 -31.5t19.5 -53.5q17 -39 22 -58.5t5 -36.5q0 -103 -77.5 -151.5t-218.5 -33.5v146q53 -5 73.5 8.5t20.5 49.5q0 17 -4.5 36.5t-19.5 57.5q-15 39 -19.5 59t-4.5 38
q0 37 16.5 62t60.5 55q-44 30 -60.5 55t-16.5 62q0 18 4.5 38t19.5 59q15 38 19.5 57.5t4.5 36.5q0 36 -20.5 49.5t-73.5 8.5v146q141 15 218.5 -33.5t77.5 -151.5q0 -17 -5 -37t-22 -58z" />
    <glyph glyph-name="asciitilde" unicode="~" horiz-adv-x="791" 
d="M425 356q35 -21 50 -27t27 -6q26 0 37.5 21t11.5 74h147q15 -126 -32 -205t-138 -79q-35 0 -70 11.5t-93 46.5q-34 21 -49 27t-26 6q-27 0 -38 -20.5t-11 -74.5h-147q-14 126 32.5 205t136.5 79q35 0 70 -11.5t92 -46.5z" />
    <glyph glyph-name="exclamdown" unicode="&#xa1;" horiz-adv-x="324" 
d="M40 435q0 50 35 83.5t86 33.5q53 0 88 -33.5t35 -83.5t-35.5 -83t-87.5 -33q-51 0 -86 33t-35 83zM268 65q4 -116 5.5 -176.5t1.5 -112.5h-211q0 47 1 102t5 161q3 97 4 141.5t1 79.5h188q0 -31 1 -70.5t4 -124.5z" />
    <glyph glyph-name="cent" unicode="&#xa2;" horiz-adv-x="510" 
d="M470 138q-19 -10 -39.5 -17.5t-41.5 -11.5v-109h-200v125q-70 31 -109.5 98.5t-39.5 158.5q0 96 39 163.5t110 97.5v120h200v-106q22 -4 41 -12t37 -18v-163q-27 20 -63 31.5t-72 11.5q-46 0 -69.5 -31t-23.5 -91q0 -59 24 -90.5t69 -31.5q38 0 74 11.5t64 31.5v-168z
" />
    <glyph glyph-name="sterling" unicode="&#xa3;" horiz-adv-x="688" 
d="M638 164v-164h-578v164h86q20 32 27.5 68t3.5 78h-103v164h68q-5 25 -8 48.5t-3 41.5q0 92 68.5 150.5t178.5 58.5q79 0 140 -12.5t96 -35.5v-170q-24 22 -76 39.5t-99 17.5q-63 0 -88 -18t-25 -58q0 -6 2.5 -22.5t6.5 -39.5h257v-164h-236q2 -44 -3.5 -80.5t-18.5 -65.5
h304z" />
    <glyph glyph-name="currency" unicode="&#xa4;" horiz-adv-x="691" 
d="M641 90l-113 -113l-97 97q-19 -7 -41 -11t-45 -4t-44.5 3.5t-40.5 11.5l-97 -97l-113 113l97 97q-7 19 -11 40.5t-4 44.5t4 44.5t11 40.5l-97 97l114 113l96 -96q19 7 40.5 10.5t44.5 3.5t44.5 -4t40.5 -11l97 97l114 -113l-98 -98q7 -19 11 -40t4 -44t-4 -44t-11 -40z
M406 272q0 28 -16.5 44.5t-44.5 16.5t-44.5 -16.5t-16.5 -44.5t16.5 -44.5t44.5 -16.5t44.5 16.5t16.5 44.5z" />
    <glyph glyph-name="yen" unicode="&#xa5;" horiz-adv-x="744" 
d="M646 115h-165v-115h-216v115h-163v101h163v65l-2 4h-161v101h105l-207 377h243l96 -208q8 -18 14.5 -36t16.5 -53h6q8 29 15 49t16 40l93 208h244l-206 -377h108v-101h-163l-2 -4v-65h165v-101z" />
    <glyph glyph-name="brokenbar" unicode="&#xa6;" horiz-adv-x="360" 
d="M80 390v401h200v-401h-200zM80 -224v405h200v-405h-200z" />
    <glyph glyph-name="section" unicode="&#xa7;" horiz-adv-x="724" 
d="M634 9q0 -120 -81 -182t-238 -62q-63 0 -117 9t-108 28v186q49 -28 108 -43t120 -15q48 0 72 15t24 45q0 20 -22 36t-100 43q-69 24 -103.5 40.5t-59.5 35.5q-40 30 -59.5 68.5t-19.5 86.5q0 42 17.5 77.5t53.5 65.5q-16 22 -23.5 47.5t-7.5 54.5q0 108 79 168t221 60
q58 0 114 -11.5t97 -32.5v-196q-39 33 -97 52.5t-117 19.5q-42 0 -62 -11.5t-20 -35.5q0 -22 24 -39.5t107 -47.5q68 -24 100.5 -40t56.5 -32q41 -29 61 -65t20 -80q0 -42 -17 -78t-56 -72q17 -21 25 -44.5t8 -50.5zM390 218q17 -6 32 -11t28 -10q7 9 10.5 21t3.5 27
q0 19 -22.5 35t-102.5 42q-21 7 -38 13t-32 11q-7 -6 -10.5 -17t-3.5 -26q0 -21 24.5 -38.5t110.5 -46.5z" />
    <glyph glyph-name="dieresis" unicode="&#xa8;" horiz-adv-x="524" 
d="M137 874q43 0 72 -28.5t29 -71.5q0 -42 -29 -70.5t-72 -28.5q-44 0 -73 28.5t-29 70.5q0 43 29 71.5t73 28.5zM387 873q43 0 72.5 -28.5t29.5 -70.5t-29.5 -70.5t-72.5 -28.5q-44 0 -73 28.5t-29 70.5t29 70.5t73 28.5z" />
    <glyph glyph-name="copyright" unicode="&#xa9;" horiz-adv-x="838" 
d="M419 773q165 0 272 -111t107 -281t-107 -280.5t-272 -110.5t-272 110.5t-107 280.5t107 281t272 111zM419 676q-123 0 -203 -83.5t-80 -211.5t80 -211.5t203 -83.5t203 83.5t80 211.5t-80 211.5t-203 83.5zM547 188q-32 -13 -63 -19t-62 -6q-95 0 -151 61t-56 160t54 155
t153 56q37 0 66 -6t57 -19v-133q-19 10 -42 15.5t-50 5.5q-38 0 -57.5 -19t-19.5 -55q0 -40 19 -59.5t58 -19.5q28 0 51 5.5t43 16.5v-139z" />
    <glyph glyph-name="ordfeminine" unicode="&#xaa;" horiz-adv-x="480" 
d="M278 480q-25 -24 -47.5 -33t-51.5 -9q-52 0 -82 30t-30 80q0 55 42 82t128 27h27q1 2 1 4v7q0 17 -15 24.5t-47 7.5q-27 0 -50.5 -4t-52.5 -15v106q28 8 59.5 11.5t66.5 3.5q98 0 139 -39t41 -127v-191h-111l-14 34zM252 583q-26 0 -38 -6.5t-12 -22.5q0 -12 7.5 -19
t21.5 -7q15 0 28 6t18 15v34h-25zM420 392v-118h-360v118h360z" />
    <glyph glyph-name="guillemotleft" unicode="&#xab;" horiz-adv-x="768" 
d="M384 129l-99 -129l-255 204v137l255 204l99 -129l-168 -143zM738 129l-99 -129l-255 204v137l255 204l99 -129l-168 -143z" />
    <glyph glyph-name="logicalnot" unicode="&#xac;" horiz-adv-x="742" 
d="M90 352h562v-352h-170v192h-392v160z" />
    <glyph glyph-name="hyphensoft" unicode="&#xad;" horiz-adv-x="480" 
d="M440 353v-160h-400v160h400z" />
    <glyph glyph-name="registered" unicode="&#xae;" horiz-adv-x="721" 
d="M360 826q140 0 230.5 -93t90.5 -237q0 -143 -90.5 -236t-230.5 -93q-139 0 -229.5 93t-90.5 236q0 144 90.5 237t229.5 93zM360 733q-98 0 -162.5 -67t-64.5 -170q0 -102 64.5 -169t162.5 -67q99 0 163.5 67t64.5 169q0 103 -64.5 170t-163.5 67zM346 442v-93h-105v304
h122q65 0 98.5 -25.5t33.5 -74.5q0 -26 -10 -48t-28 -35l54 -121h-117l-32 93h-16zM363 574h-17v-52h12q16 0 23.5 6.5t7.5 20.5q0 12 -7 18.5t-19 6.5z" />
    <glyph glyph-name="macron" unicode="&#xaf;" horiz-adv-x="422" 
d="M412 840v-132h-402v132h402z" />
    <glyph glyph-name="degree" unicode="&#xb0;" horiz-adv-x="482" 
d="M50 583q0 85 53 138t138 53q84 0 137.5 -53.5t53.5 -137.5t-53.5 -137.5t-137.5 -53.5q-85 0 -138 53t-53 138zM330 583q0 41 -24.5 66t-64.5 25t-64.5 -25t-24.5 -66q0 -40 24.5 -65t64.5 -25t64.5 25t24.5 65z" />
    <glyph glyph-name="plusminus" unicode="&#xb1;" horiz-adv-x="742" 
d="M652 160v-160h-562v160h196v88h-196v160h196v136h170v-136h196v-160h-196v-88h196z" />
    <glyph glyph-name="twosuperior" unicode="&#xb2;" horiz-adv-x="474" 
d="M423 395v-122h-379v121q107 90 149.5 136.5t42.5 78.5q0 19 -15.5 28.5t-46.5 9.5q-33 0 -62 -7t-60 -23v128q34 13 80.5 19.5t98.5 6.5q83 0 133.5 -39.5t50.5 -109.5q0 -48 -34 -97t-118 -127l2 -3h158z" />
    <glyph glyph-name="threesuperior" unicode="&#xb3;" horiz-adv-x="475" 
d="M438 415q0 -73 -61 -110.5t-179 -37.5q-43 0 -79.5 4t-67.5 12v130q48 -12 87 -18t70 -6q27 0 38.5 8.5t11.5 28.5q0 17 -14.5 24.5t-49.5 7.5h-71v121h71q29 0 42.5 8.5t13.5 27.5q0 17 -13 25.5t-40 8.5q-16 0 -34.5 -4t-39.5 -12q-19 -7 -35.5 -15.5t-31.5 -17.5v139
q35 15 83.5 23.5t96.5 8.5q94 0 143 -35.5t49 -101.5q0 -40 -21 -71t-54 -41v-4q37 -5 61 -34t24 -69z" />
    <glyph glyph-name="acute" unicode="&#xb4;" horiz-adv-x="440" 
d="M383 803l-224 -188l-94 92l172 217z" />
    <glyph glyph-name="mu.math" unicode="&#xb5;" horiz-adv-x="686" 
d="M80 545h200v-326q0 -42 10 -58.5t37 -16.5q21 0 43 6.5t36 17.5v377h200v-544h-200v34l-4 3q-26 -20 -57 -32.5t-65 -15.5v-214h-200v769z" />
    <glyph glyph-name="paragraph" unicode="&#xb6;" horiz-adv-x="854" 
d="M40 518q0 109 68.5 177t175.5 68h200v-841h-200v351q-107 0 -175.5 68t-68.5 177zM574 763h200v-841h-200v841z" />
    <glyph glyph-name="periodcentered" unicode="&#xb7;" horiz-adv-x="324" 
d="M284 309q0 -50 -35 -83.5t-86 -33.5q-53 0 -88 33.5t-35 83.5t35.5 83t87.5 33q51 0 86 -33t35 -83z" />
    <glyph glyph-name="cedilla" unicode="&#xb8;" horiz-adv-x="320" 
d="M300 -107q0 -57 -43.5 -93t-109.5 -36q-34 0 -66.5 5.5t-59.5 15.5v124q20 -9 34.5 -13t28.5 -4q21 0 32.5 12t11.5 33q0 19 -9.5 36t-36.5 40l116 23q39 -25 51 -35.5t21 -21.5q15 -19 22.5 -40t7.5 -46z" />
    <glyph glyph-name="onesuperior" unicode="&#xb9;" horiz-adv-x="428" 
d="M401 395v-122h-362v122h90v197h-85v109q17 0 31.5 3.5t24.5 10.5q15 9 22 21t7 27h181v-368h91z" />
    <glyph glyph-name="ordmasculine" unicode="&#xba;" horiz-adv-x="505" 
d="M445 617q0 -84 -51.5 -132.5t-141.5 -48.5t-141 48.5t-51 132.5t51 133t141 49t141.5 -49t51.5 -133zM302 617q0 42 -12.5 62.5t-37.5 20.5t-37 -20t-12 -63t12 -63t37 -20t37.5 20.5t12.5 62.5zM432 392v-118h-360v118h360z" />
    <glyph glyph-name="guillemotright" unicode="&#xbb;" horiz-adv-x="763" 
d="M379 416l99 129l255 -204v-137l-255 -204l-99 129l168 143zM25 416l99 129l255 -204v-137l-255 -204l-99 129l168 143z" />
    <glyph glyph-name="onequarter" unicode="&#xbc;" horiz-adv-x="1233" 
d="M432 395v-122h-362v122h90v197h-85v109q17 0 31.5 3.5t24.5 10.5q15 9 22 21t7 27h181v-368h91zM863 763l-314 -763h-182l314 763h182zM934 0v100h-237v114l192 276h225v-273h49v-117h-49v-100h-180zM867 219l-1 -2h68v62v33t2 49h-2q-4 -15 -11 -31.5t-25 -50.5z" />
    <glyph glyph-name="onehalf" unicode="&#xbd;" horiz-adv-x="1236" 
d="M432 395v-122h-362v122h90v197h-85v109q17 0 31.5 3.5t24.5 10.5q15 9 22 21t7 27h181v-368h91zM863 763l-314 -763h-182l314 763h182zM1166 122v-122h-379v121q107 90 149.5 136.5t42.5 78.5q0 19 -15.5 28.5t-46.5 9.5q-33 0 -62 -7t-60 -23v128q34 13 80.5 19.5
t98.5 6.5q83 0 133.5 -39.5t50.5 -109.5q0 -48 -34 -97t-118 -127l2 -3h158z" />
    <glyph glyph-name="threequarters" unicode="&#xbe;" horiz-adv-x="1229" 
d="M457 415q0 -73 -61 -110.5t-179 -37.5q-43 0 -79.5 4t-67.5 12v130q48 -12 87 -18t70 -6q27 0 38.5 8.5t11.5 28.5q0 17 -14.5 24.5t-49.5 7.5h-71v121h71q29 0 42.5 8.5t13.5 27.5q0 17 -13 25.5t-40 8.5q-16 0 -34.5 -4t-39.5 -12q-19 -7 -35.5 -15.5t-31.5 -17.5v139
q35 15 83.5 23.5t96.5 8.5q94 0 143 -35.5t49 -101.5q0 -40 -21 -71t-54 -41v-4q37 -5 61 -34t24 -69zM859 763l-314 -763h-182l314 763h182zM930 0v100h-237v114l192 276h225v-273h49v-117h-49v-100h-180zM863 219l-1 -2h68v62v33t2 49h-2q-4 -15 -11 -31.5t-25 -50.5z" />
    <glyph glyph-name="questiondown" unicode="&#xbf;" horiz-adv-x="537" 
d="M180 437q0 50 35 83.5t86 33.5q53 0 88 -33.5t35 -83.5t-35.5 -83t-87.5 -33q-51 0 -86 33t-35 83zM40 -50q0 35 17 68.5t73 89.5q54 55 71 87.5t17 66.5h183q1 -46 -20.5 -90t-86.5 -108q-35 -36 -45 -51t-10 -28q0 -28 21 -41t64 -13t85.5 13.5t87.5 41.5v-173
q-42 -21 -98.5 -34t-107.5 -13q-124 0 -187.5 46.5t-63.5 137.5z" />
    <glyph glyph-name="Agrave" unicode="&#xc0;" horiz-adv-x="774" 
d="M410 799l-297 139l103 152l261 -170zM288 140l-43 -140h-225l254 763h226l254 -763h-225l-43 140h-198zM384 555q-4 -27 -12 -67.5t-17 -72.5l-31 -111h126l-30 111q-9 33 -17.5 73.5t-11.5 66.5h-7z" />
    <glyph glyph-name="Aacute" unicode="&#xc1;" horiz-adv-x="774" 
d="M655 938l-297 -139l-67 121l261 170zM288 140l-43 -140h-225l254 763h226l254 -763h-225l-43 140h-198zM384 555q-4 -27 -12 -67.5t-17 -72.5l-31 -111h126l-30 111q-9 33 -17.5 73.5t-11.5 66.5h-7z" />
    <glyph glyph-name="Acircumflex" unicode="&#xc2;" horiz-adv-x="774" 
d="M388 919l-156 -105l-80 90l167 162h135l169 -162l-82 -90zM288 140l-43 -140h-225l254 763h226l254 -763h-225l-43 140h-198zM384 555q-4 -27 -12 -67.5t-17 -72.5l-31 -111h126l-30 111q-9 33 -17.5 73.5t-11.5 66.5h-7z" />
    <glyph glyph-name="Atilde" unicode="&#xc3;" horiz-adv-x="774" 
d="M615 1041q10 -102 -28.5 -155.5t-119.5 -53.5q-18 0 -37 6t-52 25q-25 15 -36.5 19t-20.5 4q-20 0 -27.5 -13.5t-4.5 -42.5h-129q-10 102 28.5 155.5t119.5 53.5q19 0 39 -6t52 -25q24 -13 35 -17t20 -4q20 0 27.5 13t4.5 41h129zM288 140l-43 -140h-225l254 763h226
l254 -763h-225l-43 140h-198zM384 555q-4 -27 -12 -67.5t-17 -72.5l-31 -111h126l-30 111q-9 33 -17.5 73.5t-11.5 66.5h-7z" />
    <glyph glyph-name="Adieresis" unicode="&#xc4;" horiz-adv-x="774" 
d="M350 944q0 -42 -29 -70.5t-72 -28.5q-44 0 -73 28.5t-29 70.5q0 43 29 71.5t73 28.5q43 0 72 -28.5t29 -71.5zM628 944q0 -42 -29.5 -70.5t-72.5 -28.5q-44 0 -73 28.5t-29 70.5t29 70.5t73 28.5q43 0 72.5 -28.5t29.5 -70.5zM288 140l-43 -140h-225l254 763h226
l254 -763h-225l-43 140h-198zM384 555q-4 -27 -12 -67.5t-17 -72.5l-31 -111h126l-30 111q-9 33 -17.5 73.5t-11.5 66.5h-7z" />
    <glyph glyph-name="Aring" unicode="&#xc5;" horiz-adv-x="774" 
d="M387 1079q88 0 143.5 -39.5t55.5 -99.5t-55.5 -99.5t-143.5 -39.5t-143.5 39.5t-55.5 99.5t55.5 99.5t143.5 39.5zM387 989q-36 0 -57.5 -13t-21.5 -36t21.5 -36t57.5 -13t57.5 13t21.5 36t-21.5 36t-57.5 13zM288 140l-43 -140h-225l254 763h226l254 -763h-225l-43 140
h-198zM384 555q-4 -27 -12 -67.5t-17 -72.5l-31 -111h126l-30 111q-9 33 -17.5 73.5t-11.5 66.5h-7z" />
    <glyph glyph-name="AE" unicode="&#xc6;" horiz-adv-x="1015" 
d="M20 0l299 763h624v-164h-274v-130h254v-164h-254v-141h286v-164h-504v140h-160l-46 -140h-225zM444 609l-100 -305h107v305h-7z" />
    <glyph glyph-name="Ccedilla" unicode="&#xc7;" horiz-adv-x="668" 
d="M521 -107q0 -57 -43.5 -93t-109.5 -36q-34 0 -66.5 5.5t-59.5 15.5v124q20 -9 34.5 -13t28.5 -4q21 0 32.5 12t11.5 33q0 15 -6 29t-21 30q-127 22 -199.5 125t-72.5 260q0 180 96.5 286t266.5 106q60 0 111.5 -11.5t98.5 -34.5v-197q-44 31 -88.5 45t-100.5 14
q-85 0 -125.5 -51t-40.5 -156q0 -103 40 -155t120 -52q51 0 104 17t96 47v-192q-32 -19 -71 -31.5t-82 -19.5q5 -4 8.5 -8t7.5 -9q15 -19 22.5 -40t7.5 -46z" />
    <glyph glyph-name="Egrave" unicode="&#xc8;" horiz-adv-x="644" 
d="M391 799l-297 139l103 152l261 -170zM584 164v-164h-504v763h492v-164h-274v-130h254v-164h-254v-141h286z" />
    <glyph glyph-name="Eacute" unicode="&#xc9;" horiz-adv-x="644" 
d="M552 938l-297 -139l-67 121l261 170zM584 164v-164h-504v763h492v-164h-274v-130h254v-164h-254v-141h286z" />
    <glyph glyph-name="Ecircumflex" unicode="&#xca;" horiz-adv-x="644" 
d="M333 919l-156 -105l-80 90l167 162h135l169 -162l-82 -90zM584 164v-164h-504v763h492v-164h-274v-130h254v-164h-254v-141h286z" />
    <glyph glyph-name="Edieresis" unicode="&#xcb;" horiz-adv-x="644" 
d="M295 944q0 -42 -29 -70.5t-72 -28.5q-44 0 -73 28.5t-29 70.5q0 43 29 71.5t73 28.5q43 0 72 -28.5t29 -71.5zM573 944q0 -42 -29.5 -70.5t-72.5 -28.5q-44 0 -73 28.5t-29 70.5t29 70.5t73 28.5q43 0 72.5 -28.5t29.5 -70.5zM584 164v-164h-504v763h492v-164h-274v-130
h254v-164h-254v-141h286z" />
    <glyph glyph-name="Igrave" unicode="&#xcc;" horiz-adv-x="563" 
d="M285 799l-297 139l103 152l261 -170zM503 164v-164h-443v164h113v435h-113v164h443v-164h-112v-435h112z" />
    <glyph glyph-name="Iacute" unicode="&#xcd;" horiz-adv-x="563" 
d="M530 938l-297 -139l-67 121l261 170zM503 164v-164h-443v164h113v435h-113v164h443v-164h-112v-435h112z" />
    <glyph glyph-name="Icircumflex" unicode="&#xce;" horiz-adv-x="563" 
d="M282 919l-156 -105l-80 90l167 162h135l169 -162l-82 -90zM503 164v-164h-443v164h113v435h-113v164h443v-164h-112v-435h112z" />
    <glyph glyph-name="Idieresis" unicode="&#xcf;" horiz-adv-x="563" 
d="M244 944q0 -42 -29 -70.5t-72 -28.5q-44 0 -73 28.5t-29 70.5q0 43 29 71.5t73 28.5q43 0 72 -28.5t29 -71.5zM522 944q0 -42 -29.5 -70.5t-72.5 -28.5q-44 0 -73 28.5t-29 70.5t29 70.5t73 28.5q43 0 72.5 -28.5t29.5 -70.5zM503 164v-164h-443v164h113v435h-113v164
h443v-164h-112v-435h112z" />
    <glyph glyph-name="Eth" unicode="&#xd0;" horiz-adv-x="775" 
d="M735 381q0 -176 -103 -278.5t-286 -102.5h-266v313h-60v160h60v290h263q188 0 290 -100.5t102 -281.5zM298 174h48q83 0 127 54t44 154q0 101 -46.5 154t-136.5 53h-36v-116h122v-160h-122v-139z" />
    <glyph glyph-name="Ntilde" unicode="&#xd1;" horiz-adv-x="812" 
d="M634 1041q10 -102 -28.5 -155.5t-119.5 -53.5q-18 0 -37 6t-52 25q-25 15 -36.5 19t-20.5 4q-20 0 -27.5 -13.5t-4.5 -42.5h-129q-10 102 28.5 155.5t119.5 53.5q19 0 39 -6t52 -25q24 -13 35 -17t20 -4q20 0 27.5 13t4.5 41h129zM288 295v-295h-208v763h200l179 -291
q20 -31 36.5 -62t29.5 -61l4 1q-2 31 -3.5 61t-1.5 60v292h208v-763h-200l-179 294q-19 32 -36 63t-31 60l-4 -1q3 -30 4.5 -60.5t1.5 -60.5z" />
    <glyph glyph-name="Ograve" unicode="&#xd2;" horiz-adv-x="828" 
d="M463 799l-297 139l103 152l261 -170zM788 381q0 -179 -100.5 -285t-274.5 -106t-273.5 105.5t-99.5 285.5t100 286t273 106q174 0 274.5 -106.5t100.5 -285.5zM570 381q0 104 -41 161t-116 57t-115 -56.5t-40 -161.5t40 -161t115 -56q76 0 116.5 56.5t40.5 160.5z" />
    <glyph glyph-name="Oacute" unicode="&#xd3;" horiz-adv-x="828" 
d="M676 938l-297 -139l-67 121l261 170zM788 381q0 -179 -100.5 -285t-274.5 -106t-273.5 105.5t-99.5 285.5t100 286t273 106q174 0 274.5 -106.5t100.5 -285.5zM570 381q0 104 -41 161t-116 57t-115 -56.5t-40 -161.5t40 -161t115 -56q76 0 116.5 56.5t40.5 160.5z" />
    <glyph glyph-name="Ocircumflex" unicode="&#xd4;" horiz-adv-x="828" 
d="M415 919l-156 -105l-80 90l167 162h135l169 -162l-82 -90zM788 381q0 -179 -100.5 -285t-274.5 -106t-273.5 105.5t-99.5 285.5t100 286t273 106q174 0 274.5 -106.5t100.5 -285.5zM570 381q0 104 -41 161t-116 57t-115 -56.5t-40 -161.5t40 -161t115 -56
q76 0 116.5 56.5t40.5 160.5z" />
    <glyph glyph-name="Otilde" unicode="&#xd5;" horiz-adv-x="828" 
d="M642 1042q10 -102 -28.5 -155.5t-119.5 -53.5q-18 0 -37 6t-52 25q-25 15 -36.5 19t-20.5 4q-20 0 -27.5 -13.5t-4.5 -42.5h-129q-10 102 28.5 155.5t119.5 53.5q19 0 39 -6t52 -25q24 -13 35 -17t20 -4q20 0 27.5 13t4.5 41h129zM788 381q0 -179 -100.5 -285
t-274.5 -106t-273.5 105.5t-99.5 285.5t100 286t273 106q174 0 274.5 -106.5t100.5 -285.5zM570 381q0 104 -41 161t-116 57t-115 -56.5t-40 -161.5t40 -161t115 -56q76 0 116.5 56.5t40.5 160.5z" />
    <glyph glyph-name="Odieresis" unicode="&#xd6;" horiz-adv-x="828" 
d="M377 944q0 -42 -29 -70.5t-72 -28.5q-44 0 -73 28.5t-29 70.5q0 43 29 71.5t73 28.5q43 0 72 -28.5t29 -71.5zM655 944q0 -42 -29.5 -70.5t-72.5 -28.5q-44 0 -73 28.5t-29 70.5t29 70.5t73 28.5q43 0 72.5 -28.5t29.5 -70.5zM788 381q0 -179 -100.5 -285t-274.5 -106
t-273.5 105.5t-99.5 285.5t100 286t273 106q174 0 274.5 -106.5t100.5 -285.5zM570 381q0 104 -41 161t-116 57t-115 -56.5t-40 -161.5t40 -161t115 -56q76 0 116.5 56.5t40.5 160.5z" />
    <glyph glyph-name="multiply" unicode="&#xd7;" horiz-adv-x="731" 
d="M641 110l-113 -113l-162 162l-163 -162l-113 113l162 162l-162 162l114 113l162 -161l161 161l114 -113l-162 -162z" />
    <glyph glyph-name="Oslash" unicode="&#xd8;" horiz-adv-x="828" 
d="M413 -10q-62 0 -115.5 14t-95.5 40l-53 -64l-78 60l56 68q-42 50 -64.5 119.5t-22.5 153.5q0 180 100 286t273 106q62 0 116 -14.5t97 -40.5l53 65l78 -60l-57 -70q43 -50 65.5 -119t22.5 -153q0 -179 -100.5 -285t-274.5 -106zM258 381q0 -28 3 -53t8 -45l235 286
q-18 15 -41 22.5t-50 7.5q-75 0 -115 -56.5t-40 -161.5zM570 381q0 28 -3 53t-9 46l-235 -287q18 -14 40.5 -21.5t49.5 -7.5q76 0 116.5 56.5t40.5 160.5z" />
    <glyph glyph-name="Ugrave" unicode="&#xd9;" horiz-adv-x="812" 
d="M429 799l-297 139l103 152l261 -170zM732 382q0 -223 -73.5 -307.5t-252.5 -84.5t-252.5 86t-73.5 306v381h218v-396q0 -56 3 -82t9 -44q11 -33 35 -49t62 -16q37 0 60.5 16t34.5 49q7 19 9.5 44.5t2.5 81.5v396h218v-381z" />
    <glyph glyph-name="Uacute" unicode="&#xda;" horiz-adv-x="812" 
d="M697 938l-297 -139l-67 121l261 170zM732 382q0 -223 -73.5 -307.5t-252.5 -84.5t-252.5 86t-73.5 306v381h218v-396q0 -56 3 -82t9 -44q11 -33 35 -49t62 -16q37 0 60.5 16t34.5 49q7 19 9.5 44.5t2.5 81.5v396h218v-381z" />
    <glyph glyph-name="Ucircumflex" unicode="&#xdb;" horiz-adv-x="812" 
d="M407 919l-156 -105l-80 90l167 162h135l169 -162l-82 -90zM732 382q0 -223 -73.5 -307.5t-252.5 -84.5t-252.5 86t-73.5 306v381h218v-396q0 -56 3 -82t9 -44q11 -33 35 -49t62 -16q37 0 60.5 16t34.5 49q7 19 9.5 44.5t2.5 81.5v396h218v-381z" />
    <glyph glyph-name="Udieresis" unicode="&#xdc;" horiz-adv-x="812" 
d="M369 944q0 -42 -29 -70.5t-72 -28.5q-44 0 -73 28.5t-29 70.5q0 43 29 71.5t73 28.5q43 0 72 -28.5t29 -71.5zM647 944q0 -42 -29.5 -70.5t-72.5 -28.5q-44 0 -73 28.5t-29 70.5t29 70.5t73 28.5q43 0 72.5 -28.5t29.5 -70.5zM732 382q0 -223 -73.5 -307.5t-252.5 -84.5
t-252.5 86t-73.5 306v381h218v-396q0 -56 3 -82t9 -44q11 -33 35 -49t62 -16q37 0 60.5 16t34.5 49q7 19 9.5 44.5t2.5 81.5v396h218v-381z" />
    <glyph glyph-name="Yacute" unicode="&#xdd;" horiz-adv-x="724" 
d="M644 938l-297 -139l-67 121l261 170zM471 281v-281h-216v281l-265 482h243l96 -208q8 -18 14.5 -36t16.5 -53h6q8 29 15 49t16 40l93 208h244z" />
    <glyph glyph-name="Thorn" unicode="&#xde;" horiz-adv-x="695" 
d="M351 654q152 0 233 -67t81 -196q0 -133 -85.5 -205t-239.5 -72h-43v-114h-217v763h217v-109h54zM351 484h-54v-200h43q52 0 80 26.5t28 76.5q0 48 -25 72.5t-72 24.5z" />
    <glyph glyph-name="germandbls" unicode="&#xdf;" horiz-adv-x="864" 
d="M112 0v395h-82v150h83q9 119 94.5 187.5t231.5 68.5q130 0 210 -57.5t80 -141.5q0 -49 -21 -85.5t-82 -76.5q-33 -21 -42 -32.5t-9 -23.5q0 -11 12 -19t56 -20q51 -15 77 -27t44 -28q25 -22 37.5 -52t12.5 -68q0 -81 -63.5 -131.5t-161.5 -50.5q-54 0 -105.5 8.5
t-92.5 24.5v160q38 -21 86 -34.5t88 -13.5q31 0 45 7t14 22q0 12 -12.5 20.5t-56.5 20.5q-52 15 -78 27t-44 29q-24 22 -36 52.5t-12 69.5q0 42 18.5 73.5t73.5 67.5q33 22 42.5 34t9.5 25q0 25 -26.5 40.5t-67.5 15.5q-67 0 -95 -36t-28 -125v-476h-200z" />
    <glyph glyph-name="agrave" unicode="&#xe0;" horiz-adv-x="611" 
d="M234 924l172 -217l-94 -92l-224 188zM362 53q-36 -36 -69.5 -50t-77.5 -14q-77 0 -121 46.5t-44 124.5q0 86 63.5 128t193.5 42h35q1 3 1 6.5v15.5q0 27 -22.5 39.5t-69.5 12.5q-39 0 -73 -6.5t-80 -23.5v157q41 12 87 18t97 6q140 0 199.5 -60t59.5 -196v-299h-155
l-20 52zM320 228q-41 0 -59.5 -13t-18.5 -45q0 -24 12 -37t33 -13q22 0 43.5 10.5t29.5 24.5v73h-40z" />
    <glyph glyph-name="aacute" unicode="&#xe1;" horiz-adv-x="611" 
d="M535 803l-224 -188l-94 92l172 217zM362 53q-36 -36 -69.5 -50t-77.5 -14q-77 0 -121 46.5t-44 124.5q0 86 63.5 128t193.5 42h35q1 3 1 6.5v15.5q0 27 -22.5 39.5t-69.5 12.5q-39 0 -73 -6.5t-80 -23.5v157q41 12 87 18t97 6q140 0 199.5 -60t59.5 -196v-299h-155
l-20 52zM320 228q-41 0 -59.5 -13t-18.5 -45q0 -24 12 -37t33 -13q22 0 43.5 10.5t29.5 24.5v73h-40z" />
    <glyph glyph-name="acircumflex" unicode="&#xe2;" horiz-adv-x="611" 
d="M288 733l-124 -125l-92 90l147 192h135l149 -192l-94 -90zM362 53q-36 -36 -69.5 -50t-77.5 -14q-77 0 -121 46.5t-44 124.5q0 86 63.5 128t193.5 42h35q1 3 1 6.5v15.5q0 27 -22.5 39.5t-69.5 12.5q-39 0 -73 -6.5t-80 -23.5v157q41 12 87 18t97 6q140 0 199.5 -60
t59.5 -196v-299h-155l-20 52zM320 228q-41 0 -59.5 -13t-18.5 -45q0 -24 12 -37t33 -13q22 0 43.5 10.5t29.5 24.5v73h-40z" />
    <glyph glyph-name="atilde" unicode="&#xe3;" horiz-adv-x="611" 
d="M531 879q1 -116 -38 -178.5t-108 -57.5q-24 2 -45 12t-51 37q-17 16 -25 21t-15 5q-14 1 -21.5 -17.5t-7.5 -55.5h-127q-1 115 38.5 177t107.5 57q25 -2 47 -12t52 -38q15 -15 22.5 -19.5t14.5 -4.5q14 -1 21.5 18t7.5 56h127zM362 53q-36 -36 -69.5 -50t-77.5 -14
q-77 0 -121 46.5t-44 124.5q0 86 63.5 128t193.5 42h35q1 3 1 6.5v15.5q0 27 -22.5 39.5t-69.5 12.5q-39 0 -73 -6.5t-80 -23.5v157q41 12 87 18t97 6q140 0 199.5 -60t59.5 -196v-299h-155l-20 52zM320 228q-41 0 -59.5 -13t-18.5 -45q0 -24 12 -37t33 -13q22 0 43.5 10.5
t29.5 24.5v73h-40z" />
    <glyph glyph-name="adieresis" unicode="&#xe4;" horiz-adv-x="611" 
d="M172 874q43 0 72 -28.5t29 -71.5q0 -42 -29 -70.5t-72 -28.5q-44 0 -73 28.5t-29 70.5q0 43 29 71.5t73 28.5zM422 873q43 0 72.5 -28.5t29.5 -70.5t-29.5 -70.5t-72.5 -28.5q-44 0 -73 28.5t-29 70.5t29 70.5t73 28.5zM362 53q-36 -36 -69.5 -50t-77.5 -14
q-77 0 -121 46.5t-44 124.5q0 86 63.5 128t193.5 42h35q1 3 1 6.5v15.5q0 27 -22.5 39.5t-69.5 12.5q-39 0 -73 -6.5t-80 -23.5v157q41 12 87 18t97 6q140 0 199.5 -60t59.5 -196v-299h-155l-20 52zM320 228q-41 0 -59.5 -13t-18.5 -45q0 -24 12 -37t33 -13q22 0 43.5 10.5
t29.5 24.5v73h-40z" />
    <glyph glyph-name="aring" unicode="&#xe5;" horiz-adv-x="611" 
d="M297 928q65 0 109.5 -44.5t44.5 -109.5q0 -64 -44.5 -109t-109.5 -45q-64 0 -109 45t-45 109q0 65 45 109.5t109 44.5zM297 823q-22 0 -35.5 -13t-13.5 -36q0 -22 13.5 -35.5t35.5 -13.5t35.5 13.5t13.5 35.5t-13.5 35.5t-35.5 13.5zM362 53q-36 -36 -69.5 -50t-77.5 -14
q-77 0 -121 46.5t-44 124.5q0 86 63.5 128t193.5 42h35q1 3 1 6.5v15.5q0 27 -22.5 39.5t-69.5 12.5q-39 0 -73 -6.5t-80 -23.5v157q41 12 87 18t97 6q140 0 199.5 -60t59.5 -196v-299h-155l-20 52zM320 228q-41 0 -59.5 -13t-18.5 -45q0 -24 12 -37t33 -13q22 0 43.5 10.5
t29.5 24.5v73h-40z" />
    <glyph glyph-name="ae" unicode="&#xe6;" horiz-adv-x="910" 
d="M837 21q-45 -16 -91.5 -24t-96.5 -8q-71 0 -127.5 22t-94.5 63q-33 -39 -85.5 -62t-110.5 -23q-84 0 -132.5 46.5t-48.5 124.5q0 86 63.5 128t193.5 42h35q1 3 1 6.5v10.5q0 27 -22.5 39.5t-69.5 12.5q-39 0 -73 -6.5t-80 -23.5v162q41 12 87 18t97 6q61 0 106 -11
t76 -33q32 22 73.5 33.5t89.5 11.5q111 0 172 -59.5t61 -166.5q0 -28 -4 -56t-11 -51h-301q9 -44 38.5 -63.5t87.5 -19.5q34 0 69 6t98 26v-151zM687 361q0 31 -17.5 48t-49.5 17q-37 0 -57 -20t-23 -59h145q1 2 1.5 6t0.5 8zM242 168q0 -19 12 -29.5t33 -10.5
q25 0 48.5 11.5t35.5 30.5l-6 22t-5 23v1h-40q-41 0 -59.5 -10.5t-18.5 -37.5z" />
    <glyph glyph-name="ccedilla" unicode="&#xe7;" horiz-adv-x="510" 
d="M422 -107q0 -57 -43.5 -93t-109.5 -36q-34 0 -66.5 5.5t-59.5 15.5v124q20 -9 34.5 -13t28.5 -4q21 0 32.5 12t11.5 33q0 17 -8 33t-29 35q-81 27 -127 97.5t-46 169.5q0 131 71.5 207t199.5 76q48 0 86 -9.5t70 -28.5v-163q-27 20 -63 31.5t-72 11.5q-46 0 -69.5 -31
t-23.5 -91q0 -59 24 -90.5t69 -31.5q38 0 74 11.5t64 31.5v-168q-22 -11 -45.5 -19.5t-48.5 -12.5q5 -5 8.5 -9t7.5 -8q15 -19 22.5 -40t7.5 -46z" />
    <glyph glyph-name="egrave" unicode="&#xe8;" horiz-adv-x="585" 
d="M214 924l172 -217l-94 -92l-224 188zM522 21q-45 -16 -91.5 -24t-96.5 -8q-135 0 -214.5 78t-79.5 213q0 125 73.5 200.5t198.5 75.5q111 0 172 -59.5t61 -166.5q0 -28 -4 -56t-11 -51h-301q9 -44 38.5 -63.5t87.5 -19.5q34 0 69 6t98 26v-151zM382 359q0 35 -19.5 54.5
t-54.5 19.5q-39 0 -60.5 -25t-22.5 -73h155q1 2 1.5 6.5t0.5 17.5z" />
    <glyph glyph-name="eacute" unicode="&#xe9;" horiz-adv-x="585" 
d="M518 803l-224 -188l-94 92l172 217zM522 21q-45 -16 -91.5 -24t-96.5 -8q-135 0 -214.5 78t-79.5 213q0 125 73.5 200.5t198.5 75.5q111 0 172 -59.5t61 -166.5q0 -28 -4 -56t-11 -51h-301q9 -44 38.5 -63.5t87.5 -19.5q34 0 69 6t98 26v-151zM382 359q0 35 -19.5 54.5
t-54.5 19.5q-39 0 -60.5 -25t-22.5 -73h155q1 2 1.5 6.5t0.5 17.5z" />
    <glyph glyph-name="ecircumflex" unicode="&#xea;" horiz-adv-x="585" 
d="M293 733l-124 -125l-92 90l147 192h135l149 -192l-94 -90zM522 21q-45 -16 -91.5 -24t-96.5 -8q-135 0 -214.5 78t-79.5 213q0 125 73.5 200.5t198.5 75.5q111 0 172 -59.5t61 -166.5q0 -28 -4 -56t-11 -51h-301q9 -44 38.5 -63.5t87.5 -19.5q34 0 69 6t98 26v-151z
M382 359q0 35 -19.5 54.5t-54.5 19.5q-39 0 -60.5 -25t-22.5 -73h155q1 2 1.5 6.5t0.5 17.5z" />
    <glyph glyph-name="edieresis" unicode="&#xeb;" horiz-adv-x="585" 
d="M167 874q43 0 72 -28.5t29 -71.5q0 -42 -29 -70.5t-72 -28.5q-44 0 -73 28.5t-29 70.5q0 43 29 71.5t73 28.5zM417 873q43 0 72.5 -28.5t29.5 -70.5t-29.5 -70.5t-72.5 -28.5q-44 0 -73 28.5t-29 70.5t29 70.5t73 28.5zM522 21q-45 -16 -91.5 -24t-96.5 -8
q-135 0 -214.5 78t-79.5 213q0 125 73.5 200.5t198.5 75.5q111 0 172 -59.5t61 -166.5q0 -28 -4 -56t-11 -51h-301q9 -44 38.5 -63.5t87.5 -19.5q34 0 69 6t98 26v-151zM382 359q0 35 -19.5 54.5t-54.5 19.5q-39 0 -60.5 -25t-22.5 -73h155q1 2 1.5 6.5t0.5 17.5z" />
    <glyph glyph-name="igrave" unicode="&#xec;" horiz-adv-x="360" 
d="M116 924l172 -217l-94 -92l-224 188zM280 545v-545h-200v545h200z" />
    <glyph glyph-name="iacute" unicode="&#xed;" horiz-adv-x="360" 
d="M391 803l-224 -188l-94 92l172 217zM280 545v-545h-200v545h200z" />
    <glyph glyph-name="icircumflex" unicode="&#xee;" horiz-adv-x="360" 
d="M181 732l-124 -125l-92 90l147 192h135l149 -192l-94 -90zM280 544v-545h-200v545h200z" />
    <glyph glyph-name="idieresis" unicode="&#xef;" horiz-adv-x="360" 
d="M55 874q43 0 72 -28.5t29 -71.5q0 -42 -29 -70.5t-72 -28.5q-44 0 -73 28.5t-29 70.5q0 43 29 71.5t73 28.5zM305 873q43 0 72.5 -28.5t29.5 -70.5t-29.5 -70.5t-72.5 -28.5q-44 0 -73 28.5t-29 70.5t29 70.5t73 28.5zM280 544v-545h-200v545h200z" />
    <glyph glyph-name="eth" unicode="&#xf0;" horiz-adv-x="640" 
d="M600 309q0 -152 -75 -236t-214 -84q-128 0 -199.5 71t-71.5 192q0 113 62.5 183t166.5 70q26 0 48.5 -2.5t42.5 -7.5q-16 26 -37.5 50.5t-46.5 46.5l-85 -74l-81 88l70 54q-22 13 -47 25.5t-51 23.5l128 113q27 -13 52.5 -26.5t49.5 -28.5l81 70l92 -94l-74 -50
q91 -80 140 -178.5t49 -205.5zM240 253q0 -57 19.5 -84t60.5 -27q39 0 58.5 27t19.5 83q0 57 -19.5 84.5t-58.5 27.5q-41 0 -60.5 -27t-19.5 -84z" />
    <glyph glyph-name="ntilde" unicode="&#xf1;" horiz-adv-x="686" 
d="M562 879q1 -116 -38 -178.5t-108 -57.5q-24 2 -45 12t-51 37q-17 16 -25 21t-15 5q-14 1 -21.5 -17.5t-7.5 -55.5h-127q-1 115 38.5 177t107.5 57q25 -2 47 -12t52 -38q15 -15 22.5 -19.5t14.5 -4.5q14 -1 21.5 18t7.5 56h127zM280 377v-377h-200v545h200v-35l4 -3
q31 24 68 36.5t79 12.5q86 0 130.5 -48t44.5 -141v-367h-200v326q0 42 -10 58.5t-37 16.5q-21 0 -43 -6.5t-36 -17.5z" />
    <glyph glyph-name="ograve" unicode="&#xf2;" horiz-adv-x="639" 
d="M239 924l172 -217l-94 -92l-224 188zM599 272q0 -131 -75 -206.5t-205 -75.5t-204.5 75.5t-74.5 206.5t74.5 207t204.5 76t205 -76t75 -207zM398 272q0 66 -19.5 98.5t-59.5 32.5q-39 0 -58.5 -32.5t-19.5 -98.5t19.5 -98t58.5 -32q40 0 59.5 32t19.5 98z" />
    <glyph glyph-name="oacute" unicode="&#xf3;" horiz-adv-x="639" 
d="M539 803l-224 -188l-94 92l172 217zM599 272q0 -131 -75 -206.5t-205 -75.5t-204.5 75.5t-74.5 206.5t74.5 207t204.5 76t205 -76t75 -207zM398 272q0 66 -19.5 98.5t-59.5 32.5q-39 0 -58.5 -32.5t-19.5 -98.5t19.5 -98t58.5 -32q40 0 59.5 32t19.5 98z" />
    <glyph glyph-name="ocircumflex" unicode="&#xf4;" horiz-adv-x="639" 
d="M320 733l-124 -125l-92 90l147 192h135l149 -192l-94 -90zM599 272q0 -131 -75 -206.5t-205 -75.5t-204.5 75.5t-74.5 206.5t74.5 207t204.5 76t205 -76t75 -207zM398 272q0 66 -19.5 98.5t-59.5 32.5q-39 0 -58.5 -32.5t-19.5 -98.5t19.5 -98t58.5 -32q40 0 59.5 32
t19.5 98z" />
    <glyph glyph-name="otilde" unicode="&#xf5;" horiz-adv-x="639" 
d="M538 879q1 -116 -38 -178.5t-108 -57.5q-24 2 -45 12t-51 37q-17 16 -25 21t-15 5q-14 1 -21.5 -17.5t-7.5 -55.5h-127q-1 115 38.5 177t107.5 57q25 -2 47 -12t52 -38q15 -15 22.5 -19.5t14.5 -4.5q14 -1 21.5 18t7.5 56h127zM599 272q0 -131 -75 -206.5t-205 -75.5
t-204.5 75.5t-74.5 206.5t74.5 207t204.5 76t205 -76t75 -207zM398 272q0 66 -19.5 98.5t-59.5 32.5q-39 0 -58.5 -32.5t-19.5 -98.5t19.5 -98t58.5 -32q40 0 59.5 32t19.5 98z" />
    <glyph glyph-name="odieresis" unicode="&#xf6;" horiz-adv-x="639" 
d="M194 874q43 0 72 -28.5t29 -71.5q0 -42 -29 -70.5t-72 -28.5q-44 0 -73 28.5t-29 70.5q0 43 29 71.5t73 28.5zM444 873q43 0 72.5 -28.5t29.5 -70.5t-29.5 -70.5t-72.5 -28.5q-44 0 -73 28.5t-29 70.5t29 70.5t73 28.5zM599 272q0 -131 -75 -206.5t-205 -75.5
t-204.5 75.5t-74.5 206.5t74.5 207t204.5 76t205 -76t75 -207zM398 272q0 66 -19.5 98.5t-59.5 32.5q-39 0 -58.5 -32.5t-19.5 -98.5t19.5 -98t58.5 -32q40 0 59.5 32t19.5 98z" />
    <glyph glyph-name="divide" unicode="&#xf7;" horiz-adv-x="732" 
d="M471 506q0 -43 -31 -73.5t-74 -30.5t-73.5 30.5t-30.5 73.5t30.5 73.5t73.5 30.5t74 -30.5t31 -73.5zM647 352v-160h-562v160h562zM471 38q0 -43 -31 -73.5t-74 -30.5t-73.5 30.5t-30.5 73.5t30.5 73.5t73.5 30.5t74 -30.5t31 -73.5z" />
    <glyph glyph-name="oslash" unicode="&#xf8;" horiz-adv-x="639" 
d="M319 -10q-45 0 -84.5 9.5t-70.5 27.5l-40 -47l-60 50l40 47q-31 36 -47.5 85.5t-16.5 109.5q0 131 74.5 207t204.5 76q46 0 85.5 -10t70.5 -28l41 48l60 -50l-40 -48q30 -36 46.5 -85.5t16.5 -109.5q0 -131 -75 -206.5t-205 -75.5zM241 272q0 -8 0.5 -16t0.5 -15l123 146
q-9 8 -20.5 12t-25.5 4q-39 0 -58.5 -32.5t-19.5 -98.5zM398 272q0 8 -0.5 16t-0.5 15l-123 -146q9 -7 20 -11t25 -4q40 0 59.5 32t19.5 98z" />
    <glyph glyph-name="ugrave" unicode="&#xf9;" horiz-adv-x="686" 
d="M270 924l172 -217l-94 -92l-224 188zM402 37q-31 -24 -68 -36.5t-79 -12.5q-86 0 -130.5 48t-44.5 141v367h200v-326q0 -42 10 -58.5t37 -16.5q21 0 43 6.5t36 17.5v377h200v-544h-200v34z" />
    <glyph glyph-name="uacute" unicode="&#xfa;" horiz-adv-x="686" 
d="M564 803l-224 -188l-94 92l172 217zM402 37q-31 -24 -68 -36.5t-79 -12.5q-86 0 -130.5 48t-44.5 141v367h200v-326q0 -42 10 -58.5t37 -16.5q21 0 43 6.5t36 17.5v377h200v-544h-200v34z" />
    <glyph glyph-name="ucircumflex" unicode="&#xfb;" horiz-adv-x="686" 
d="M344 733l-124 -125l-92 90l147 192h135l149 -192l-94 -90zM402 37q-31 -24 -68 -36.5t-79 -12.5q-86 0 -130.5 48t-44.5 141v367h200v-326q0 -42 10 -58.5t37 -16.5q21 0 43 6.5t36 17.5v377h200v-544h-200v34z" />
    <glyph glyph-name="udieresis" unicode="&#xfc;" horiz-adv-x="686" 
d="M218 874q43 0 72 -28.5t29 -71.5q0 -42 -29 -70.5t-72 -28.5q-44 0 -73 28.5t-29 70.5q0 43 29 71.5t73 28.5zM468 873q43 0 72.5 -28.5t29.5 -70.5t-29.5 -70.5t-72.5 -28.5q-44 0 -73 28.5t-29 70.5t29 70.5t73 28.5zM402 37q-31 -24 -68 -36.5t-79 -12.5
q-86 0 -130.5 48t-44.5 141v367h200v-326q0 -42 10 -58.5t37 -16.5q21 0 43 6.5t36 17.5v377h200v-544h-200v34z" />
    <glyph glyph-name="yacute" unicode="&#xfd;" horiz-adv-x="613" 
d="M533 803l-224 -188l-94 92l172 217zM396 0q-56 -140 -117.5 -187t-176.5 -47q-16 0 -33 0.5t-36 2.5v174q19 -1 28 -1.5t16 -0.5q55 0 90.5 15t48.5 44l-216 545h214l71 -246q10 -32 15 -55t5 -36h3q1 13 6 36t14 55l70 246h215z" />
    <glyph glyph-name="thorn" unicode="&#xfe;" horiz-adv-x="666" 
d="M280 15v-239h-200v1015h200v-286l3 -2q24 26 59 39.5t77 13.5q93 0 150 -76.5t57 -198.5q0 -131 -60.5 -211.5t-162.5 -80.5q-29 0 -60.5 8t-57.5 21zM338 404q-19 0 -34 -7.5t-24 -21.5v-218q10 -7 24.5 -10.5t29.5 -3.5q44 0 68 34.5t24 96.5q0 59 -23 94.5t-65 35.5z
" />
    <glyph glyph-name="ydieresis" unicode="&#xff;" horiz-adv-x="613" 
d="M181 874q43 0 72 -28.5t29 -71.5q0 -42 -29 -70.5t-72 -28.5q-44 0 -73 28.5t-29 70.5q0 43 29 71.5t73 28.5zM431 873q43 0 72.5 -28.5t29.5 -70.5t-29.5 -70.5t-72.5 -28.5q-44 0 -73 28.5t-29 70.5t29 70.5t73 28.5zM396 0q-56 -140 -117.5 -187t-176.5 -47
q-16 0 -33 0.5t-36 2.5v174q19 -1 28 -1.5t16 -0.5q55 0 90.5 15t48.5 44l-216 545h214l71 -246q10 -32 15 -55t5 -36h3q1 13 6 36t14 55l70 246h215z" />
    <glyph glyph-name="Amacron" unicode="&#x100;" horiz-adv-x="774" 
d="M608 1010v-132h-442v132h442zM288 140l-43 -140h-225l254 763h226l254 -763h-225l-43 140h-198zM384 555q-4 -27 -12 -67.5t-17 -72.5l-31 -111h126l-30 111q-9 33 -17.5 73.5t-11.5 66.5h-7z" />
    <glyph glyph-name="amacron" unicode="&#x101;" horiz-adv-x="611" 
d="M508 840v-132h-402v132h402zM362 53q-36 -36 -69.5 -50t-77.5 -14q-77 0 -121 46.5t-44 124.5q0 86 63.5 128t193.5 42h35q1 3 1 6.5v15.5q0 27 -22.5 39.5t-69.5 12.5q-39 0 -73 -6.5t-80 -23.5v157q41 12 87 18t97 6q140 0 199.5 -60t59.5 -196v-299h-155l-20 52z
M320 228q-41 0 -59.5 -13t-18.5 -45q0 -24 12 -37t33 -13q22 0 43.5 10.5t29.5 24.5v73h-40z" />
    <glyph glyph-name="Abreve" unicode="&#x102;" horiz-adv-x="774" 
d="M607 1043q0 -99 -58.5 -159.5t-159.5 -60.5q-102 0 -160.5 60.5t-58.5 159.5h122q2 -39 27.5 -61.5t69.5 -22.5t69 22.5t28 61.5h121zM288 140l-43 -140h-225l254 763h226l254 -763h-225l-43 140h-198zM384 555q-4 -27 -12 -67.5t-17 -72.5l-31 -111h126l-30 111
q-9 33 -17.5 73.5t-11.5 66.5h-7z" />
    <glyph glyph-name="abreve" unicode="&#x103;" horiz-adv-x="566" 
d="M506 859q0 -105 -54.5 -169.5t-148.5 -64.5t-148.5 64.5t-54.5 169.5h126q2 -44 22 -70t55 -26t55 26t22 70h126zM362 53q-36 -36 -69.5 -50t-77.5 -14q-77 0 -121 46.5t-44 124.5q0 86 63.5 128t193.5 42h35q1 3 1 6.5v15.5q0 27 -22.5 39.5t-69.5 12.5q-39 0 -73 -6.5
t-80 -23.5v157q41 12 87 18t97 6q140 0 199.5 -60t59.5 -196v-299h-155l-20 52zM320 228q-41 0 -59.5 -13t-18.5 -45q0 -24 12 -37t33 -13q22 0 43.5 10.5t29.5 24.5v73h-40z" />
    <glyph glyph-name="Aogonek" unicode="&#x104;" horiz-adv-x="774" 
d="M754 -215q-27 -10 -59.5 -15.5t-66.5 -5.5q-66 0 -109.5 36t-43.5 93q0 34 14.5 61t43.5 46h-4l-43 140h-198l-43 -140h-225l254 763h226l254 -763q-47 -9 -77 -32t-30 -47q0 -14 10 -21.5t30 -7.5q16 0 32.5 4t34.5 13v-124zM384 555q-4 -27 -12 -67.5t-17 -72.5
l-31 -111h126l-30 111q-9 33 -17.5 73.5t-11.5 66.5h-7z" />
    <glyph glyph-name="aogonek" unicode="&#x105;" horiz-adv-x="566" 
d="M541 -215q-27 -10 -59.5 -15.5t-66.5 -5.5q-66 0 -109.5 36t-43.5 93q0 34 14.5 61t43.5 46q12 8 26 15t29 13l-9 24l-4 1q-36 -36 -69.5 -50t-77.5 -14q-77 0 -121 46.5t-44 124.5q0 86 63.5 128t193.5 42h35q1 3 1 6.5v15.5q0 27 -22.5 39.5t-69.5 12.5q-39 0 -73 -6.5
t-80 -23.5v157q41 12 87 18t97 6q140 0 199.5 -60t59.5 -196v-299q-47 -9 -77 -32t-30 -47q0 -14 10 -21.5t30 -7.5q16 0 32.5 4t34.5 13v-124zM320 228q-41 0 -59.5 -13t-18.5 -45q0 -24 12 -37t33 -13q22 0 43.5 10.5t29.5 24.5v73h-40z" />
    <glyph glyph-name="Cacute" unicode="&#x106;" horiz-adv-x="668" 
d="M638 938l-297 -139l-67 121l261 170zM268 382q0 -103 40 -155t120 -52q51 0 104 17t96 47v-192q-48 -28 -110 -42.5t-129 -14.5q-157 0 -248 107t-91 284q0 180 96.5 286t266.5 106q60 0 111.5 -11.5t98.5 -34.5v-197q-44 31 -88.5 45t-100.5 14q-85 0 -125.5 -51
t-40.5 -156z" />
    <glyph glyph-name="cacute" unicode="&#x107;" horiz-adv-x="510" 
d="M508 803l-224 -188l-94 92l172 217zM470 28q-37 -19 -77 -28.5t-82 -9.5q-123 0 -197 78t-74 204q0 131 71.5 207t199.5 76q48 0 86 -9.5t70 -28.5v-163q-27 20 -63 31.5t-72 11.5q-46 0 -69.5 -31t-23.5 -91q0 -59 24 -90.5t69 -31.5q38 0 74 11.5t64 31.5v-168z" />
    <glyph glyph-name="Ccircumflex" unicode="&#x108;" horiz-adv-x="668" 
d="M406 919l-156 -105l-80 90l167 162h135l169 -162l-82 -90zM268 382q0 -103 40 -155t120 -52q51 0 104 17t96 47v-192q-48 -28 -110 -42.5t-129 -14.5q-157 0 -248 107t-91 284q0 180 96.5 286t266.5 106q60 0 111.5 -11.5t98.5 -34.5v-197q-44 31 -88.5 45t-100.5 14
q-85 0 -125.5 -51t-40.5 -156z" />
    <glyph glyph-name="ccircumflex" unicode="&#x109;" horiz-adv-x="510" 
d="M303 733l-124 -125l-92 90l147 192h135l149 -192l-94 -90zM470 28q-37 -19 -77 -28.5t-82 -9.5q-123 0 -197 78t-74 204q0 131 71.5 207t199.5 76q48 0 86 -9.5t70 -28.5v-163q-27 20 -63 31.5t-72 11.5q-46 0 -69.5 -31t-23.5 -91q0 -59 24 -90.5t69 -31.5q38 0 74 11.5
t64 31.5v-168z" />
    <glyph glyph-name="Cdotaccent" unicode="&#x10a;" horiz-adv-x="668" 
d="M519 942q0 -50 -34.5 -83.5t-84.5 -33.5q-52 0 -86.5 33.5t-34.5 83.5t34.5 83t86.5 33q51 0 85 -33t34 -83zM268 382q0 -103 40 -155t120 -52q51 0 104 17t96 47v-192q-48 -28 -110 -42.5t-129 -14.5q-157 0 -248 107t-91 284q0 180 96.5 286t266.5 106
q60 0 111.5 -11.5t98.5 -34.5v-197q-44 31 -88.5 45t-100.5 14q-85 0 -125.5 -51t-40.5 -156z" />
    <glyph glyph-name="cdotaccent" unicode="&#x10b;" horiz-adv-x="510" 
d="M419 744q0 -50 -34.5 -83.5t-84.5 -33.5q-52 0 -86.5 33.5t-34.5 83.5t34.5 83t86.5 33q51 0 85 -33t34 -83zM470 28q-37 -19 -77 -28.5t-82 -9.5q-123 0 -197 78t-74 204q0 131 71.5 207t199.5 76q48 0 86 -9.5t70 -28.5v-163q-27 20 -63 31.5t-72 11.5q-46 0 -69.5 -31
t-23.5 -91q0 -59 24 -90.5t69 -31.5q38 0 74 11.5t64 31.5v-168z" />
    <glyph glyph-name="Ccaron" unicode="&#x10c;" horiz-adv-x="668" 
d="M400 961l156 105l80 -90l-167 -162h-135l-169 162l82 90zM268 382q0 -103 40 -155t120 -52q51 0 104 17t96 47v-192q-48 -28 -110 -42.5t-129 -14.5q-157 0 -248 107t-91 284q0 180 96.5 286t266.5 106q60 0 111.5 -11.5t98.5 -34.5v-197q-44 31 -88.5 45t-100.5 14
q-85 0 -125.5 -51t-40.5 -156z" />
    <glyph glyph-name="ccaron" unicode="&#x10d;" horiz-adv-x="510" 
d="M284 771l124 125l92 -90l-147 -192h-135l-149 192l94 90zM470 28q-37 -19 -77 -28.5t-82 -9.5q-123 0 -197 78t-74 204q0 131 71.5 207t199.5 76q48 0 86 -9.5t70 -28.5v-163q-27 20 -63 31.5t-72 11.5q-46 0 -69.5 -31t-23.5 -91q0 -59 24 -90.5t69 -31.5q38 0 74 11.5
t64 31.5v-168z" />
    <glyph glyph-name="Dcaron" unicode="&#x10e;" horiz-adv-x="775" 
d="M369 961l156 105l80 -90l-167 -162h-135l-169 162l82 90zM735 381q0 -176 -103 -278.5t-286 -102.5h-266v763h263q188 0 290 -100.5t102 -281.5zM334 589h-36v-415h48q83 0 127 54t44 154q0 101 -46.5 154t-136.5 53z" />
    <glyph glyph-name="dcaron" unicode="&#x10f;" horiz-adv-x="666" 
d="M846 893l-114 -269l-126 39l55 272zM383 43q-22 -26 -57 -40t-79 -14q-93 0 -150 76.5t-57 203.5q0 126 60.5 206.5t160.5 80.5q30 0 61.5 -7.5t58.5 -21.5l5 3v261h200v-791h-200v41zM386 388q-10 7 -24.5 10.5t-29.5 3.5q-44 0 -68 -34.5t-24 -96.5q0 -60 23 -95
t65 -35q19 0 34 7.5t24 21.5v218z" />
    <glyph glyph-name="Dcroat" unicode="&#x110;" horiz-adv-x="775" 
d="M735 381q0 -176 -103 -278.5t-286 -102.5h-266v313h-60v160h60v290h263q188 0 290 -100.5t102 -281.5zM298 174h48q83 0 127 54t44 154q0 101 -46.5 154t-136.5 53h-36v-116h122v-160h-122v-139z" />
    <glyph glyph-name="dcroat" unicode="&#x111;" horiz-adv-x="666" 
d="M383 43q-22 -26 -57 -40t-79 -14q-93 0 -150 76.5t-57 203.5q0 126 60.5 206.5t160.5 80.5q30 0 61.5 -7.5t58.5 -21.5l5 3v84h-163v96h163v81h200v-81h50v-96h-50v-614h-200v41zM386 388q-10 7 -24.5 10.5t-29.5 3.5q-44 0 -68 -34.5t-24 -96.5q0 -60 23 -95t65 -35
q19 0 34 7.5t24 21.5v218z" />
    <glyph glyph-name="Emacron" unicode="&#x112;" horiz-adv-x="644" 
d="M553 1010v-132h-442v132h442zM584 164v-164h-504v763h492v-164h-274v-130h254v-164h-254v-141h286z" />
    <glyph glyph-name="emacron" unicode="&#x113;" horiz-adv-x="585" 
d="M505 840v-132h-402v132h402zM522 21q-45 -16 -91.5 -24t-96.5 -8q-135 0 -214.5 78t-79.5 213q0 125 73.5 200.5t198.5 75.5q111 0 172 -59.5t61 -166.5q0 -28 -4 -56t-11 -51h-301q9 -44 38.5 -63.5t87.5 -19.5q34 0 69 6t98 26v-151zM382 359q0 35 -19.5 54.5
t-54.5 19.5q-39 0 -60.5 -25t-22.5 -73h155q1 2 1.5 6.5t0.5 17.5z" />
    <glyph glyph-name="Ebreve" unicode="&#x114;" horiz-adv-x="644" 
d="M551 1043q0 -99 -58.5 -159.5t-159.5 -60.5q-102 0 -160.5 60.5t-58.5 159.5h122q2 -39 27.5 -61.5t69.5 -22.5t69 22.5t28 61.5h121zM584 164v-164h-504v763h492v-164h-274v-130h254v-164h-254v-141h286z" />
    <glyph glyph-name="ebreve" unicode="&#x115;" horiz-adv-x="585" 
d="M512 859q0 -105 -54.5 -169.5t-148.5 -64.5t-148.5 64.5t-54.5 169.5h126q2 -44 22 -70t55 -26t55 26t22 70h126zM522 21q-45 -16 -91.5 -24t-96.5 -8q-135 0 -214.5 78t-79.5 213q0 125 73.5 200.5t198.5 75.5q111 0 172 -59.5t61 -166.5q0 -28 -4 -56t-11 -51h-301
q9 -44 38.5 -63.5t87.5 -19.5q34 0 69 6t98 26v-151zM382 359q0 35 -19.5 54.5t-54.5 19.5q-39 0 -60.5 -25t-22.5 -73h155q1 2 1.5 6.5t0.5 17.5z" />
    <glyph glyph-name="Edotaccent" unicode="&#x116;" horiz-adv-x="644" 
d="M448 942q0 -50 -34.5 -83.5t-84.5 -33.5q-52 0 -86.5 33.5t-34.5 83.5t34.5 83t86.5 33q51 0 85 -33t34 -83zM584 164v-164h-504v763h492v-164h-274v-130h254v-164h-254v-141h286z" />
    <glyph glyph-name="edotaccent" unicode="&#x117;" horiz-adv-x="585" 
d="M432 744q0 -50 -34.5 -83.5t-84.5 -33.5q-52 0 -86.5 33.5t-34.5 83.5t34.5 83t86.5 33q51 0 85 -33t34 -83zM522 21q-45 -16 -91.5 -24t-96.5 -8q-135 0 -214.5 78t-79.5 213q0 125 73.5 200.5t198.5 75.5q111 0 172 -59.5t61 -166.5q0 -28 -4 -56t-11 -51h-301
q9 -44 38.5 -63.5t87.5 -19.5q34 0 69 6t98 26v-151zM382 359q0 35 -19.5 54.5t-54.5 19.5q-39 0 -60.5 -25t-22.5 -73h155q1 2 1.5 6.5t0.5 17.5z" />
    <glyph glyph-name="Eogonek" unicode="&#x118;" horiz-adv-x="644" 
d="M584 -215q-27 -10 -59.5 -15.5t-66.5 -5.5q-66 0 -109.5 36t-43.5 93q0 34 14.5 61t43.5 46h-283v763h492v-164h-274v-130h254v-164h-254v-141h286v-164q-47 -9 -77 -32t-30 -47q0 -14 10 -21.5t30 -7.5q16 0 32.5 4t34.5 13v-124z" />
    <glyph glyph-name="eogonek" unicode="&#x119;" horiz-adv-x="585" 
d="M447 -215q-27 -10 -59.5 -15.5t-66.5 -5.5q-66 0 -109.5 36t-43.5 93q0 34 14.5 61t43.5 46q1 1 2 1.5l3 1.5q-90 26 -140.5 98t-50.5 179q0 125 73.5 200.5t198.5 75.5q111 0 172 -59.5t61 -166.5q0 -28 -4 -56t-11 -51h-301q9 -44 38.5 -63.5t87.5 -19.5q34 0 69 6
t98 26v-151q-19 -7 -37.5 -12t-37.5 -9v0q-47 -9 -77 -32t-30 -47q0 -14 10 -21.5t30 -7.5q16 0 32.5 4t34.5 13v-124zM382 359q0 35 -19.5 54.5t-54.5 19.5q-39 0 -60.5 -25t-22.5 -73h155q1 2 1.5 6.5t0.5 17.5z" />
    <glyph glyph-name="Ecaron" unicode="&#x11a;" horiz-adv-x="644" 
d="M330 961l156 105l80 -90l-167 -162h-135l-169 162l82 90zM584 164v-164h-504v763h492v-164h-274v-130h254v-164h-254v-141h286z" />
    <glyph glyph-name="ecaron" unicode="&#x11b;" horiz-adv-x="585" 
d="M304 771l124 125l92 -90l-147 -192h-135l-149 192l94 90zM522 21q-45 -16 -91.5 -24t-96.5 -8q-135 0 -214.5 78t-79.5 213q0 125 73.5 200.5t198.5 75.5q111 0 172 -59.5t61 -166.5q0 -28 -4 -56t-11 -51h-301q9 -44 38.5 -63.5t87.5 -19.5q34 0 69 6t98 26v-151z
M382 359q0 35 -19.5 54.5t-54.5 19.5q-39 0 -60.5 -25t-22.5 -73h155q1 2 1.5 6.5t0.5 17.5z" />
    <glyph glyph-name="Gcircumflex" unicode="&#x11c;" horiz-adv-x="775" 
d="M430 919l-156 -105l-80 90l167 162h135l169 -162l-82 -90zM382 436h313v-384q-86 -35 -147.5 -48.5t-127.5 -13.5q-175 0 -277.5 103.5t-102.5 287.5q0 186 108 289t297 103q68 0 125 -11.5t119 -38.5v-193q-60 37 -115 54t-115 17q-103 0 -152 -53.5t-49 -165.5
q0 -113 41.5 -167.5t129.5 -54.5q12 0 24.5 1.5t23.5 4.5v106h-95v164z" />
    <glyph glyph-name="gcircumflex" unicode="&#x11d;" horiz-adv-x="632" 
d="M316 733l-124 -125l-92 90l147 192h135l149 -192l-94 -90zM50 -88q0 29 13.5 53t41.5 44q-22 16 -33 37.5t-11 47.5q0 27 15 59.5t47 72.5q-28 26 -43 60t-15 73q0 86 66 141t179 55q36 0 69 -7t64 -21l151 38v-157h-47q3 -11 5 -23.5t2 -25.5q0 -87 -65.5 -141.5
t-178.5 -54.5q-19 0 -35 2t-29 5q-5 -6 -7.5 -13.5t-2.5 -14.5q0 -12 7 -17t22 -5h157q81 0 130.5 -45t49.5 -116q0 -89 -79 -141.5t-216 -52.5q-122 0 -189.5 39t-67.5 108zM375 359q0 34 -16.5 52t-48.5 18t-49 -18.5t-17 -51.5t17 -51.5t49 -18.5t48.5 18t16.5 52z
M262 -20h-17.5t-9.5 1q-5 -5 -8 -14t-3 -19q0 -29 21.5 -42.5t70.5 -13.5q54 0 81 12.5t27 36.5q0 21 -11.5 30t-39.5 9h-111z" />
    <glyph glyph-name="Gbreve" unicode="&#x11e;" horiz-adv-x="775" 
d="M655 1043q0 -99 -58.5 -159.5t-159.5 -60.5q-102 0 -160.5 60.5t-58.5 159.5h122q2 -39 27.5 -61.5t69.5 -22.5t69 22.5t28 61.5h121zM382 436h313v-384q-86 -35 -147.5 -48.5t-127.5 -13.5q-175 0 -277.5 103.5t-102.5 287.5q0 186 108 289t297 103q68 0 125 -11.5
t119 -38.5v-193q-60 37 -115 54t-115 17q-103 0 -152 -53.5t-49 -165.5q0 -113 41.5 -167.5t129.5 -54.5q12 0 24.5 1.5t23.5 4.5v106h-95v164z" />
    <glyph glyph-name="gbreve" unicode="&#x11f;" horiz-adv-x="632" 
d="M514 859q0 -105 -54.5 -169.5t-148.5 -64.5t-148.5 64.5t-54.5 169.5h126q2 -44 22 -70t55 -26t55 26t22 70h126zM50 -88q0 29 13.5 53t41.5 44q-22 16 -33 37.5t-11 47.5q0 27 15 59.5t47 72.5q-28 26 -43 60t-15 73q0 86 66 141t179 55q36 0 69 -7t64 -21l151 38v-157
h-47q3 -11 5 -23.5t2 -25.5q0 -87 -65.5 -141.5t-178.5 -54.5q-19 0 -35 2t-29 5q-5 -6 -7.5 -13.5t-2.5 -14.5q0 -12 7 -17t22 -5h157q81 0 130.5 -45t49.5 -116q0 -89 -79 -141.5t-216 -52.5q-122 0 -189.5 39t-67.5 108zM375 359q0 34 -16.5 52t-48.5 18t-49 -18.5
t-17 -51.5t17 -51.5t49 -18.5t48.5 18t16.5 52zM262 -20h-17.5t-9.5 1q-5 -5 -8 -14t-3 -19q0 -29 21.5 -42.5t70.5 -13.5q54 0 81 12.5t27 36.5q0 21 -11.5 30t-39.5 9h-111z" />
    <glyph glyph-name="Gdotaccent" unicode="&#x120;" horiz-adv-x="775" 
d="M551 942q0 -50 -34.5 -83.5t-84.5 -33.5q-52 0 -86.5 33.5t-34.5 83.5t34.5 83t86.5 33q51 0 85 -33t34 -83zM382 436h313v-384q-86 -35 -147.5 -48.5t-127.5 -13.5q-175 0 -277.5 103.5t-102.5 287.5q0 186 108 289t297 103q68 0 125 -11.5t119 -38.5v-193
q-60 37 -115 54t-115 17q-103 0 -152 -53.5t-49 -165.5q0 -113 41.5 -167.5t129.5 -54.5q12 0 24.5 1.5t23.5 4.5v106h-95v164z" />
    <glyph glyph-name="gdotaccent" unicode="&#x121;" horiz-adv-x="632" 
d="M433 744q0 -50 -34.5 -83.5t-84.5 -33.5q-52 0 -86.5 33.5t-34.5 83.5t34.5 83t86.5 33q51 0 85 -33t34 -83zM50 -88q0 29 13.5 53t41.5 44q-22 16 -33 37.5t-11 47.5q0 27 15 59.5t47 72.5q-28 26 -43 60t-15 73q0 86 66 141t179 55q36 0 69 -7t64 -21l151 38v-157h-47
q3 -11 5 -23.5t2 -25.5q0 -87 -65.5 -141.5t-178.5 -54.5q-19 0 -35 2t-29 5q-5 -6 -7.5 -13.5t-2.5 -14.5q0 -12 7 -17t22 -5h157q81 0 130.5 -45t49.5 -116q0 -89 -79 -141.5t-216 -52.5q-122 0 -189.5 39t-67.5 108zM375 359q0 34 -16.5 52t-48.5 18t-49 -18.5t-17 -51.5
t17 -51.5t49 -18.5t48.5 18t16.5 52zM262 -20h-17.5t-9.5 1q-5 -5 -8 -14t-3 -19q0 -29 21.5 -42.5t70.5 -13.5q54 0 81 12.5t27 36.5q0 21 -11.5 30t-39.5 9h-111z" />
    <glyph glyph-name="Gcommaaccent" unicode="&#x122;" horiz-adv-x="775" 
d="M382 436h313v-384q-86 -35 -147.5 -48.5t-127.5 -13.5q-175 0 -277.5 103.5t-102.5 287.5q0 186 108 289t297 103q68 0 125 -11.5t119 -38.5v-193q-60 37 -115 54t-115 17q-103 0 -152 -53.5t-49 -165.5q0 -113 41.5 -167.5t129.5 -54.5q12 0 24.5 1.5t23.5 4.5v106h-95
v164zM536 -164l-200 -157l-86 85l148 186z" />
    <glyph glyph-name="gcommaaccent" unicode="&#x123;" horiz-adv-x="632" 
d="M164 748l224 188l94 -92l-172 -217zM50 -88q0 29 13.5 53t41.5 44q-22 16 -33 37.5t-11 47.5q0 27 15 59.5t47 72.5q-28 26 -43 60t-15 73q0 86 66 141t179 55q36 0 69 -7t64 -21l151 38v-157h-47q3 -11 5 -23.5t2 -25.5q0 -87 -65.5 -141.5t-178.5 -54.5q-19 0 -35 2
t-29 5q-5 -6 -7.5 -13.5t-2.5 -14.5q0 -12 7 -17t22 -5h157q81 0 130.5 -45t49.5 -116q0 -89 -79 -141.5t-216 -52.5q-122 0 -189.5 39t-67.5 108zM375 359q0 34 -16.5 52t-48.5 18t-49 -18.5t-17 -51.5t17 -51.5t49 -18.5t48.5 18t16.5 52zM262 -20h-17.5t-9.5 1
q-5 -5 -8 -14t-3 -19q0 -29 21.5 -42.5t70.5 -13.5q54 0 81 12.5t27 36.5q0 21 -11.5 30t-39.5 9h-111z" />
    <glyph glyph-name="Hcircumflex" unicode="&#x124;" horiz-adv-x="812" 
d="M407 919l-156 -105l-80 90l167 162h135l169 -162l-82 -90zM298 300v-300h-218v763h218v-289h216v289h218v-763h-218v300h-216z" />
    <glyph glyph-name="hcircumflex" unicode="&#x125;" horiz-adv-x="686" 
d="M181 939l-124 -125l-92 90l147 192h135l149 -192l-94 -90zM280 377v-377h-200v791h200v-281l4 -3q31 24 68 36.5t79 12.5q86 0 130.5 -48t44.5 -141v-367h-200v326q0 42 -10 58.5t-37 16.5q-21 0 -43 -6.5t-36 -17.5z" />
    <glyph glyph-name="Hbar" unicode="&#x126;" horiz-adv-x="762" 
d="M298 300v-300h-218v545h-50v109h50v109h218v-109h216v109h218v-109h50v-109h-50v-545h-218v300h-216zM298 474h216v71h-216v-71z" />
    <glyph glyph-name="hbar" unicode="&#x127;" horiz-adv-x="686" 
d="M280 377v-377h-200v614h-60v96h60v81h200v-81h153v-96h-153v-104l4 -3q31 24 68 36.5t79 12.5q86 0 130.5 -48t44.5 -141v-367h-200v326q0 42 -10 58.5t-37 16.5q-21 0 -43 -6.5t-36 -17.5z" />
    <glyph glyph-name="Itilde" unicode="&#x128;" horiz-adv-x="563" 
d="M510 1041q10 -102 -28.5 -155.5t-119.5 -53.5q-18 0 -37 6t-52 25q-25 15 -36.5 19t-20.5 4q-20 0 -27.5 -13.5t-4.5 -42.5h-129q-10 102 28.5 155.5t119.5 53.5q19 0 39 -6t52 -25q24 -13 35 -17t20 -4q20 0 27.5 13t4.5 41h129zM505 164v-164h-443v164h113v435h-113
v164h443v-164h-112v-435h112z" />
    <glyph glyph-name="itilde" unicode="&#x129;" horiz-adv-x="360" 
d="M399 879q1 -116 -38 -178.5t-108 -57.5q-24 2 -45 12t-51 37q-17 16 -25 21t-15 5q-14 1 -21.5 -17.5t-7.5 -55.5h-127q-1 115 38.5 177t107.5 57q25 -2 47 -12t52 -38q15 -15 22.5 -19.5t14.5 -4.5q14 -1 21.5 18t7.5 56h127zM280 545v-545h-200v545h200z" />
    <glyph glyph-name="Imacron" unicode="&#x12a;" horiz-adv-x="563" 
d="M502 1010v-132h-442v132h442zM503 164v-164h-443v164h113v435h-113v164h443v-164h-112v-435h112z" />
    <glyph glyph-name="imacron" unicode="&#x12b;" horiz-adv-x="360" 
d="M381 840v-132h-402v132h402zM280 545v-545h-200v545h200z" />
    <glyph glyph-name="Ibreve" unicode="&#x12c;" horiz-adv-x="563" 
d="M500 1043q0 -99 -58.5 -159.5t-159.5 -60.5q-102 0 -160.5 60.5t-58.5 159.5h122q2 -39 27.5 -61.5t69.5 -22.5t69 22.5t28 61.5h121zM503 164v-164h-443v164h113v435h-113v164h443v-164h-112v-435h112z" />
    <glyph glyph-name="ibreve" unicode="&#x12d;" horiz-adv-x="360" 
d="M383 859q0 -105 -54.5 -169.5t-148.5 -64.5t-148.5 64.5t-54.5 169.5h126q2 -44 22 -70t55 -26t55 26t22 70h126zM280 545v-545h-200v545h200z" />
    <glyph glyph-name="Iogonek" unicode="&#x12e;" horiz-adv-x="563" 
d="M433 -215q-27 -10 -59.5 -15.5t-66.5 -5.5q-66 0 -109.5 36t-43.5 93q0 34 14.5 61t43.5 46h-152v164h113v435h-113v164h443v-164h-112v-435h112v-164h-70q-47 -9 -77 -32t-30 -47q0 -14 10 -21.5t30 -7.5q16 0 32.5 4t34.5 13v-124z" />
    <glyph glyph-name="iogonek" unicode="&#x12f;" horiz-adv-x="360" 
d="M300 744q0 -50 -34.5 -83.5t-84.5 -33.5q-52 0 -86.5 33.5t-34.5 83.5t34.5 83t86.5 33q51 0 85 -33t34 -83zM280 -215q-27 -10 -59.5 -15.5t-66.5 -5.5q-66 0 -109.5 36t-43.5 93q0 34 14.5 61t43.5 46q5 3 10.5 6t10.5 6v533h200v-545q-47 -9 -77 -32t-30 -47
q0 -14 10 -21.5t30 -7.5q16 0 32.5 4t34.5 13v-124z" />
    <glyph glyph-name="Idotaccent" unicode="&#x130;" horiz-adv-x="563" 
d="M401 942q0 -50 -34.5 -83.5t-84.5 -33.5q-52 0 -86.5 33.5t-34.5 83.5t34.5 83t86.5 33q51 0 85 -33t34 -83zM503 164v-164h-443v164h113v435h-113v164h443v-164h-112v-435h112z" />
    <glyph glyph-name="dotlessi" unicode="&#x131;" horiz-adv-x="360" 
d="M280 545v-545h-200v545h200z" />
    <glyph glyph-name="IJ" unicode="&#x132;" horiz-adv-x="1166" 
d="M1086 297q0 -158 -67 -232.5t-210 -74.5q-53 0 -112 9.5t-84 22.5v197q34 -18 76 -29t79 -11q58 0 79 29t21 106v285h-233v164h451v-466zM503 164v-164h-443v164h113v435h-113v164h443v-164h-112v-435h112z" />
    <glyph glyph-name="ij" unicode="&#x133;" horiz-adv-x="720" 
d="M300 744q0 -50 -34.5 -83.5t-84.5 -33.5q-52 0 -86.5 33.5t-34.5 83.5t34.5 83t86.5 33q51 0 85 -33t34 -83zM660 743q0 -50 -34.5 -83.5t-84.5 -33.5q-52 0 -86.5 33.5t-34.5 83.5t34.5 83t86.5 33q51 0 85 -33t34 -83zM280 545v-545h-200v545h200zM281 -58
q44 -4 74 -0.5t48 15.5q19 14 28 40t9 70v477h200v-471q0 -95 -22 -157t-67 -97q-42 -33 -109.5 -46t-160.5 -5v174z" />
    <glyph glyph-name="Jcircumflex" unicode="&#x134;" horiz-adv-x="603" 
d="M304 919l-156 -105l-80 90l167 162h135l169 -162l-82 -90zM523 297q0 -158 -67 -232.5t-210 -74.5q-53 0 -112 9.5t-84 22.5v197q34 -18 76 -29t79 -11q58 0 79 29t21 106v285h-233v164h451v-466z" />
    <glyph glyph-name="jcircumflex" unicode="&#x135;" horiz-adv-x="360" 
d="M179 733l-124 -125l-92 90l147 192h135l149 -192l-94 -90zM-79 -57q44 -4 74 -0.5t48 15.5q19 14 28 40t9 70v477h200v-471q0 -95 -22 -157t-67 -97q-42 -33 -109.5 -46t-160.5 -5v174z" />
    <glyph glyph-name="Kcommaaccent" unicode="&#x136;" horiz-adv-x="740" 
d="M298 291v-291h-218v763h218v-285q33 0 47.5 14.5t34.5 54.5q9 18 21 43t29 65q8 16 17 37.5t31 70.5h253l-162 -278q-21 -36 -40 -58t-39 -32v-4q18 -11 37.5 -35.5t42.5 -63.5l170 -292h-253q-24 49 -34.5 70.5t-18.5 38.5q-19 39 -31.5 64t-22.5 43q-24 44 -38.5 59.5
t-43.5 15.5zM505 -164l-200 -157l-86 85l148 186z" />
    <glyph glyph-name="kcommaaccent" unicode="&#x137;" horiz-adv-x="626" 
d="M280 202v-202h-200v791h200v-439q19 0 31.5 16.5t39.5 69.5q9 17 20.5 40l33.5 67h210l-120 -196q-20 -34 -36 -52.5t-24 -18.5v-3q12 0 28 -14t32 -40l136 -221h-210q-26 45 -39.5 69t-23.5 41q-33 57 -47 74.5t-31 17.5zM465 -164l-200 -157l-86 85l148 186z" />
    <glyph glyph-name="kgreenlandic" unicode="&#x138;" horiz-adv-x="626" 
d="M285 181v-181h-205v545h205v-185q24 0 33 8.5t19 33.5q4 11 10 28t15 43q4 13 9 29.5t13 42.5h235l-92 -178q-19 -37 -34.5 -56.5t-31.5 -27.5v-4q14 -9 29 -30t38 -65l98 -184h-235q-17 43 -25.5 65.5t-14.5 37.5q-20 48 -31 63t-35 15z" />
    <glyph glyph-name="Lacute" unicode="&#x139;" horiz-adv-x="614" 
d="M446 938l-297 -139l-67 121l261 170zM584 174v-174h-504v763h218v-589h286z" />
    <glyph glyph-name="lacute" unicode="&#x13a;" horiz-adv-x="360" 
d="M377 1038l-224 -188l-94 92l172 217zM280 791v-791h-200v791h200z" />
    <glyph glyph-name="Lcommaaccent" unicode="&#x13b;" horiz-adv-x="614" 
d="M584 174v-174h-504v763h218v-589h286zM455 -164l-200 -157l-86 85l148 186z" />
    <glyph glyph-name="lcommaaccent" unicode="&#x13c;" horiz-adv-x="360" 
d="M280 791v-791h-200v791h200zM297 -164l-200 -157l-86 85l148 186z" />
    <glyph glyph-name="Lcaron" unicode="&#x13d;" horiz-adv-x="614" 
d="M584 883l-114 -269l-126 39l55 272zM584 174v-174h-504v763h218v-589h286z" />
    <glyph glyph-name="lcaron" unicode="&#x13e;" horiz-adv-x="360" 
d="M540 893l-114 -269l-126 39l55 272zM280 791v-791h-200v791h200z" />
    <glyph glyph-name="Ldot" unicode="&#x13f;" horiz-adv-x="614" 
d="M584 174v-174h-504v763h218v-589h286zM584 479q0 -50 -34.5 -83.5t-84.5 -33.5q-52 0 -86.5 33.5t-34.5 83.5t34.5 83t86.5 33q51 0 85 -33t34 -83z" />
    <glyph glyph-name="ldot" unicode="&#x140;" horiz-adv-x="469" 
d="M280 791v-791h-200v791h200zM560 509q0 -50 -34.5 -83.5t-84.5 -33.5q-52 0 -86.5 33.5t-34.5 83.5t34.5 83t86.5 33q51 0 85 -33t34 -83z" />
    <glyph glyph-name="Lslash" unicode="&#x141;" horiz-adv-x="614" 
d="M584 174v-174h-504v217l-70 -49v130l70 49v416h218v-265l194 134v-130l-194 -134v-194h286z" />
    <glyph glyph-name="lslash" unicode="&#x142;" horiz-adv-x="360" 
d="M350 462l-70 -44v-418h-200v294l-70 -44v115l70 44v382h200v-258l70 44v-115z" />
    <glyph glyph-name="Nacute" unicode="&#x143;" horiz-adv-x="812" 
d="M693 938l-297 -139l-67 121l261 170zM288 295v-295h-208v763h200l179 -291q20 -31 36.5 -62t29.5 -61l4 1q-2 31 -3.5 61t-1.5 60v292h208v-763h-200l-179 294q-19 32 -36 63t-31 60l-4 -1q3 -30 4.5 -60.5t1.5 -60.5z" />
    <glyph glyph-name="nacute" unicode="&#x144;" horiz-adv-x="686" 
d="M571 803l-224 -188l-94 92l172 217zM280 377v-377h-200v545h200v-35l4 -3q31 24 68 36.5t79 12.5q86 0 130.5 -48t44.5 -141v-367h-200v326q0 42 -10 58.5t-37 16.5q-21 0 -43 -6.5t-36 -17.5z" />
    <glyph glyph-name="Ncommaaccent" unicode="&#x145;" horiz-adv-x="812" 
d="M288 295v-295h-208v763h200l179 -291q20 -31 36.5 -62t29.5 -61l4 1q-2 31 -3.5 61t-1.5 60v292h208v-763h-200l-179 294q-19 32 -36 63t-31 60l-4 -1q3 -30 4.5 -60.5t1.5 -60.5zM547 -164l-200 -157l-86 85l148 186z" />
    <glyph glyph-name="ncommaaccent" unicode="&#x146;" horiz-adv-x="686" 
d="M280 377v-377h-200v545h200v-35l4 -3q31 24 68 36.5t79 12.5q86 0 130.5 -48t44.5 -141v-367h-200v326q0 42 -10 58.5t-37 16.5q-21 0 -43 -6.5t-36 -17.5zM471 -164l-200 -157l-86 85l148 186z" />
    <glyph glyph-name="Ncaron" unicode="&#x147;" horiz-adv-x="812" 
d="M406 961l156 105l80 -90l-167 -162h-135l-169 162l82 90zM288 295v-295h-208v763h200l179 -291q20 -31 36.5 -62t29.5 -61l4 1q-2 31 -3.5 61t-1.5 60v292h208v-763h-200l-179 294q-19 32 -36 63t-31 60l-4 -1q3 -30 4.5 -60.5t1.5 -60.5z" />
    <glyph glyph-name="ncaron" unicode="&#x148;" horiz-adv-x="686" 
d="M342 771l124 125l92 -90l-147 -192h-135l-149 192l94 90zM280 377v-377h-200v545h200v-35l4 -3q31 24 68 36.5t79 12.5q86 0 130.5 -48t44.5 -141v-367h-200v326q0 42 -10 58.5t-37 16.5q-21 0 -43 -6.5t-36 -17.5z" />
    <glyph glyph-name="napostrophe" unicode="&#x149;" horiz-adv-x="686" 
d="M127 754l-110 -310l-132 37l61 305zM280 377v-377h-200v545h200v-35l4 -3q31 24 68 36.5t79 12.5q86 0 130.5 -48t44.5 -141v-367h-200v326q0 42 -10 58.5t-37 16.5q-21 0 -43 -6.5t-36 -17.5z" />
    <glyph glyph-name="Eng" unicode="&#x14a;" horiz-adv-x="812" 
d="M524 763h208v-726q0 -139 -56 -205.5t-174 -66.5q-44 0 -98 9.5t-78 22.5v197q34 -19 70 -29.5t65 -10.5t46 10.5t25 35.5l-179 294q-19 32 -36 63t-31 60l-4 -1q3 -30 4.5 -60.5t1.5 -60.5v-295h-208v763h200l179 -291q20 -31 36.5 -62t29.5 -61l4 1q-2 31 -3.5 61
t-1.5 60v292z" />
    <glyph glyph-name="eng" unicode="&#x14b;" horiz-adv-x="686" 
d="M280 377v-377h-200v545h200v-35l4 -3q31 24 68 36.5t79 12.5q86 0 130.5 -48t44.5 -141v-293q0 -95 -22 -157t-67 -97q-42 -33 -109.5 -46t-160.5 -5v174q44 -4 74 -0.5t48 15.5q19 14 28 40t9 70v258q0 42 -10 58.5t-37 16.5q-21 0 -43 -6.5t-36 -17.5z" />
    <glyph glyph-name="Omacron" unicode="&#x14c;" horiz-adv-x="828" 
d="M635 1010v-132h-442v132h442zM788 381q0 -179 -100.5 -285t-274.5 -106t-273.5 105.5t-99.5 285.5t100 286t273 106q174 0 274.5 -106.5t100.5 -285.5zM570 381q0 104 -41 161t-116 57t-115 -56.5t-40 -161.5t40 -161t115 -56q76 0 116.5 56.5t40.5 160.5z" />
    <glyph glyph-name="omacron" unicode="&#x14d;" horiz-adv-x="639" 
d="M520 840v-132h-402v132h402zM599 272q0 -131 -75 -206.5t-205 -75.5t-204.5 75.5t-74.5 206.5t74.5 207t204.5 76t205 -76t75 -207zM398 272q0 66 -19.5 98.5t-59.5 32.5q-39 0 -58.5 -32.5t-19.5 -98.5t19.5 -98t58.5 -32q40 0 59.5 32t19.5 98z" />
    <glyph glyph-name="Obreve" unicode="&#x14e;" horiz-adv-x="828" 
d="M633 1043q0 -99 -58.5 -159.5t-159.5 -60.5q-102 0 -160.5 60.5t-58.5 159.5h122q2 -39 27.5 -61.5t69.5 -22.5t69 22.5t28 61.5h121zM788 381q0 -179 -100.5 -285t-274.5 -106t-273.5 105.5t-99.5 285.5t100 286t273 106q174 0 274.5 -106.5t100.5 -285.5zM570 381
q0 104 -41 161t-116 57t-115 -56.5t-40 -161.5t40 -161t115 -56q76 0 116.5 56.5t40.5 160.5z" />
    <glyph glyph-name="obreve" unicode="&#x14f;" horiz-adv-x="639" 
d="M522 859q0 -105 -54.5 -169.5t-148.5 -64.5t-148.5 64.5t-54.5 169.5h126q2 -44 22 -70t55 -26t55 26t22 70h126zM599 272q0 -131 -75 -206.5t-205 -75.5t-204.5 75.5t-74.5 206.5t74.5 207t204.5 76t205 -76t75 -207zM398 272q0 66 -19.5 98.5t-59.5 32.5
q-39 0 -58.5 -32.5t-19.5 -98.5t19.5 -98t58.5 -32q40 0 59.5 32t19.5 98z" />
    <glyph glyph-name="Ohungarumlaut" unicode="&#x150;" horiz-adv-x="828" 
d="M515 985l-259 -201l-92 103l218 224zM841 941l-286 -157l-75 116l249 187zM788 381q0 -179 -100.5 -285t-274.5 -106t-273.5 105.5t-99.5 285.5t100 286t273 106q174 0 274.5 -106.5t100.5 -285.5zM570 381q0 104 -41 161t-116 57t-115 -56.5t-40 -161.5t40 -161t115 -56
q76 0 116.5 56.5t40.5 160.5z" />
    <glyph glyph-name="ohungarumlaut" unicode="&#x151;" horiz-adv-x="639" 
d="M384 855l-171 -237l-114 66l114 253zM641 797l-216 -197l-97 88l163 224zM599 272q0 -131 -75 -206.5t-205 -75.5t-204.5 75.5t-74.5 206.5t74.5 207t204.5 76t205 -76t75 -207zM398 272q0 66 -19.5 98.5t-59.5 32.5q-39 0 -58.5 -32.5t-19.5 -98.5t19.5 -98t58.5 -32
q40 0 59.5 32t19.5 98z" />
    <glyph glyph-name="OE" unicode="&#x152;" horiz-adv-x="1134" 
d="M570 0v17q-34 -13 -73.5 -20t-83.5 -7q-174 0 -273.5 105.5t-99.5 285.5t100 286t273 106q44 0 83.5 -7t73.5 -21v18h492v-164h-274v-130h254v-164h-254v-141h286v-164h-504zM570 381q0 104 -41 161t-116 57t-115 -56.5t-40 -161.5t40 -161t115 -56q76 0 116.5 56.5
t40.5 160.5z" />
    <glyph glyph-name="oe" unicode="&#x153;" horiz-adv-x="955" 
d="M892 21q-45 -16 -91.5 -24t-96.5 -8q-60 0 -109.5 16t-86.5 45q-35 -29 -83 -44.5t-106 -15.5q-130 0 -204.5 75.5t-74.5 206.5t74.5 207t204.5 76q56 0 102.5 -14.5t81.5 -41.5q34 27 79.5 42t99.5 15q111 0 172 -59.5t61 -166.5q0 -28 -4 -56t-11 -51h-301
q9 -44 38.5 -63.5t87.5 -19.5q34 0 69 6t98 26v-151zM752 359q0 35 -19.5 54.5t-54.5 19.5q-39 0 -60.5 -25t-22.5 -73h155q1 2 1.5 6.5t0.5 17.5zM398 272q0 66 -19.5 98.5t-59.5 32.5q-39 0 -58.5 -32.5t-19.5 -98.5t19.5 -98t58.5 -32q40 0 59.5 32t19.5 98z" />
    <glyph glyph-name="Racute" unicode="&#x154;" horiz-adv-x="731" 
d="M608 938l-297 -139l-67 121l261 170zM297 251v-251h-217v763h269q156 0 236 -62t80 -184q0 -68 -28 -122t-79 -85l153 -310h-243l-106 253q-10 -1 -22 -1.5t-22 -0.5h-21zM349 593h-52v-172h41q54 0 82 22.5t28 66.5q0 40 -26 61.5t-73 21.5z" />
    <glyph glyph-name="racute" unicode="&#x155;" horiz-adv-x="491" 
d="M508 803l-224 -188l-94 92l172 217zM280 292v-292h-200v545h200v-65l4 -3q37 43 70.5 61t71.5 18q10 0 21 -1t24 -4v-205q-19 3 -26.5 3.5t-13.5 0.5q-58 0 -93.5 -13.5t-57.5 -44.5z" />
    <glyph glyph-name="Rcommaaccent" unicode="&#x156;" horiz-adv-x="731" 
d="M297 251v-251h-217v763h269q156 0 236 -62t80 -184q0 -68 -28 -122t-79 -85l153 -310h-243l-106 253q-10 -1 -22 -1.5t-22 -0.5h-21zM349 593h-52v-172h41q54 0 82 22.5t28 66.5q0 40 -26 61.5t-73 21.5zM496 -164l-200 -157l-86 85l148 186z" />
    <glyph glyph-name="rcommaaccent" unicode="&#x157;" horiz-adv-x="491" 
d="M280 292v-292h-200v545h200v-65l4 -3q37 43 70.5 61t71.5 18q10 0 21 -1t24 -4v-205q-19 3 -26.5 3.5t-13.5 0.5q-58 0 -93.5 -13.5t-57.5 -44.5zM329 -164l-200 -157l-86 85l148 186z" />
    <glyph glyph-name="Rcaron" unicode="&#x158;" horiz-adv-x="731" 
d="M349 961l156 105l80 -90l-167 -162h-135l-169 162l82 90zM297 251v-251h-217v763h269q156 0 236 -62t80 -184q0 -68 -28 -122t-79 -85l153 -310h-243l-106 253q-10 -1 -22 -1.5t-22 -0.5h-21zM349 593h-52v-172h41q54 0 82 22.5t28 66.5q0 40 -26 61.5t-73 21.5z" />
    <glyph glyph-name="rcaron" unicode="&#x159;" horiz-adv-x="491" 
d="M271 771l124 125l92 -90l-147 -192h-135l-149 192l94 90zM280 292v-292h-200v545h200v-65l4 -3q37 43 70.5 61t71.5 18q10 0 21 -1t24 -4v-205q-19 3 -26.5 3.5t-13.5 0.5q-58 0 -93.5 -13.5t-57.5 -44.5z" />
    <glyph glyph-name="Sacute" unicode="&#x15a;" horiz-adv-x="644" 
d="M577 938l-297 -139l-67 121l261 170zM594 234q0 -120 -81 -182t-238 -62q-63 0 -117 9t-108 28v186q49 -28 108 -43t120 -15q48 0 72 15t24 45q0 21 -19.5 38.5t-88.5 45.5q-66 28 -97.5 46.5t-54.5 40.5q-32 31 -48 70.5t-16 88.5q0 108 79 168t221 60q58 0 114 -11.5
t97 -32.5v-196q-39 33 -97 52.5t-117 19.5q-42 0 -62 -11.5t-20 -35.5q0 -23 21.5 -42.5t95.5 -51.5q63 -27 93.5 -44.5t52.5 -36.5q33 -30 49.5 -67t16.5 -82z" />
    <glyph glyph-name="sacute" unicode="&#x15b;" horiz-adv-x="534" 
d="M484 803l-224 -188l-94 92l172 217zM484 170q0 -81 -63.5 -131.5t-161.5 -50.5q-54 0 -105.5 8.5t-92.5 24.5v160q38 -21 86 -34.5t88 -13.5q31 0 45 7t14 22q0 12 -12.5 20.5t-56.5 20.5q-52 15 -78 27t-44 29q-24 22 -36 52.5t-12 69.5q0 85 59.5 129.5t173.5 44.5
q44 0 85.5 -6t84.5 -19v-155q-26 15 -73 25.5t-89 10.5q-28 0 -39.5 -6t-11.5 -21q0 -11 12 -19t56 -20q51 -15 77 -27t44 -28q25 -22 37.5 -52t12.5 -68z" />
    <glyph glyph-name="Scircumflex" unicode="&#x15c;" horiz-adv-x="644" 
d="M323 919l-156 -105l-80 90l167 162h135l169 -162l-82 -90zM594 234q0 -120 -81 -182t-238 -62q-63 0 -117 9t-108 28v186q49 -28 108 -43t120 -15q48 0 72 15t24 45q0 21 -19.5 38.5t-88.5 45.5q-66 28 -97.5 46.5t-54.5 40.5q-32 31 -48 70.5t-16 88.5q0 108 79 168
t221 60q58 0 114 -11.5t97 -32.5v-196q-39 33 -97 52.5t-117 19.5q-42 0 -62 -11.5t-20 -35.5q0 -23 21.5 -42.5t95.5 -51.5q63 -27 93.5 -44.5t52.5 -36.5q33 -30 49.5 -67t16.5 -82z" />
    <glyph glyph-name="scircumflex" unicode="&#x15d;" horiz-adv-x="534" 
d="M270 733l-124 -125l-92 90l147 192h135l149 -192l-94 -90zM484 170q0 -81 -63.5 -131.5t-161.5 -50.5q-54 0 -105.5 8.5t-92.5 24.5v160q38 -21 86 -34.5t88 -13.5q31 0 45 7t14 22q0 12 -12.5 20.5t-56.5 20.5q-52 15 -78 27t-44 29q-24 22 -36 52.5t-12 69.5
q0 85 59.5 129.5t173.5 44.5q44 0 85.5 -6t84.5 -19v-155q-26 15 -73 25.5t-89 10.5q-28 0 -39.5 -6t-11.5 -21q0 -11 12 -19t56 -20q51 -15 77 -27t44 -28q25 -22 37.5 -52t12.5 -68z" />
    <glyph glyph-name="Scedilla" unicode="&#x15e;" horiz-adv-x="644" 
d="M488 -107q0 -57 -43.5 -93t-109.5 -36q-34 0 -66.5 5.5t-59.5 15.5v124q20 -9 34.5 -13t28.5 -4q21 0 32.5 12t11.5 33q0 14 -5 26.5t-17 26.5h-9.5h-9.5q-63 0 -117 9t-108 28v186q49 -28 108 -43t120 -15q48 0 72 15t24 45q0 21 -19.5 38.5t-88.5 45.5
q-66 28 -97.5 46.5t-54.5 40.5q-32 31 -48 70.5t-16 88.5q0 108 79 168t221 60q58 0 114 -11.5t97 -32.5v-196q-39 33 -97 52.5t-117 19.5q-42 0 -62 -11.5t-20 -35.5q0 -23 21.5 -42.5t95.5 -51.5q63 -27 93.5 -44.5t52.5 -36.5q33 -30 49.5 -67t16.5 -82
q0 -87 -42.5 -143.5t-125.5 -81.5q13 -10 19.5 -16.5t12.5 -13.5q15 -19 22.5 -40t7.5 -46z" />
    <glyph glyph-name="scedilla" unicode="&#x15f;" horiz-adv-x="534" 
d="M415 -107q0 -57 -43.5 -93t-109.5 -36q-34 0 -66.5 5.5t-59.5 15.5v124q20 -9 34.5 -13t28.5 -4q21 0 32.5 12t11.5 33q0 14 -4.5 26t-16.5 26q-44 2 -85.5 10.5t-75.5 21.5v160q38 -21 86 -34.5t88 -13.5q31 0 45 7t14 22q0 12 -12.5 20.5t-56.5 20.5q-52 15 -78 27
t-44 29q-24 22 -36 52.5t-12 69.5q0 85 59.5 129.5t173.5 44.5q44 0 85.5 -6t84.5 -19v-155q-26 15 -73 25.5t-89 10.5q-28 0 -39.5 -6t-11.5 -21q0 -11 12 -19t56 -20q51 -15 77 -27t44 -28q25 -22 37.5 -52t12.5 -68q0 -58 -34 -101.5t-91 -64.5q10 -7 15.5 -13t10.5 -12
q15 -19 22.5 -40t7.5 -46z" />
    <glyph glyph-name="Scaron" unicode="&#x160;" horiz-adv-x="644" 
d="M322 961l156 105l80 -90l-167 -162h-135l-169 162l82 90zM594 234q0 -120 -81 -182t-238 -62q-63 0 -117 9t-108 28v186q49 -28 108 -43t120 -15q48 0 72 15t24 45q0 21 -19.5 38.5t-88.5 45.5q-66 28 -97.5 46.5t-54.5 40.5q-32 31 -48 70.5t-16 88.5q0 108 79 168
t221 60q58 0 114 -11.5t97 -32.5v-196q-39 33 -97 52.5t-117 19.5q-42 0 -62 -11.5t-20 -35.5q0 -23 21.5 -42.5t95.5 -51.5q63 -27 93.5 -44.5t52.5 -36.5q33 -30 49.5 -67t16.5 -82z" />
    <glyph glyph-name="scaron" unicode="&#x161;" horiz-adv-x="534" 
d="M265 771l124 125l92 -90l-147 -192h-135l-149 192l94 90zM484 170q0 -81 -63.5 -131.5t-161.5 -50.5q-54 0 -105.5 8.5t-92.5 24.5v160q38 -21 86 -34.5t88 -13.5q31 0 45 7t14 22q0 12 -12.5 20.5t-56.5 20.5q-52 15 -78 27t-44 29q-24 22 -36 52.5t-12 69.5
q0 85 59.5 129.5t173.5 44.5q44 0 85.5 -6t84.5 -19v-155q-26 15 -73 25.5t-89 10.5q-28 0 -39.5 -6t-11.5 -21q0 -11 12 -19t56 -20q51 -15 77 -27t44 -28q25 -22 37.5 -52t12.5 -68z" />
    <glyph glyph-name="Tcaron" unicode="&#x164;" horiz-adv-x="608" 
d="M304 961l156 105l80 -90l-167 -162h-135l-169 162l82 90zM412 589v-589h-216v589h-196v174h608v-174h-196z" />
    <glyph glyph-name="tcaron" unicode="&#x165;" horiz-adv-x="500" 
d="M568 863l-114 -269l-126 39l55 272zM470 13q-33 -12 -69 -17.5t-74 -5.5q-102 0 -160.5 53.5t-58.5 147.5v204h-88v150h88v144h200v-144h152v-150h-152v-140q0 -54 16.5 -73.5t56.5 -19.5q17 0 39.5 3.5t49.5 10.5v-163z" />
    <glyph glyph-name="Tbar" unicode="&#x166;" horiz-adv-x="608" 
d="M598 339h-186v-339h-216v339h-186v109h186v141h-196v174h608v-174h-196v-141h186v-109z" />
    <glyph glyph-name="tbar" unicode="&#x167;" horiz-adv-x="500" 
d="M470 13q-33 -12 -69 -17.5t-74 -5.5q-102 0 -160.5 53.5t-58.5 147.5v34h-78v96h78v74h-88v150h88v144h200v-144h152v-150h-152v-74h141v-96h-140q4 -36 21 -49.5t51 -13.5q17 0 39.5 3.5t49.5 10.5v-163z" />
    <glyph glyph-name="Utilde" unicode="&#x168;" horiz-adv-x="812" 
d="M633 1041q10 -102 -28.5 -155.5t-119.5 -53.5q-18 0 -37 6t-52 25q-25 15 -36.5 19t-20.5 4q-20 0 -27.5 -13.5t-4.5 -42.5h-129q-10 102 28.5 155.5t119.5 53.5q19 0 39 -6t52 -25q24 -13 35 -17t20 -4q20 0 27.5 13t4.5 41h129zM732 382q0 -223 -73.5 -307.5
t-252.5 -84.5t-252.5 86t-73.5 306v381h218v-396q0 -56 3 -82t9 -44q11 -33 35 -49t62 -16q37 0 60.5 16t34.5 49q7 19 9.5 44.5t2.5 81.5v396h218v-381z" />
    <glyph glyph-name="utilde" unicode="&#x169;" horiz-adv-x="686" 
d="M579 879q1 -116 -38 -178.5t-108 -57.5q-24 2 -45 12t-51 37q-17 16 -25 21t-15 5q-14 1 -21.5 -17.5t-7.5 -55.5h-127q-1 115 38.5 177t107.5 57q25 -2 47 -12t52 -38q15 -15 22.5 -19.5t14.5 -4.5q14 -1 21.5 18t7.5 56h127zM402 37q-31 -24 -68 -36.5t-79 -12.5
q-86 0 -130.5 48t-44.5 141v367h200v-326q0 -42 10 -58.5t37 -16.5q21 0 43 6.5t36 17.5v377h200v-544h-200v34z" />
    <glyph glyph-name="Umacron" unicode="&#x16a;" horiz-adv-x="812" 
d="M627 1010v-132h-442v132h442zM732 382q0 -223 -73.5 -307.5t-252.5 -84.5t-252.5 86t-73.5 306v381h218v-396q0 -56 3 -82t9 -44q11 -33 35 -49t62 -16q37 0 60.5 16t34.5 49q7 19 9.5 44.5t2.5 81.5v396h218v-381z" />
    <glyph glyph-name="umacron" unicode="&#x16b;" horiz-adv-x="686" 
d="M544 840v-132h-402v132h402zM402 37q-31 -24 -68 -36.5t-79 -12.5q-86 0 -130.5 48t-44.5 141v367h200v-326q0 -42 10 -58.5t37 -16.5q21 0 43 6.5t36 17.5v377h200v-544h-200v34z" />
    <glyph glyph-name="Ubreve" unicode="&#x16c;" horiz-adv-x="812" 
d="M625 1043q0 -99 -58.5 -159.5t-159.5 -60.5q-102 0 -160.5 60.5t-58.5 159.5h122q2 -39 27.5 -61.5t69.5 -22.5t69 22.5t28 61.5h121zM732 380q0 -223 -73.5 -307.5t-252.5 -84.5t-252.5 86t-73.5 306v381h218v-396q0 -56 3 -82t9 -44q11 -33 35 -49t62 -16q37 0 60.5 16
t34.5 49q7 19 9.5 44.5t2.5 81.5v396h218v-381z" />
    <glyph glyph-name="ubreve" unicode="&#x16d;" horiz-adv-x="686" 
d="M546 860q0 -105 -54.5 -169.5t-148.5 -64.5t-148.5 64.5t-54.5 169.5h126q2 -44 22 -70t55 -26t55 26t22 70h126zM402 37q-31 -24 -68 -36.5t-79 -12.5q-86 0 -130.5 48t-44.5 141v367h200v-326q0 -42 10 -58.5t37 -16.5q21 0 43 6.5t36 17.5v377h200v-544h-200v34z" />
    <glyph glyph-name="Uring" unicode="&#x16e;" horiz-adv-x="812" 
d="M406 1079q88 0 143.5 -39.5t55.5 -99.5t-55.5 -99.5t-143.5 -39.5t-143.5 39.5t-55.5 99.5t55.5 99.5t143.5 39.5zM406 989q-36 0 -57.5 -13t-21.5 -36t21.5 -36t57.5 -13t57.5 13t21.5 36t-21.5 36t-57.5 13zM732 382q0 -223 -73.5 -307.5t-252.5 -84.5t-252.5 86
t-73.5 306v381h218v-396q0 -56 3 -82t9 -44q11 -33 35 -49t62 -16q37 0 60.5 16t34.5 49q7 19 9.5 44.5t2.5 81.5v396h218v-381z" />
    <glyph glyph-name="uring" unicode="&#x16f;" horiz-adv-x="686" 
d="M343 928q65 0 109.5 -44.5t44.5 -109.5q0 -64 -44.5 -109t-109.5 -45q-64 0 -109 45t-45 109q0 65 45 109.5t109 44.5zM343 823q-22 0 -35.5 -13t-13.5 -36q0 -22 13.5 -35.5t35.5 -13.5t35.5 13.5t13.5 35.5t-13.5 35.5t-35.5 13.5zM402 37q-31 -24 -68 -36.5t-79 -12.5
q-86 0 -130.5 48t-44.5 141v367h200v-326q0 -42 10 -58.5t37 -16.5q21 0 43 6.5t36 17.5v377h200v-544h-200v34z" />
    <glyph glyph-name="Uhungarumlaut" unicode="&#x170;" horiz-adv-x="812" 
d="M504 985l-259 -201l-92 103l218 224zM830 941l-286 -157l-75 116l249 187zM732 382q0 -223 -73.5 -307.5t-252.5 -84.5t-252.5 86t-73.5 306v381h218v-396q0 -56 3 -82t9 -44q11 -33 35 -49t62 -16q37 0 60.5 16t34.5 49q7 19 9.5 44.5t2.5 81.5v396h218v-381z" />
    <glyph glyph-name="uhungarumlaut" unicode="&#x171;" horiz-adv-x="686" 
d="M419 855l-171 -237l-114 66l114 253zM676 797l-216 -197l-97 88l163 224zM402 37q-31 -24 -68 -36.5t-79 -12.5q-86 0 -130.5 48t-44.5 141v367h200v-326q0 -42 10 -58.5t37 -16.5q21 0 43 6.5t36 17.5v377h200v-544h-200v34z" />
    <glyph glyph-name="Uogonek" unicode="&#x172;" horiz-adv-x="812" 
d="M518 -215q-27 -10 -59.5 -15.5t-66.5 -5.5q-66 0 -109.5 36t-43.5 93q0 34 14 60.5t43 45.5q-117 23 -166.5 112t-49.5 271v381h218v-396q0 -56 3 -82t9 -44q11 -33 35 -49t62 -16q37 0 60.5 16t34.5 49q7 19 9.5 44.5t2.5 81.5v396h218v-381q0 -190 -52.5 -278
t-176.5 -108q-41 -10 -66.5 -31.5t-25.5 -43.5q0 -14 10 -21.5t30 -7.5q16 0 32.5 4t34.5 13v-124z" />
    <glyph glyph-name="uogonek" unicode="&#x173;" horiz-adv-x="686" 
d="M606 -215q-27 -10 -59.5 -15.5t-66.5 -5.5q-66 0 -109.5 36t-43.5 93q0 34 14.5 61t43.5 46q5 3 10.5 6t10.5 6v22l-4 3q-31 -24 -68 -36.5t-79 -12.5q-86 0 -130.5 48t-44.5 141v367h200v-326q0 -42 10 -58.5t37 -16.5q21 0 43 6.5t36 17.5v377h200v-544q-47 -9 -77 -32
t-30 -47q0 -14 10 -21.5t30 -7.5q16 0 32.5 4t34.5 13v-124z" />
    <glyph glyph-name="Wcircumflex" unicode="&#x174;" horiz-adv-x="1072" 
d="M537 919l-156 -105l-80 90l167 162h135l169 -162l-82 -90zM533 450l-120 -450h-218l-155 763h220l37 -253q6 -40 11.5 -96t9.5 -128h5q12 68 24 124t24 101l69 252h193l72 -253q13 -44 25 -100t24 -124h5q4 72 9 128t10 96l35 253h219l-153 -763h-219l-123 450h-4z" />
    <glyph glyph-name="wcircumflex" unicode="&#x175;" horiz-adv-x="856" 
d="M429 733l-124 -125l-92 90l147 192h135l149 -192l-94 -90zM401 135l-41 -135h-180l-180 545h204l47 -228q7 -30 10.5 -51.5t3.5 -33.5h2q1 12 5.5 33.5t11.5 51.5l55 228h180l53 -228q7 -30 11 -51.5t5 -33.5h2q1 12 5 33.5t10 51.5l49 228h202l-180 -545h-180l-41 135
q-12 39 -18 68.5t-7 48.5h-4q0 -19 -6.5 -48.5t-18.5 -68.5z" />
    <glyph glyph-name="Ycircumflex" unicode="&#x176;" horiz-adv-x="724" 
d="M363 919l-156 -105l-80 90l167 162h135l169 -162l-82 -90zM471 281v-281h-216v281l-265 482h243l96 -208q8 -18 14.5 -36t16.5 -53h6q8 29 15 49t16 40l93 208h244z" />
    <glyph glyph-name="ycircumflex" unicode="&#x177;" horiz-adv-x="613" 
d="M308 733l-124 -125l-92 90l147 192h135l149 -192l-94 -90zM396 0q-56 -140 -117.5 -187t-176.5 -47q-16 0 -33 0.5t-36 2.5v174q19 -1 28 -1.5t16 -0.5q55 0 90.5 15t48.5 44l-216 545h214l71 -246q10 -32 15 -55t5 -36h3q1 13 6 36t14 55l70 246h215z" />
    <glyph glyph-name="Ydieresis" unicode="&#x178;" horiz-adv-x="724" 
d="M325 944q0 -42 -29 -70.5t-72 -28.5q-44 0 -73 28.5t-29 70.5q0 43 29 71.5t73 28.5q43 0 72 -28.5t29 -71.5zM603 944q0 -42 -29.5 -70.5t-72.5 -28.5q-44 0 -73 28.5t-29 70.5t29 70.5t73 28.5q43 0 72.5 -28.5t29.5 -70.5zM471 281v-281h-216v281l-265 482h243
l96 -208q8 -18 14.5 -36t16.5 -53h6q8 29 15 49t16 40l93 208h244z" />
    <glyph glyph-name="Zacute" unicode="&#x179;" horiz-adv-x="654" 
d="M615 938l-297 -139l-67 121l261 170zM604 174v-174h-554v159l294 427l-2 3h-282v174h534v-169l-295 -417l2 -3h303z" />
    <glyph glyph-name="zacute" unicode="&#x17a;" horiz-adv-x="564" 
d="M480 803l-224 -188l-94 92l172 217zM514 162v-162h-464v128l204 251l-2 4h-192v162h443v-128l-206 -252l2 -3h215z" />
    <glyph glyph-name="Zdotaccent" unicode="&#x17b;" horiz-adv-x="654" 
d="M447 942q0 -50 -34.5 -83.5t-84.5 -33.5q-52 0 -86.5 33.5t-34.5 83.5t34.5 83t86.5 33q51 0 85 -33t34 -83zM604 174v-174h-554v159l294 427l-2 3h-282v174h534v-169l-295 -417l2 -3h303z" />
    <glyph glyph-name="zdotaccent" unicode="&#x17c;" horiz-adv-x="564" 
d="M402 744q0 -50 -34.5 -83.5t-84.5 -33.5q-52 0 -86.5 33.5t-34.5 83.5t34.5 83t86.5 33q51 0 85 -33t34 -83zM514 162v-162h-464v128l204 251l-2 4h-192v162h443v-128l-206 -252l2 -3h215z" />
    <glyph glyph-name="Zcaron" unicode="&#x17d;" horiz-adv-x="654" 
d="M327 961l156 105l80 -90l-167 -162h-135l-169 162l82 90zM604 174v-174h-554v159l294 427l-2 3h-282v174h534v-169l-295 -417l2 -3h303z" />
    <glyph glyph-name="zcaron" unicode="&#x17e;" horiz-adv-x="564" 
d="M282 771l124 125l92 -90l-147 -192h-135l-149 192l94 90zM514 162v-162h-464v128l204 251l-2 4h-192v162h443v-128l-206 -252l2 -3h215z" />
    <glyph glyph-name="longs" unicode="&#x17f;" horiz-adv-x="479" 
d="M312 545v-545h-200v395h-82v150h83q8 128 71 192t183 64q33 0 69 -5t73 -15v-162q-32 10 -59 14t-57 4q-43 0 -62 -20.5t-19 -71.5z" />
    <glyph glyph-name="Schwa" unicode="&#x18f;" horiz-adv-x="797" 
d="M92 729q60 22 121.5 33t125.5 11q184 0 291 -105.5t107 -292.5q0 -177 -99 -283.5t-268 -106.5q-148 0 -229 83t-81 231q0 35 5 73.5t14 72.5h439q-13 77 -60.5 112t-136.5 35q-50 0 -103 -10t-126 -36v183zM254 263q-1 -58 32.5 -91.5t91.5 -33.5q66 0 103 42t40 122
h-264q-2 -4 -2.5 -12t-0.5 -27z" />
    <glyph glyph-name="florin" unicode="&#x192;" horiz-adv-x="498" 
d="M286 22q-9 -132 -75.5 -194.5t-198.5 -62.5q-22 0 -42 1t-40 3v174q80 -10 116.5 11t39.5 75l20 288h-91v150h102l5 78q9 130 72 193t182 63q33 0 69 -5t73 -15v-162q-32 10 -59 14t-57 4q-41 0 -58.5 -19t-21.5 -73l-5 -78h124v-150h-135z" />
    <glyph glyph-name="Aringacute" unicode="&#x1fa;" horiz-adv-x="774" 
d="M593 1235l-297 -139l-67 121l261 170zM385 1079q88 0 143.5 -39.5t55.5 -99.5t-55.5 -99.5t-143.5 -39.5t-143.5 39.5t-55.5 99.5t55.5 99.5t143.5 39.5zM385 989q-36 0 -57.5 -13t-21.5 -36t21.5 -36t57.5 -13t57.5 13t21.5 36t-21.5 36t-57.5 13zM288 140l-43 -140
h-225l254 763h226l254 -763h-225l-43 140h-198zM384 555q-4 -27 -12 -67.5t-17 -72.5l-31 -111h126l-30 111q-9 33 -17.5 73.5t-11.5 66.5h-7z" />
    <glyph glyph-name="aringacute" unicode="&#x1fb;" horiz-adv-x="566" 
d="M508 1047l-297 -139l-67 121l261 170zM302 894q65 0 109.5 -44.5t44.5 -109.5q0 -64 -44.5 -109t-109.5 -45q-64 0 -109 45t-45 109q0 65 45 109.5t109 44.5zM302 789q-22 0 -35.5 -13t-13.5 -36q0 -22 13.5 -35.5t35.5 -13.5t35.5 13.5t13.5 35.5t-13.5 35.5t-35.5 13.5
zM362 53q-36 -36 -69.5 -50t-77.5 -14q-77 0 -121 46.5t-44 124.5q0 86 63.5 128t193.5 42h35q1 3 1 6.5v15.5q0 27 -22.5 39.5t-69.5 12.5q-39 0 -73 -6.5t-80 -23.5v157q41 12 87 18t97 6q140 0 199.5 -60t59.5 -196v-299h-155l-20 52zM320 228q-41 0 -59.5 -13t-18.5 -45
q0 -24 12 -37t33 -13q22 0 43.5 10.5t29.5 24.5v73h-40z" />
    <glyph glyph-name="AEacute" unicode="&#x1fc;" horiz-adv-x="1015" 
d="M877 938l-297 -139l-67 121l261 170zM20 0l299 763h624v-164h-274v-130h254v-164h-254v-141h286v-164h-504v140h-160l-46 -140h-225zM444 609l-100 -305h107v305h-7z" />
    <glyph glyph-name="aeacute" unicode="&#x1fd;" horiz-adv-x="900" 
d="M693 803l-224 -188l-94 92l172 217zM837 21q-45 -16 -91.5 -24t-96.5 -8q-71 0 -127.5 22t-94.5 63q-33 -39 -85.5 -62t-110.5 -23q-84 0 -132.5 46.5t-48.5 124.5q0 86 63.5 128t193.5 42h35q1 3 1 6.5v10.5q0 27 -22.5 39.5t-69.5 12.5q-39 0 -73 -6.5t-80 -23.5v162
q41 12 87 18t97 6q61 0 106 -11t76 -33q32 22 73.5 33.5t89.5 11.5q111 0 172 -59.5t61 -166.5q0 -28 -4 -56t-11 -51h-301q9 -44 38.5 -63.5t87.5 -19.5q34 0 69 6t98 26v-151zM687 361q0 31 -17.5 48t-49.5 17q-37 0 -57 -20t-23 -59h145q1 2 1.5 6t0.5 8zM242 168
q0 -19 12 -29.5t33 -10.5q25 0 48.5 11.5t35.5 30.5l-6 22t-5 23v1h-40q-41 0 -59.5 -10.5t-18.5 -37.5z" />
    <glyph glyph-name="Oslashacute" unicode="&#x1fe;" horiz-adv-x="828" 
d="M710 938l-297 -139l-67 121l261 170zM413 -10q-62 0 -115.5 14t-95.5 40l-53 -64l-78 60l56 68q-42 50 -64.5 119.5t-22.5 153.5q0 180 100 286t273 106q62 0 116 -14.5t97 -40.5l53 65l78 -60l-57 -70q43 -50 65.5 -119t22.5 -153q0 -179 -100.5 -285t-274.5 -106z
M258 381q0 -28 3 -53t8 -45l235 286q-18 15 -41 22.5t-50 7.5q-75 0 -115 -56.5t-40 -161.5zM570 381q0 28 -3 53t-9 46l-235 -287q18 -14 40.5 -21.5t49.5 -7.5q76 0 116.5 56.5t40.5 160.5z" />
    <glyph glyph-name="oslashacute" unicode="&#x1ff;" horiz-adv-x="639" 
d="M532 803l-224 -188l-94 92l172 217zM319 -10q-45 0 -84.5 9.5t-70.5 27.5l-40 -47l-60 50l40 47q-31 36 -47.5 85.5t-16.5 109.5q0 131 74.5 207t204.5 76q46 0 85.5 -10t70.5 -28l41 48l60 -50l-40 -48q30 -36 46.5 -85.5t16.5 -109.5q0 -131 -75 -206.5t-205 -75.5z
M241 272q0 -8 0.5 -16t0.5 -15l123 146q-9 8 -20.5 12t-25.5 4q-39 0 -58.5 -32.5t-19.5 -98.5zM398 272q0 8 -0.5 16t-0.5 15l-123 -146q9 -7 20 -11t25 -4q40 0 59.5 32t19.5 98z" />
    <glyph glyph-name="Scommaaccent" unicode="&#x218;" horiz-adv-x="644" 
d="M594 234q0 -120 -81 -182t-238 -62q-63 0 -117 9t-108 28v186q49 -28 108 -43t120 -15q48 0 72 15t24 45q0 21 -19.5 38.5t-88.5 45.5q-66 28 -97.5 46.5t-54.5 40.5q-32 31 -48 70.5t-16 88.5q0 108 79 168t221 60q58 0 114 -11.5t97 -32.5v-196q-39 33 -97 52.5
t-117 19.5q-42 0 -62 -11.5t-20 -35.5q0 -23 21.5 -42.5t95.5 -51.5q63 -27 93.5 -44.5t52.5 -36.5q33 -30 49.5 -67t16.5 -82zM471 -164l-200 -157l-86 85l148 186z" />
    <glyph glyph-name="scommaaccent" unicode="&#x219;" horiz-adv-x="534" 
d="M484 170q0 -81 -63.5 -131.5t-161.5 -50.5q-54 0 -105.5 8.5t-92.5 24.5v160q38 -21 86 -34.5t88 -13.5q31 0 45 7t14 22q0 12 -12.5 20.5t-56.5 20.5q-52 15 -78 27t-44 29q-24 22 -36 52.5t-12 69.5q0 85 59.5 129.5t173.5 44.5q44 0 85.5 -6t84.5 -19v-155
q-26 15 -73 25.5t-89 10.5q-28 0 -39.5 -6t-11.5 -21q0 -11 12 -19t56 -20q51 -15 77 -27t44 -28q25 -22 37.5 -52t12.5 -68zM394 -164l-200 -157l-86 85l148 186z" />
    <glyph glyph-name="Tcommaaccent" unicode="&#x21a;" horiz-adv-x="608" 
d="M412 589v-589h-216v589h-196v174h608v-174h-196zM427 -164l-200 -157l-86 85l148 186z" />
    <glyph glyph-name="tcommaaccent" unicode="&#x21b;" horiz-adv-x="500" 
d="M470 13q-33 -12 -69 -17.5t-74 -5.5q-102 0 -160.5 53.5t-58.5 147.5v204h-88v150h88v144h200v-144h152v-150h-152v-140q0 -54 16.5 -73.5t56.5 -19.5q17 0 39.5 3.5t49.5 10.5v-163zM420 -164l-200 -157l-86 85l148 186z" />
    <glyph glyph-name="dotlessj" unicode="&#x237;" horiz-adv-x="360" 
d="M-79 -57q44 -4 74 -0.5t48 15.5q19 14 28 40t9 70v477h200v-471q0 -95 -22 -157t-67 -97q-42 -33 -109.5 -46t-160.5 -5v174z" />
    <glyph glyph-name="circumflex" unicode="&#x2c6;" horiz-adv-x="491" 
d="M246 733l-124 -125l-92 90l147 192h135l149 -192l-94 -90z" />
    <glyph glyph-name="caron" unicode="&#x2c7;" horiz-adv-x="491" 
d="M245 771l124 125l92 -90l-147 -192h-135l-149 192l94 90z" />
    <glyph glyph-name="breve" unicode="&#x2d8;" horiz-adv-x="466" 
d="M436 859q0 -105 -54.5 -169.5t-148.5 -64.5t-148.5 64.5t-54.5 169.5h126q2 -44 22 -70t55 -26t55 26t22 70h126z" />
    <glyph glyph-name="dotaccent" unicode="&#x2d9;" horiz-adv-x="360" 
d="M300 744q0 -50 -34.5 -83.5t-84.5 -33.5q-52 0 -86.5 33.5t-34.5 83.5t34.5 83t86.5 33q51 0 85 -33t34 -83z" />
    <glyph glyph-name="ring" unicode="&#x2da;" horiz-adv-x="308" 
d="M154 928q65 0 109.5 -44.5t44.5 -109.5q0 -64 -44.5 -109t-109.5 -45q-64 0 -109 45t-45 109q0 65 45 109.5t109 44.5zM154 823q-22 0 -35.5 -13t-13.5 -36q0 -22 13.5 -35.5t35.5 -13.5t35.5 13.5t13.5 35.5t-13.5 35.5t-35.5 13.5z" />
    <glyph glyph-name="ogonek" unicode="&#x2db;" horiz-adv-x="339" 
d="M30 -107q0 34 14.5 61t43.5 46q23 15 51.5 26t62.5 19l107 -45q-47 -9 -77 -32t-30 -47q0 -14 10 -21.5t30 -7.5q16 0 32.5 4t34.5 13v-124q-27 -10 -59.5 -15.5t-66.5 -5.5q-66 0 -109.5 36t-43.5 93z" />
    <glyph glyph-name="tilde" unicode="&#x2dc;" horiz-adv-x="498" 
d="M469 879q1 -116 -38 -178.5t-108 -57.5q-24 2 -45 12t-51 37q-17 16 -25 21t-15 5q-14 1 -21.5 -17.5t-7.5 -55.5h-127q-1 115 38.5 177t107.5 57q25 -2 47 -12t52 -38q15 -15 22.5 -19.5t14.5 -4.5q14 -1 21.5 18t7.5 56h127z" />
    <glyph glyph-name="hungarumlaut" unicode="&#x2dd;" horiz-adv-x="582" 
d="M305 855l-171 -237l-114 66l114 253zM562 797l-216 -197l-97 88l163 224z" />
    <glyph glyph-name="Omega" unicode="&#x3a9;" horiz-adv-x="848" 
d="M176 171q-54 38 -90 107.5t-36 142.5q0 151 108 251.5t266 100.5t266 -100.5t108 -251.5q0 -73 -36 -142.5t-90 -107.5h109v-171h-300v173q48 55 71 111t23 121q0 90 -40 142t-111 53q-71 -1 -111 -53t-40 -142q0 -65 23 -121t71 -111v-173h-300v171h109z" />
    <glyph glyph-name="alpha" unicode="&#x3b1;" horiz-adv-x="731" 
d="M671 545l-87 -272l97 -273h-165l-31 105q-36 -58 -86 -87t-113 -29q-110 0 -178 78.5t-68 197.5q0 126 72 208.5t184 82.5q61 0 109.5 -28t78.5 -80l24 97h163zM193 272q0 -36 29.5 -57t79.5 -21q53 0 88.5 19t47.5 55q-16 40 -51 61t-85 21q-46 0 -77.5 -22t-31.5 -56z
" />
    <glyph glyph-name="delta" unicode="&#x3b4;" horiz-adv-x="644" 
d="M604 244q0 -107 -84.5 -181t-202.5 -74t-197.5 71.5t-79.5 180.5q0 78 38.5 142.5t105.5 98.5q-49 36 -69.5 69.5t-20.5 80.5q0 66 67 118t167 52q76 0 141.5 -11t132.5 -35l-57 -173q-55 17 -108.5 26.5t-94.5 9.5q-25 0 -37.5 -6t-12.5 -17q0 -14 31 -34t102 -55
q93 -45 136 -108.5t43 -154.5zM193 269q0 -46 32.5 -70t94.5 -24q60 0 95.5 24t35.5 65q0 40 -36.5 74t-99.5 54q-46 -9 -84 -46t-38 -77z" />
    <glyph glyph-name="epsilon" unicode="&#x3b5;" horiz-adv-x="560" 
d="M334 383q-42 0 -65 -8.5t-23 -23.5q0 -13 11.5 -21t32.5 -8q32 7 65 11.5t61 4.5v-135q-24 0 -53 3t-73 11q-28 0 -44.5 -7.5t-16.5 -20.5q0 -15 22.5 -21.5t71.5 -6.5q54 0 93 5.5t69 16.5l45 -127q-42 -33 -109 -50t-153 -17q-106 0 -167 40.5t-61 110.5q0 43 25.5 76
t76.5 57q-50 22 -71 51t-21 76q0 71 66.5 113.5t184.5 42.5q76 0 134.5 -16.5t91.5 -48.5l-45 -131q-40 12 -76.5 17.5t-71.5 5.5z" />
    <glyph glyph-name="theta" unicode="&#x3b8;" horiz-adv-x="573" 
d="M286 797q111 0 179 -112t68 -294t-68 -294t-179 -112q-110 0 -178 112t-68 294t68 294t178 112zM286 599q-39 0 -63.5 -41.5t-30.5 -117.5h189q-6 77 -30.5 118t-64.5 41zM286 183q40 0 65 42t30 120h-189q5 -78 30 -120t64 -42z" />
    <glyph glyph-name="lambda" unicode="&#x3bb;" horiz-adv-x="613" 
d="M102 779q115 0 176.5 -47t117.5 -187l217 -545h-215l-70 246q-9 32 -14 55t-6 36h-3q0 -13 -5 -36t-15 -55l-71 -246h-214l216 545q-13 29 -48.5 44t-90.5 15q-7 0 -16 -0.5t-28 -1.5v174q19 2 36 2.5t33 0.5z" />
    <glyph glyph-name="nu" unicode="&#x3bd;" horiz-adv-x="643" 
d="M228 0q-45 168 -97 292t-131 253h216q34 -58 69.5 -162t55.5 -204h2q30 60 53 159t33 207h214q-22 -126 -92.5 -290t-136.5 -255h-186z" />
    <glyph glyph-name="pi" unicode="&#x3c0;" horiz-adv-x="741" 
d="M10 395v150h681v-150h-102v-140q0 -49 12.5 -71t40.5 -22q13 0 26 3t33 11v-163q-32 -14 -53.5 -18.5t-49.5 -4.5q-98 0 -153.5 53t-55.5 148v204h-96v-395h-200v395h-83z" />
    <glyph glyph-name="rho" unicode="&#x3c1;" horiz-adv-x="644" 
d="M233 31l41 -255h-194v769h160v-72q26 38 67.5 59.5t87.5 21.5q100 0 154.5 -71t54.5 -203q0 -129 -63 -209.5t-164 -80.5q-39 0 -76.5 10.5t-67.5 30.5zM344 340q-32 0 -59.5 -11.5t-45.5 -33.5v-94q21 -10 47.5 -15.5t48.5 -5.5q56 1 86 23t30 61q0 37 -27 56.5
t-80 19.5z" />
    <glyph glyph-name="Wgrave" unicode="&#x1e80;" horiz-adv-x="1072" 
d="M581 799l-297 139l103 152l261 -170zM533 450l-120 -450h-218l-155 763h220l37 -253q6 -40 11.5 -96t9.5 -128h5q12 68 24 124t24 101l69 252h193l72 -253q13 -44 25 -100t24 -124h5q4 72 9 128t10 96l35 253h219l-153 -763h-219l-123 450h-4z" />
    <glyph glyph-name="wgrave" unicode="&#x1e81;" horiz-adv-x="856" 
d="M350 924l172 -217l-94 -92l-224 188zM401 135l-41 -135h-180l-180 545h204l47 -228q7 -30 10.5 -51.5t3.5 -33.5h2q1 12 5.5 33.5t11.5 51.5l55 228h180l53 -228q7 -30 11 -51.5t5 -33.5h2q1 12 5 33.5t10 51.5l49 228h202l-180 -545h-180l-41 135q-12 39 -18 68.5
t-7 48.5h-4q0 -19 -6.5 -48.5t-18.5 -68.5z" />
    <glyph glyph-name="Wacute" unicode="&#x1e82;" horiz-adv-x="1072" 
d="M784 938l-297 -139l-67 121l261 170zM533 450l-120 -450h-218l-155 763h220l37 -253q6 -40 11.5 -96t9.5 -128h5q12 68 24 124t24 101l69 252h193l72 -253q13 -44 25 -100t24 -124h5q4 72 9 128t10 96l35 253h219l-153 -763h-219l-123 450h-4z" />
    <glyph glyph-name="wacute" unicode="&#x1e83;" horiz-adv-x="856" 
d="M641 803l-224 -188l-94 92l172 217zM401 135l-41 -135h-180l-180 545h204l47 -228q7 -30 10.5 -51.5t3.5 -33.5h2q1 12 5.5 33.5t11.5 51.5l55 228h180l53 -228q7 -30 11 -51.5t5 -33.5h2q1 12 5 33.5t10 51.5l49 228h202l-180 -545h-180l-41 135q-12 39 -18 68.5
t-7 48.5h-4q0 -19 -6.5 -48.5t-18.5 -68.5z" />
    <glyph glyph-name="Wdieresis" unicode="&#x1e84;" horiz-adv-x="1072" 
d="M499 944q0 -42 -29 -70.5t-72 -28.5q-44 0 -73 28.5t-29 70.5q0 43 29 71.5t73 28.5q43 0 72 -28.5t29 -71.5zM777 944q0 -42 -29.5 -70.5t-72.5 -28.5q-44 0 -73 28.5t-29 70.5t29 70.5t73 28.5q43 0 72.5 -28.5t29.5 -70.5zM533 450l-120 -450h-218l-155 763h220
l37 -253q6 -40 11.5 -96t9.5 -128h5q12 68 24 124t24 101l69 252h193l72 -253q13 -44 25 -100t24 -124h5q4 72 9 128t10 96l35 253h219l-153 -763h-219l-123 450h-4z" />
    <glyph glyph-name="wdieresis" unicode="&#x1e85;" horiz-adv-x="856" 
d="M303 874q43 0 72 -28.5t29 -71.5q0 -42 -29 -70.5t-72 -28.5q-44 0 -73 28.5t-29 70.5q0 43 29 71.5t73 28.5zM553 873q43 0 72.5 -28.5t29.5 -70.5t-29.5 -70.5t-72.5 -28.5q-44 0 -73 28.5t-29 70.5t29 70.5t73 28.5zM401 135l-41 -135h-180l-180 545h204l47 -228
q7 -30 10.5 -51.5t3.5 -33.5h2q1 12 5.5 33.5t11.5 51.5l55 228h180l53 -228q7 -30 11 -51.5t5 -33.5h2q1 12 5 33.5t10 51.5l49 228h202l-180 -545h-180l-41 135q-12 39 -18 68.5t-7 48.5h-4q0 -19 -6.5 -48.5t-18.5 -68.5z" />
    <glyph glyph-name="Ygrave" unicode="&#x1ef2;" horiz-adv-x="724" 
d="M370 799l-297 139l103 152l261 -170zM471 281v-281h-216v281l-265 482h243l96 -208q8 -18 14.5 -36t16.5 -53h6q8 29 15 49t16 40l93 208h244z" />
    <glyph glyph-name="ygrave" unicode="&#x1ef3;" horiz-adv-x="613" 
d="M231 924l172 -217l-94 -92l-224 188zM396 0q-56 -140 -117.5 -187t-176.5 -47q-16 0 -33 0.5t-36 2.5v174q19 -1 28 -1.5t16 -0.5q55 0 90.5 15t48.5 44l-216 545h214l71 -246q10 -32 15 -55t5 -36h3q1 13 6 36t14 55l70 246h215z" />
    <glyph glyph-name="thinspace" unicode="&#x2009;" horiz-adv-x="180" 
 />
    <glyph glyph-name="endash" unicode="&#x2013;" horiz-adv-x="700" 
d="M640 353v-160h-580v160h580z" />
    <glyph glyph-name="emdash" unicode="&#x2014;" horiz-adv-x="870" 
d="M810 353v-160h-750v160h750z" />
    <glyph glyph-name="quoteleft" unicode="&#x2018;" horiz-adv-x="292" 
d="M130 444l-110 310l181 32l61 -305z" />
    <glyph glyph-name="quoteright" unicode="&#x2019;" horiz-adv-x="292" 
d="M272 754l-110 -310l-132 37l61 305z" />
    <glyph glyph-name="quotesinglbase" unicode="&#x201a;" horiz-adv-x="308" 
d="M293 76l-171 -281l-122 64l122 286z" />
    <glyph glyph-name="quotedblleft" unicode="&#x201c;" horiz-adv-x="534" 
d="M135 444l-110 310l181 32l61 -305zM377 444l-110 310l181 32l61 -305z" />
    <glyph glyph-name="quotedblright" unicode="&#x201d;" horiz-adv-x="534" 
d="M272 754l-110 -310l-132 37l61 305zM514 754l-110 -310l-132 37l61 305z" />
    <glyph glyph-name="quotedblbase" unicode="&#x201e;" horiz-adv-x="601" 
d="M293 76l-171 -281l-122 64l122 286zM586 76l-171 -281l-122 64l122 286z" />
    <glyph glyph-name="dagger" unicode="&#x2020;" horiz-adv-x="560" 
d="M530 430l-170 13l20 -443h-200l19 443l-169 -13v182l165 -9l-15 160h200l-16 -160l166 9v-182z" />
    <glyph glyph-name="daggerdbl" unicode="&#x2021;" horiz-adv-x="560" 
d="M364 160l16 -160h-200l15 160l-165 -13v182l161 -9l-11 72l9 51l-159 -13v182l165 -9l-15 160h200l-16 -160l166 9v-182l-160 13l9 -51l-11 -72l162 9v-182z" />
    <glyph glyph-name="bullet" unicode="&#x2022;" horiz-adv-x="426" 
d="M213 446q72 0 122.5 -50.5t50.5 -122.5t-50.5 -122.5t-122.5 -50.5t-122.5 50.5t-50.5 122.5t50.5 122.5t122.5 50.5z" />
    <glyph glyph-name="ellipsis" unicode="&#x2026;" horiz-adv-x="976" 
d="M936 104q0 -50 -35 -83.5t-86 -33.5q-53 0 -88 33.5t-35 83.5t35.5 83t87.5 33q51 0 86 -33t35 -83zM610 104q0 -50 -35 -83.5t-86 -33.5q-53 0 -88 33.5t-35 83.5t35.5 83t87.5 33q51 0 86 -33t35 -83zM284 104q0 -50 -35 -83.5t-86 -33.5q-53 0 -88 33.5t-35 83.5
t35.5 83t87.5 33q51 0 86 -33t35 -83z" />
    <glyph glyph-name="perthousand" unicode="&#x2030;" horiz-adv-x="1864" 
d="M552 519q0 -120 -62 -185.5t-179 -65.5q-118 0 -179.5 65t-61.5 186t62 186t179 65t179 -65.5t62 -185.5zM915 764l-314 -763h-182l314 763h182zM368 519q0 63 -14 93.5t-43 30.5t-43 -30t-14 -94t14 -94t43 -30t43 30.5t14 93.5zM1262 242q0 -120 -62 -185.5t-179 -65.5
q-118 0 -179.5 65t-61.5 186t62 186t179 65t179 -65.5t62 -185.5zM1794 241q0 -120 -62 -185.5t-179 -65.5q-118 0 -179.5 65t-61.5 186t62 186t179 65t179 -65.5t62 -185.5zM1078 242q0 63 -14 93.5t-43 30.5t-43 -30t-14 -94t14 -94t43 -30t43 30.5t14 93.5zM1610 241
q0 63 -14 93.5t-43 30.5t-43 -30t-14 -94t14 -94t43 -30t43 30.5t14 93.5z" />
    <glyph glyph-name="guilsinglleft" unicode="&#x2039;" horiz-adv-x="414" 
d="M384 129l-99 -129l-255 204v137l255 204l99 -129l-168 -143z" />
    <glyph glyph-name="guilsinglright" unicode="&#x203a;" horiz-adv-x="414" 
d="M30 416l99 129l255 -204v-137l-255 -204l-99 129l168 143z" />
    <glyph glyph-name="asterism" unicode="&#x2042;" horiz-adv-x="1224" 
d="M743 506l79 -97l-147 -107l-67 105l-69 -105l-147 107l79 96l-121 33l56 173l117 -45l-7 125h182l-7 -125l117 45l56 -173zM433 -20l79 -97l-147 -107l-67 105l-69 -105l-147 107l79 96l-121 33l56 173l117 -45l-7 125h182l-7 -125l117 45l56 -173zM1063 -20l79 -97
l-147 -107l-67 105l-69 -105l-147 107l79 96l-121 33l56 173l117 -45l-7 125h182l-7 -125l117 45l56 -173z" />
    <glyph glyph-name="fraction" unicode="&#x2044;" horiz-adv-x="556" 
d="M526 763l-314 -763h-182l314 763h182z" />
    <glyph glyph-name="zerosuperior" unicode="&#x2070;" horiz-adv-x="584" 
d="M533 518q0 -120 -62 -185.5t-179 -65.5q-118 0 -179.5 65t-61.5 186t62 186t179 65t179 -65.5t62 -185.5zM349 518q0 63 -14 93.5t-43 30.5t-43 -30t-14 -94t14 -94t43 -30t43 30.5t14 93.5z" />
    <glyph glyph-name="i.superior" unicode="&#x2071;" horiz-adv-x="311" 
d="M254 749q0 -37 -29.5 -61.5t-72.5 -24.5q-45 0 -75 24.5t-30 61.5t30 61t75 24q44 0 73 -24t29 -61zM247 623v-350h-183v350h183z" />
    <glyph glyph-name="foursuperior" unicode="&#x2074;" horiz-adv-x="542" 
d="M274 273v100h-237v114l192 276h225v-273h49v-117h-49v-100h-180zM207 492l-1 -2h68v62v33t2 49h-2q-4 -15 -11 -31.5t-25 -50.5z" />
    <glyph glyph-name="fivesuperior" unicode="&#x2075;" horiz-adv-x="489" 
d="M445 442q0 -85 -65.5 -130.5t-187.5 -45.5q-37 0 -70.5 3.5t-64.5 10.5v130q41 -11 77.5 -16.5t69.5 -5.5q31 0 46 11.5t15 36.5q0 24 -20.5 34t-66.5 12q-22 1 -50 0t-62 -3v284h358v-123h-177v-47q95 2 146.5 -37t51.5 -114z" />
    <glyph glyph-name="sixsuperior" unicode="&#x2076;" horiz-adv-x="550" 
d="M503 444q0 -80 -61.5 -129t-163.5 -49q-104 0 -165.5 64.5t-61.5 171.5q0 130 68.5 199t196.5 69q35 0 79.5 -5.5t68.5 -14.5v-136q-32 16 -70 25t-78 9q-45 0 -66.5 -22t-21.5 -70q23 13 53 20.5t61 7.5q73 0 117 -38t44 -102zM323 423q0 25 -9 37t-28 12
q-13 0 -27.5 -6t-25.5 -16q0 -30 13.5 -49.5t37.5 -19.5q16 0 27.5 11.5t11.5 30.5z" />
    <glyph glyph-name="sevensuperior" unicode="&#x2077;" horiz-adv-x="449" 
d="M419 654l-172 -381h-180l163 367v1h-207v122h396v-109z" />
    <glyph glyph-name="eightsuperior" unicode="&#x2078;" horiz-adv-x="549" 
d="M499 426q0 -69 -63 -114t-158 -45q-106 0 -166.5 38t-60.5 103q0 38 17.5 67t52.5 50q-26 23 -37 45.5t-11 50.5q0 70 52.5 109t148.5 39q91 0 146 -37t55 -94q0 -33 -15 -59t-43 -40q41 -20 61.5 -48t20.5 -65zM303 617q0 17 -8.5 26t-25.5 9q-12 0 -18 -6t-6 -17
q0 -14 10 -24t33 -20q11 13 13 19t2 13zM295 454q-9 5 -26 12.5t-23 10.5q-12 -16 -17.5 -28t-5.5 -22q0 -21 15 -32.5t44 -11.5q21 0 33.5 9t12.5 23q0 11 -8 20.5t-25 18.5z" />
    <glyph glyph-name="ninesuperior" unicode="&#x2079;" horiz-adv-x="550" 
d="M322 480q-23 -13 -53 -20.5t-61 -7.5q-72 0 -116.5 38t-44.5 102q0 80 61.5 129t163.5 49q104 0 165.5 -64.5t61.5 -171.5q0 -130 -68.5 -199t-196.5 -69q-35 0 -79.5 5.5t-68.5 14.5v136q32 -16 70 -25t78 -9q45 0 66.5 22t21.5 70zM317 586q0 30 -13.5 49.5t-37.5 19.5
q-16 0 -27.5 -11.5t-11.5 -30.5q0 -25 9 -37t28 -12q13 0 27.5 6t25.5 16z" />
    <glyph glyph-name="n.superior" unicode="&#x207f;" horiz-adv-x="532" 
d="M247 508v-235h-183v350h183v-21l3 -2q20 15 43 22.5t48 7.5q63 0 95 -31.5t32 -94.5v-231h-183v204q0 22 -3 30t-12 8q-4 0 -10 -2t-13 -5z" />
    <glyph glyph-name="zeroinferior" unicode="&#x2080;" horiz-adv-x="584" 
d="M533 21q0 -120 -62 -185.5t-179 -65.5q-118 0 -179.5 65t-61.5 186t62 186t179 65t179 -65.5t62 -185.5zM349 21q0 63 -14 93.5t-43 30.5t-43 -30t-14 -94t14 -94t43 -30t43 30.5t14 93.5z" />
    <glyph glyph-name="oneinferior" unicode="&#x2081;" horiz-adv-x="428" 
d="M401 -102v-122h-362v122h90v197h-85v109q17 0 31.5 3.5t24.5 10.5q15 9 22 21t7 27h181v-368h91z" />
    <glyph glyph-name="twoinferior" unicode="&#x2082;" horiz-adv-x="474" 
d="M423 -102v-122h-379v121q107 90 149.5 136.5t42.5 78.5q0 19 -15.5 28.5t-46.5 9.5q-33 0 -62 -7t-60 -23v128q34 13 80.5 19.5t98.5 6.5q83 0 133.5 -39.5t50.5 -109.5q0 -48 -34 -97t-118 -127l2 -3h158z" />
    <glyph glyph-name="threeinferior" unicode="&#x2083;" horiz-adv-x="475" 
d="M438 -82q0 -73 -61 -110.5t-179 -37.5q-43 0 -79.5 4t-67.5 12v130q48 -12 87 -18t70 -6q27 0 38.5 8.5t11.5 28.5q0 17 -14.5 24.5t-49.5 7.5h-71v121h71q29 0 42.5 8.5t13.5 27.5q0 17 -13 25.5t-40 8.5q-16 0 -34.5 -4t-39.5 -12q-19 -7 -35.5 -15.5t-31.5 -17.5v139
q35 15 83.5 23.5t96.5 8.5q94 0 143 -35.5t49 -101.5q0 -40 -21 -71t-54 -41v-4q37 -5 61 -34t24 -69z" />
    <glyph glyph-name="fourinferior" unicode="&#x2084;" horiz-adv-x="542" 
d="M274 -224v100h-237v114l192 276h225v-273h49v-117h-49v-100h-180zM207 -5l-1 -2h68v62v33t2 49h-2q-4 -15 -11 -31.5t-25 -50.5z" />
    <glyph glyph-name="fiveinferior" unicode="&#x2085;" horiz-adv-x="489" 
d="M445 -55q0 -85 -65.5 -130.5t-187.5 -45.5q-37 0 -70.5 3.5t-64.5 10.5v130q41 -11 77.5 -16.5t69.5 -5.5q31 0 46 11.5t15 36.5q0 24 -20.5 34t-66.5 12q-22 1 -50 0t-62 -3v284h358v-123h-177v-47q95 2 146.5 -37t51.5 -114z" />
    <glyph glyph-name="sixinferior" unicode="&#x2086;" horiz-adv-x="550" 
d="M503 -53q0 -80 -61.5 -129t-163.5 -49q-104 0 -165.5 64.5t-61.5 171.5q0 130 68.5 199t196.5 69q35 0 79.5 -5.5t68.5 -14.5v-136q-32 16 -70 25t-78 9q-45 0 -66.5 -22t-21.5 -70q23 13 53 20.5t61 7.5q73 0 117 -38t44 -102zM323 -74q0 25 -9 37t-28 12
q-13 0 -27.5 -6t-25.5 -16q0 -30 13.5 -49.5t37.5 -19.5q16 0 27.5 11.5t11.5 30.5z" />
    <glyph glyph-name="seveninferior" unicode="&#x2087;" horiz-adv-x="449" 
d="M419 157l-172 -381h-180l163 367v1h-207v122h396v-109z" />
    <glyph glyph-name="eightinferior" unicode="&#x2088;" horiz-adv-x="549" 
d="M499 -71q0 -69 -63 -114t-158 -45q-106 0 -166.5 38t-60.5 103q0 38 17.5 67t52.5 50q-26 23 -37 45.5t-11 50.5q0 70 52.5 109t148.5 39q91 0 146 -37t55 -94q0 -33 -15 -59t-43 -40q41 -20 61.5 -48t20.5 -65zM303 120q0 17 -8.5 26t-25.5 9q-12 0 -18 -6t-6 -17
q0 -14 10 -24t33 -20q11 13 13 19t2 13zM295 -43q-9 5 -26 12.5t-23 10.5q-12 -16 -17.5 -28t-5.5 -22q0 -21 15 -32.5t44 -11.5q21 0 33.5 9t12.5 23q0 11 -8 20.5t-25 18.5z" />
    <glyph glyph-name="nineinferior" unicode="&#x2089;" horiz-adv-x="550" 
d="M322 -17q-23 -13 -53 -20.5t-61 -7.5q-72 0 -116.5 38t-44.5 102q0 80 61.5 129t163.5 49q104 0 165.5 -64.5t61.5 -171.5q0 -130 -68.5 -199t-196.5 -69q-35 0 -79.5 5.5t-68.5 14.5v136q32 -16 70 -25t78 -9q45 0 66.5 22t21.5 70zM317 89q0 30 -13.5 49.5t-37.5 19.5
q-16 0 -27.5 -11.5t-11.5 -30.5q0 -25 9 -37t28 -12q13 0 27.5 6t25.5 16z" />
    <glyph glyph-name="Euro" unicode="&#x20ac;" horiz-adv-x="714" 
d="M674 47q-48 -28 -110 -42.5t-129 -14.5q-125 0 -209 68.5t-114 187.5h-82v101h67q-1 8 -1 16.5v17.5v18t1 17h-67v101h83q31 120 121 188t225 68q60 0 111.5 -11.5t98.5 -34.5v-197q-44 31 -88.5 45t-100.5 14q-51 0 -85.5 -18t-54.5 -54h212v-101h-237q0 -8 -0.5 -16.5
t-0.5 -17.5t0.5 -18t0.5 -17h237v-101h-211q20 -35 53 -53t80 -18q51 0 104 17t96 47v-192z" />
    <glyph glyph-name="litre" unicode="&#x2113;" horiz-adv-x="523" 
d="M463 14q-22 -10 -69 -17t-88 -7q-81 0 -133.5 35.5t-75.5 105.5l-38 -33l-73 103l94 76v226q0 150 58.5 224.5t175.5 74.5q86 0 137.5 -55.5t51.5 -144.5q0 -90 -55.5 -174.5t-166.5 -166.5q3 -59 21 -80t63 -21q22 0 47 4.5t51 12.5v-163zM280 546v-128q32 34 46.5 74.5
t14.5 94.5q0 39 -7 56.5t-23 17.5q-18 0 -24.5 -25t-6.5 -90z" />
    <glyph glyph-name="Ndblstruck" unicode="&#x2115;" horiz-adv-x="807" 
d="M596 763h121v-763h-155l-294 298q-12 14 -26.5 32t-30.5 39h-3q2 -23 2.5 -42t0.5 -34v-293h-121v763h155l294 -298q13 -13 27 -31t30 -40h3q-1 24 -2 43t-1 33v293zM599 121h4q-3 22 -5 49t-2 62l-362 373q-7 7 -12 13t-15 27h-4q4 -23 6 -50t2 -64l362 -373
q10 -10 15.5 -17.5t10.5 -19.5z" />
    <glyph glyph-name="numero" unicode="&#x2116;" horiz-adv-x="1247" 
d="M1187 617q0 -84 -51.5 -132.5t-141.5 -48.5t-141 48.5t-51 132.5t51 133t141 49t141.5 -49t51.5 -133zM288 295v-295h-208v763h200l179 -291q20 -31 36.5 -62t29.5 -61l4 1q-2 31 -3.5 61t-1.5 60v292h208v-763h-200l-179 294q-19 32 -36 63t-31 60l-4 -1
q3 -30 4.5 -60.5t1.5 -60.5zM1044 617q0 42 -12.5 62.5t-37.5 20.5t-37 -20t-12 -63t12 -63t37 -20t37.5 20.5t12.5 62.5zM1174 392v-118h-360v118h360z" />
    <glyph glyph-name="soundcopyright" unicode="&#x2117;" horiz-adv-x="858" 
d="M429 773q165 0 272 -111t107 -281t-107 -280.5t-272 -110.5t-272 110.5t-107 280.5t107 281t272 111zM429 676q-123 0 -203 -83.5t-80 -211.5t80 -211.5t203 -83.5t203 83.5t80 211.5t-80 211.5t-203 83.5zM431 272v-114h-161v433h187q92 0 144 -39.5t52 -112.5
q0 -80 -53.5 -123.5t-149.5 -43.5h-19zM461 472h-30v-80h30q14 0 24.5 11.5t10.5 28.5q0 19 -9.5 29.5t-25.5 10.5z" />
    <glyph glyph-name="Rdblstruck" unicode="&#x211d;" horiz-adv-x="898" 
d="M211 654v-654h-121v763h412q147 0 228 -61t81 -172q0 -62 -30.5 -116.5t-79.5 -83.5l167 -330h-141l-140 301q-10 -3 -23 -4t-43 -1l129 -296h-131l-114 292h-13v-292h-111v654h-70zM700 524q0 64 -36.5 102.5t-96.5 38.5q28 -23 45.5 -59.5t17.5 -75.5q0 -47 -20.5 -85
t-56.5 -58q66 2 106.5 39t40.5 98zM519 527q0 67 -34.5 103t-92.5 34v-275q63 2 95 37t32 101z" />
    <glyph glyph-name="trademark" unicode="&#x2122;" horiz-adv-x="1179" 
d="M311 619v-346h-182v346h-129v144h440v-144h-129zM647 342l6 -69h-185l42 490h179l72 -202q12 -33 19.5 -56.5t9.5 -39.5h4q1 14 7 37t20 60l71 201h177l45 -490h-186l3 69q2 36 4 69.5t4 64.5h-5q-11 -30 -22 -63.5t-23 -72.5l-21 -67h-156l-22 69q-12 37 -23.5 70.5
t-21.5 63.5h-5q1 -32 3 -65.5t4 -68.5z" />
    <glyph glyph-name="Zdblstruck" unicode="&#x2124;" horiz-adv-x="735" 
d="M70 654v109h595v-104l-249 -547l3 -3h256v-109h-615v105l249 546l-3 3h-236zM202 109h75l249 542l-3 3h-75l-249 -542z" />
    <glyph glyph-name="estimated" unicode="&#x212e;" horiz-adv-x="771" 
d="M667 203h6v-77q-45 -65 -116 -100.5t-155 -35.5q-146 0 -244 95t-98 241q0 140 91.5 232t234.5 92t234 -95t91 -239q0 -11 -0.5 -21t-2.5 -21h-522v-133q38 -46 95 -71t122 -25q82 0 155.5 44.5t108.5 113.5zM577 519q-37 38 -85.5 57.5t-105.5 19.5q-61 0 -112.5 -22.5
t-87.5 -64.5v-183h391v193z" />
    <glyph glyph-name="arrowleft" unicode="&#x2190;" horiz-adv-x="1022" 
d="M971 222h-623v-130l-347 180v1l347 180v-130h623v-101z" />
    <glyph glyph-name="arrowup" unicode="&#x2191;" horiz-adv-x="363" 
d="M131 -213v623h-130l180 347h1l180 -347h-130v-623h-101z" />
    <glyph glyph-name="arrowright" unicode="&#x2192;" horiz-adv-x="1022" 
d="M51 323h623v130l347 -180v-1l-347 -180v130h-623v101z" />
    <glyph glyph-name="arrowdown" unicode="&#x2193;" horiz-adv-x="363" 
d="M232 757v-623h130l-180 -347h-1l-180 347h130v623h101z" />
    <glyph glyph-name="arrowleftfrombar" unicode="&#x21a4;" horiz-adv-x="1022" 
d="M328 456l-143 -133h685v130h101v-361h-101v130h-684l142 -133l-72 -72l-255 255v1l255 255z" />
    <glyph glyph-name="arrowupfrombar" unicode="&#x21a5;" horiz-adv-x="513" 
d="M425 430l-133 143v-685h130v-101h-361v101h130v684l-133 -142l-72 72l255 255h1l255 -255z" />
    <glyph glyph-name="arrowrightfrombar" unicode="&#x21a6;" horiz-adv-x="1022" 
d="M694 89l143 133h-685v-130h-101v361h101v-130h684l-142 133l72 72l255 -255v-1l-255 -255z" />
    <glyph glyph-name="arrowdownfrombar" unicode="&#x21a7;" horiz-adv-x="513" 
d="M73 114l133 -143v685h-130v101h361v-101h-130v-684l133 142l72 -72l-255 -255h-1l-255 255z" />
    <glyph glyph-name="dblarrowleftstroke" unicode="&#x21cd;" horiz-adv-x="1122" 
d="M520 -144l124 265h-348l133 -133l-72 -72l-356 356v1l356 356l72 -72l-133 -133h489l144 308l92 -43l-124 -265h174v-101h-221l-47 -101h268v-101h-315l-144 -308zM194 323l-50 -50v-1l50 -50h497l47 101h-544z" />
    <glyph glyph-name="dblarrowleftrightstroke" unicode="&#x21ce;" horiz-adv-x="1441" 
d="M471 -144l124 265h-299l133 -133l-72 -72l-356 356v1l356 356l72 -72l-133 -133h440l144 308l92 -43l-124 -265h297l-133 133l72 72l356 -356v-1l-356 -356l-72 72l133 133h-438l-144 -308zM194 323l-50 -50v-1l50 -50h448l47 101h-495zM1247 222l50 50v1l-50 50h-446
l-47 -101h493z" />
    <glyph glyph-name="dblarrowrightstroke" unicode="&#x21cf;" horiz-adv-x="1122" 
d="M101 -144l124 265h-174v101h221l47 101h-268v101h315l144 308l92 -43l-124 -265h348l-133 133l72 72l356 -356v-1l-356 -356l-72 72l133 133h-489l-144 -308zM928 222l50 50v1l-50 50h-497l-47 -101h544z" />
    <glyph glyph-name="arrowdblleft" unicode="&#x21d0;" horiz-adv-x="1122" 
d="M429 557l-133 -133h775v-101h-877l-50 -50v-1l50 -50h877v-101h-775l133 -133l-72 -72l-356 356v1l356 356z" />
    <glyph glyph-name="arrowdblright" unicode="&#x21d2;" horiz-adv-x="1122" 
d="M693 -12l133 133h-775v101h877l50 50v1l-50 50h-877v101h775l-133 133l72 72l356 -356v-1l-356 -356z" />
    <glyph glyph-name="arrowdblboth" unicode="&#x21d4;" horiz-adv-x="1441" 
d="M429 557l-133 -133h849l-133 133l72 72l356 -356v-1l-356 -356l-72 72l133 133h-849l133 -133l-72 -72l-356 356v1l356 356zM1247 222l50 50v1l-50 50h-1053l-50 -50v-1l50 -50h1053z" />
    <glyph glyph-name="partialdiff" unicode="&#x2202;" horiz-adv-x="641" 
d="M601 306q0 -146 -74 -231.5t-203 -85.5q-137 0 -210.5 74.5t-73.5 209.5q0 124 70.5 201t190.5 82q-38 34 -89.5 65.5t-115.5 60.5l116 130q183 -82 286 -215t103 -291zM243 272q0 -68 19 -99.5t58 -31.5q40 0 59.5 32t19.5 99t-19.5 99.5t-59.5 32.5q-39 0 -58 -32
t-19 -100z" />
    <glyph glyph-name="emptyset" unicode="&#x2205;" horiz-adv-x="867" 
d="M433 -13q-56 0 -105.5 11.5t-90.5 32.5l-38 -51l-78 60l35 47q-55 52 -85.5 127.5t-30.5 166.5q0 175 107.5 285t285.5 110q56 0 105.5 -11.5t91.5 -32.5l38 51l78 -60l-35 -48q55 -52 85.5 -127.5t30.5 -166.5q0 -175 -107.5 -284.5t-286.5 -109.5zM259 381
q0 -34 7 -63.5t20 -52.5l222 301q-16 8 -35 12t-40 4q-79 0 -126.5 -56t-47.5 -145zM607 381q0 33 -7 62.5t-20 53.5l-221 -300q16 -8 34.5 -12t39.5 -4q79 0 126.5 55.5t47.5 144.5z" />
    <glyph glyph-name="Delta" unicode="&#x2206;" horiz-adv-x="804" 
d="M25 0v12l368 751h12l374 -751v-12h-754zM525 161l-125 273l-121 -273h246z" />
    <glyph glyph-name="element" unicode="&#x2208;" horiz-adv-x="794" 
d="M734 235v-155h-283q-202 0 -296.5 76t-94.5 235t94.5 235t296.5 76h283v-155h-274q-85 0 -138 -18.5t-76 -56.5h443v-160h-444q23 -40 76 -58.5t139 -18.5h274z" />
    <glyph glyph-name="notelement" unicode="&#x2209;" horiz-adv-x="794" 
d="M451 80q-15 0 -29.5 0.5t-28.5 1.5l-34 -82h-112l40 96q-117 27 -172 100t-55 195q0 159 94.5 235t296.5 76h85l25 61h112l-25 -61h86v-155h-150l-31 -75h136v-160h-202l-31 -77h2h2h274v-155h-283zM460 547q-85 0 -138 -18.5t-76 -56.5h195l31 75h-12zM245 312
q14 -25 39.5 -41.5t63.5 -24.5l27 66h-130z" />
    <glyph glyph-name="suchthat" unicode="&#x220b;" horiz-adv-x="794" 
d="M734 391q0 -159 -94.5 -235t-296.5 -76h-283v155h274q86 0 139 18.5t76 58.5h-444v160h443q-23 38 -76 56.5t-138 18.5h-274v155h283q202 0 296.5 -76t94.5 -235z" />
    <glyph glyph-name="notcontains" unicode="&#x220c;" horiz-adv-x="794" 
d="M343 81h-91l-33 -81h-112l33 81h-80v160h146l29 71h-130v160h196l29 71h-270v160h283q14 0 27 -0.5t26 -0.5l25 61h112l-31 -75q119 -26 175.5 -99.5t56.5 -196.5q0 -159 -94.5 -235t-296.5 -76zM413 472h143q-15 25 -44.5 40.5t-71.5 23.5zM344 241q84 0 136.5 17.5
t75.5 53.5h-209l-29 -71h26z" />
    <glyph glyph-name="product" unicode="&#x220f;" horiz-adv-x="850" 
d="M520 -78v711h-190v-711h-200v711h-80v160h750v-160h-80v-711h-200z" />
    <glyph glyph-name="summation" unicode="&#x2211;" horiz-adv-x="604" 
d="M564 602h-299l240 -255l-240 -264h299v-161h-524v136l260 289l-260 280v136h524v-161z" />
    <glyph glyph-name="minus" unicode="&#x2212;" horiz-adv-x="742" 
d="M652 352v-160h-562v160h562z" />
    <glyph glyph-name="bulletoperator" unicode="&#x2219;" horiz-adv-x="324" 
d="M284 309q0 -50 -35 -83.5t-86 -33.5q-53 0 -88 33.5t-35 83.5t35.5 83t87.5 33q51 0 86 -33t35 -83z" />
    <glyph glyph-name="radical" unicode="&#x221a;" horiz-adv-x="677" 
d="M20 232v160h262l23 -93q9 -36 14 -61.5t6 -39.5h3q1 14 6 39.5t14 61.5l114 464h215l-261 -763h-180l-88 232h-128z" />
    <glyph glyph-name="infinity" unicode="&#x221e;" horiz-adv-x="1023" 
d="M732 545q110 0 180.5 -74.5t70.5 -192.5q0 -125 -70 -201.5t-181 -76.5q-75 0 -133.5 32.5t-97.5 95.5q-29 -57 -85.5 -92.5t-124.5 -35.5q-110 0 -180.5 74.5t-70.5 192.5q0 125 70.5 201.5t181.5 76.5q75 0 133 -32.5t97 -95.5q29 57 85.5 92.5t124.5 35.5zM200 274
q0 -51 28 -82t72 -31q42 0 75 21.5t51 60.5q-33 82 -62.5 111.5t-70.5 29.5q-40 0 -66.5 -30.5t-26.5 -79.5zM823 271q0 52 -28 82.5t-73 30.5q-42 0 -74.5 -21.5t-50.5 -60.5q35 -83 64 -112t69 -29t66.5 30.5t26.5 79.5z" />
    <glyph glyph-name="intersection" unicode="&#x2229;" horiz-adv-x="782" 
d="M80 283q0 202 76 296.5t235 94.5t235 -94.5t76 -296.5v-283h-160v284q0 121 -36.5 177t-114.5 56t-114.5 -56t-36.5 -177v-284h-160v283z" />
    <glyph glyph-name="union" unicode="&#x222a;" horiz-adv-x="782" 
d="M702 380q0 -202 -76 -296.5t-235 -94.5t-235 94.5t-76 296.5v283h160v-284q0 -121 36.5 -177t114.5 -56t114.5 56t36.5 177v284h160v-283z" />
    <glyph glyph-name="integral" unicode="&#x222b;" horiz-adv-x="485" 
d="M399 637q-43 0 -61.5 -20.5t-18.5 -71.5l-3 -524q-1 -124 -66 -190t-188 -66q-33 0 -69 5t-73 15v162q32 -10 59 -14t57 -4q43 0 61.5 20.5t18.5 71.5l3 524q1 124 66 190t188 66q33 0 69 -5t73 -15v-162q-32 10 -59 14t-57 4z" />
    <glyph glyph-name="approxequal" unicode="&#x2248;" horiz-adv-x="791" 
d="M425 533q35 -21 50 -27t27 -6q26 0 37.5 21t11.5 74h147q15 -126 -32 -205t-138 -79q-35 0 -70 11.5t-93 46.5q-34 21 -49 27t-26 6q-27 0 -38 -20.5t-11 -74.5h-147q-14 126 32.5 205t136.5 79q35 0 70 -11.5t92 -46.5zM425 226q35 -21 50 -27t27 -6q26 0 37.5 21
t11.5 74h147q15 -126 -32 -205t-138 -79q-35 0 -70 11.5t-93 46.5q-34 21 -49 27t-26 6q-27 0 -38 -20.5t-11 -74.5h-147q-14 126 32.5 205t136.5 79q35 0 70 -11.5t92 -46.5z" />
    <glyph glyph-name="notequal" unicode="&#x2260;" horiz-adv-x="724" 
d="M652 52h-324l-38 -92h-112l38 92h-126v160h192l49 120h-241v160h307l38 93h112l-38 -93h143v-160h-209l-49 -120h258v-160z" />
    <glyph glyph-name="lessequal" unicode="&#x2264;" horiz-adv-x="742" 
d="M612 201l-512 143v179l512 142l38 -140l-348 -92l348 -91zM652 160v-160h-562v160h562z" />
    <glyph glyph-name="greaterequal" unicode="&#x2265;" horiz-adv-x="742" 
d="M130 665l512 -142v-179l-512 -143l-38 141l348 91l-348 92zM90 0v160h562v-160h-562z" />
    <glyph glyph-name="propersubset" unicode="&#x2282;" horiz-adv-x="794" 
d="M451 80q-202 0 -296.5 76t-94.5 235t94.5 235t296.5 76h283v-155h-274q-121 0 -177 -37.5t-56 -118.5t56 -118.5t177 -37.5h274v-155h-283z" />
    <glyph glyph-name="propersuperset" unicode="&#x2283;" horiz-adv-x="794" 
d="M343 702q202 0 296.5 -76t94.5 -235t-94.5 -235t-296.5 -76h-283v155h274q121 0 177 37.5t56 118.5t-56 118.5t-177 37.5h-274v155h283z" />
    <glyph glyph-name="intersectionarray" unicode="&#x22c2;" horiz-adv-x="782" 
d="M80 283q0 202 76 296.5t235 94.5t235 -94.5t76 -296.5v-283h-160v284q0 121 -36.5 177t-114.5 56t-114.5 -56t-36.5 -177v-284h-160v283z" />
    <glyph glyph-name="unionarray" unicode="&#x22c3;" horiz-adv-x="782" 
d="M702 380q0 -202 -76 -296.5t-235 -94.5t-235 94.5t-76 296.5v283h160v-284q0 -121 36.5 -177t114.5 -56t114.5 56t36.5 177v284h160v-283z" />
    <glyph glyph-name="triangleupblack" unicode="&#x25b2;" horiz-adv-x="480" 
d="M240 450l200 -354h-400z" />
    <glyph glyph-name="trianglerightblack" unicode="&#x25b6;" horiz-adv-x="468" 
d="M80 477l348 -204l-348 -203v407z" />
    <glyph glyph-name="triangledownblack" unicode="&#x25bc;" horiz-adv-x="480" 
d="M240 96l-200 354h400z" />
    <glyph glyph-name="triangleleftblack" unicode="&#x25c0;" horiz-adv-x="468" 
d="M388 70l-348 204l348 203v-407z" />
    <glyph glyph-name="lozenge" unicode="&#x25ca;" horiz-adv-x="629" 
d="M609 382v-2l-292 -391h-4l-293 391v2l293 392h4zM315 259l85 122l-85 122l-86 -122z" />
    <glyph glyph-name="circlewhite" unicode="&#x25cb;" horiz-adv-x="454" 
d="M404 273q0 -73 -51.5 -125t-125.5 -52q-73 0 -125 52t-52 125q0 74 52 125.5t125 51.5q74 0 125.5 -51.5t51.5 -125.5zM314 273q0 36 -25.5 61.5t-61.5 25.5t-61.5 -25.5t-25.5 -61.5t25.5 -61.5t61.5 -25.5t61.5 25.5t25.5 61.5z" />
    <glyph glyph-name="circleblack" unicode="&#x25cf;" horiz-adv-x="454" 
d="M404 273q0 -73 -51.5 -125t-125.5 -52q-73 0 -125 52t-52 125q0 74 52 125.5t125 51.5q74 0 125.5 -51.5t51.5 -125.5z" />
    <glyph glyph-name="largecircle" unicode="&#x25ef;" horiz-adv-x="646" 
d="M40 273q0 126 78.5 204.5t204.5 78.5q124 0 203.5 -79t79.5 -204t-79.5 -204t-203.5 -79q-126 0 -204.5 78.5t-78.5 204.5zM412 273q0 41 -24.5 66t-64.5 25t-64.5 -25t-24.5 -66q0 -40 24.5 -65t64.5 -25t64.5 25t24.5 65z" />
    <glyph glyph-name="squaremediumwhite" unicode="&#x25fb;" horiz-adv-x="474" 
d="M414 450v-354h-354v354h354zM324 360h-174v-174h174v174z" />
    <glyph glyph-name="squaremediumblack" unicode="&#x25fc;" horiz-adv-x="474" 
d="M414 450v-354h-354v354h354z" />
    <glyph glyph-name="checkbox" unicode="&#x2610;" horiz-adv-x="723" 
d="M80 545h563v-545h-563v545zM533 449h-343v-353h343v353z" />
    <glyph glyph-name="checkboxchekced" unicode="&#x2611;" horiz-adv-x="723" 
d="M712 533l-69 -77v-456h-563v545h539l38 42zM190 96h343v237l-163 -182l-144 180l58 50l88 -111l161 179h-343v-353z" />
    <glyph glyph-name="checkboxx" unicode="&#x2612;" horiz-adv-x="723" 
d="M80 545h563v-545h-563v545zM239 449l122 -122l122 122h-244zM416 273l117 -118v235zM190 389v-233l117 117zM239 96h244l-122 122z" />
    <glyph glyph-name="parendblleft" unicode="&#x2e28;" horiz-adv-x="702" 
d="M260 284q0 -137 31.5 -250.5t91.5 -193.5l-145 -95q-86 101 -132 240.5t-46 297.5q0 157 46 296.5t132 243.5l145 -95q-60 -79 -91.5 -192.5t-31.5 -251.5zM569 284q0 -137 31.5 -250.5t91.5 -193.5l-145 -95q-86 101 -132 240.5t-46 297.5q0 157 46 296.5t132 243.5
l145 -95q-60 -79 -91.5 -192.5t-31.5 -251.5z" />
    <glyph glyph-name="parendblright" unicode="&#x2e29;" horiz-adv-x="702" 
d="M133 283q0 137 -31.5 250.5t-91.5 193.5l145 95q86 -101 132 -240.5t46 -297.5q0 -157 -46 -296.5t-132 -243.5l-145 95q60 79 91.5 192.5t31.5 251.5zM442 283q0 137 -31.5 250.5t-91.5 193.5l145 95q86 -101 132 -240.5t46 -297.5q0 -157 -46 -296.5t-132 -243.5
l-145 95q60 79 91.5 192.5t31.5 251.5z" />
    <glyph glyph-name="whitesquarebracketleft" unicode="&#x301a;" horiz-adv-x="688" 
d="M60 -224v1015h618v-156h-109v-703h109v-156h-618zM369 -68v703h-109v-703h109z" />
    <glyph glyph-name="whitesquarebracketright" unicode="&#x301b;" horiz-adv-x="688" 
d="M10 635v156h618v-1015h-618v156h109v703h-109zM319 635v-703h109v703h-109z" />
    <glyph glyph-name="beta" unicode="&#xa7b5;" horiz-adv-x="646" 
d="M233 31l41 -255h-194v766q0 125 70 192.5t196 67.5q110 0 175 -57.5t65 -153.5q0 -63 -23.5 -109t-73.5 -80q58 -26 87.5 -74.5t29.5 -117.5q0 -96 -63 -158t-160 -62q-41 0 -81.5 11t-68.5 30zM339 602q-57 1 -81 -20.5t-24 -71.5v-299q24 -13 52.5 -19.5t59.5 -6.5
q53 0 78.5 17t25.5 51q0 32 -21 48.5t-63 16.5q-22 -4 -38.5 -5.5t-36.5 -1.5v171q16 0 34.5 -1.5t40.5 -3.5q27 0 45.5 18t18.5 44q0 33 -20 47.5t-71 15.5z" />
    <glyph glyph-name="A.small" unicode="&#xe000;" horiz-adv-x="636" 
d="M249 81l-19 -81h-210l195 545h205l196 -545h-210l-19 81h-138zM315 389q0 -13 -7.5 -50.5t-16.5 -65.5l-14 -45h82l-13 44q-9 29 -16.5 67t-7.5 50h-7z" />
    <glyph glyph-name="B.small" unicode="&#xe00d;" horiz-adv-x="610" 
d="M353 545q87 0 134.5 -37t47.5 -104q0 -45 -25 -76.5t-72 -44.5v-1q57 -9 89.5 -44t32.5 -86q0 -72 -61 -112t-176 -40h-243v545h273zM274 340h35q18 0 26.5 7.5t8.5 23.5t-9 23.5t-28 7.5h-33v-62zM274 143h57q16 0 26 8.5t10 22.5q0 16 -9.5 24.5t-28.5 8.5h-55v-64z
" />
    <glyph glyph-name="C.small" unicode="&#xe00e;" horiz-adv-x="544" 
d="M254 273q0 -57 21.5 -81.5t74.5 -24.5q39 0 80 12.5t74 33.5v-178q-39 -21 -87.5 -31.5t-105.5 -10.5q-123 0 -192 75t-69 204q0 131 74.5 205.5t210.5 74.5q48 0 87.5 -7t77.5 -23v-185q-32 22 -65 32t-80 10q-57 0 -79 -23t-22 -83z" />
    <glyph glyph-name="D.small" unicode="&#xe014;" horiz-adv-x="641" 
d="M601 272q0 -128 -81.5 -200t-231.5 -72h-208v545h209q153 0 232.5 -70t79.5 -203zM284 160h4q55 0 81.5 27.5t26.5 85.5t-27 84.5t-85 27.5v-225z" />
    <glyph glyph-name="E.small" unicode="&#xe017;" horiz-adv-x="557" 
d="M496 147v-147h-416v545h407v-147h-203v-51h186v-147h-186v-53h212z" />
    <glyph glyph-name="F.small" unicode="&#xe027;" horiz-adv-x="538" 
d="M80 545h408v-147h-204v-51h187v-147h-187v-200h-204v545z" />
    <glyph glyph-name="G.small" unicode="&#xe028;" horiz-adv-x="642" 
d="M562 42q-78 -30 -123.5 -39.5t-98.5 -9.5q-138 0 -219 74t-81 205q0 133 86.5 206.5t240.5 73.5q58 0 103 -4t91 -14v-179q-44 20 -87 29.5t-90 9.5q-75 0 -107 -28t-32 -93q0 -66 23 -94t78 -28h11v146h205v-255z" />
    <glyph glyph-name="H.small" unicode="&#xe02d;" horiz-adv-x="678" 
d="M284 193v-193h-204v545h204v-192h110v192h204v-545h-204v193h-110z" />
    <glyph glyph-name="I.small" unicode="&#xe030;" horiz-adv-x="490" 
d="M430 147v-147h-370v147h83v251h-83v147h370v-147h-82v-251h82z" />
    <glyph glyph-name="J.small" unicode="&#xe03b;" horiz-adv-x="517" 
d="M447 217q0 -109 -58 -166.5t-168 -57.5q-47 0 -97.5 8t-73.5 20v186q33 -17 66 -26.5t58 -9.5q5 0 22.5 -1t24.5 1q11 3 16 12t5 26v189h-175v147h380v-328z" />
    <glyph glyph-name="K.small" unicode="&#xe03d;" horiz-adv-x="626" 
d="M285 181v-181h-205v545h205v-185q24 0 33 8.5t19 33.5q4 11 10 28t15 43q4 13 9 29.5t13 42.5h235l-92 -178q-19 -37 -34.5 -56.5t-31.5 -27.5v-4q14 -9 29 -30t38 -65l98 -184h-235q-17 43 -25.5 65.5t-14.5 37.5q-20 48 -31 63t-35 15z" />
    <glyph glyph-name="L.small" unicode="&#xe03f;" horiz-adv-x="526" 
d="M496 160v-160h-416v545h204v-385h212z" />
    <glyph glyph-name="M.small" unicode="&#xe045;" horiz-adv-x="848" 
d="M264 77l6 -77h-205l46 545h199l81 -225q13 -36 21 -62.5t11 -43.5h4q1 15 8 40.5t22 66.5l79 224h197l50 -545h-207l4 77q2 40 4 77t4 72h-5q-12 -33 -24.5 -70.5t-25.5 -80.5l-23 -75h-174l-25 77q-13 41 -25.5 78.5t-24.5 70.5h-5q1 -36 3 -73t5 -76z" />
    <glyph glyph-name="N.small" unicode="&#xe046;" horiz-adv-x="678" 
d="M273 154v-154h-193v545h183l90 -146q18 -28 31 -51t22 -41l3 1q-1 18 -2 40t-1 47v150h192v-545h-183l-90 150q-15 26 -28.5 49t-25.5 43l-3 -2q3 -21 4 -42.5t1 -43.5z" />
    <glyph glyph-name="O.small" unicode="&#xe04b;" horiz-adv-x="667" 
d="M627 272q0 -130 -77.5 -204.5t-216.5 -74.5t-216 74t-77 205q0 132 77 206t216 74t216.5 -74.5t77.5 -205.5zM423 272q0 61 -22 90.5t-68 29.5t-67.5 -29t-21.5 -91t21.5 -90.5t67.5 -28.5t68 29t22 90z" />
    <glyph glyph-name="P.small" unicode="&#xe057;" horiz-adv-x="593" 
d="M283 144v-144h-203v545h236q116 0 181.5 -50t65.5 -142q0 -100 -67.5 -154.5t-188.5 -54.5h-24zM321 395h-38v-101h38q17 0 30.5 14.5t13.5 36.5q0 24 -12 37t-32 13z" />
    <glyph glyph-name="Q.small" unicode="&#xe058;" horiz-adv-x="659" 
d="M650 26l-116 -106l-72 94q-28 -11 -60.5 -16t-68.5 -5q-139 0 -216 74t-77 205q0 132 77 206t216 74t216.5 -74.5t77.5 -205.5q0 -55 -14 -100.5t-41 -79.5zM423 272q0 61 -22 90.5t-68 29.5t-67.5 -29t-21.5 -91t21.5 -90.5t67.5 -28.5t68 29t22 90z" />
    <glyph glyph-name="R.small" unicode="&#xe059;" horiz-adv-x="613" 
d="M283 157v-157h-203v545h233q123 0 186.5 -46t63.5 -137q0 -51 -21 -92t-60 -63l111 -207h-225l-50 159q-8 -1 -16.5 -1.5t-14.5 -0.5h-4zM318 395h-35v-89h35q21 0 34 12t13 32q0 21 -12.5 33t-34.5 12z" />
    <glyph glyph-name="S.small" unicode="&#xe05d;" horiz-adv-x="549" 
d="M499 180q0 -94 -65.5 -140.5t-196.5 -46.5q-55 0 -99 6t-87 19v169q38 -21 82.5 -31.5t105.5 -10.5q28 0 41 4t13 14q0 8 -10.5 14.5t-49.5 16.5q-54 15 -81.5 28t-46.5 29q-28 23 -41.5 54t-13.5 71q0 85 64.5 130.5t185.5 45.5q48 0 95 -9.5t81 -26.5v-178
q-34 28 -82.5 44t-97.5 16q-23 0 -34.5 -2.5t-11.5 -7.5q0 -11 13.5 -20.5t62.5 -25.5q102 -35 137.5 -72t35.5 -90z" />
    <glyph glyph-name="T.small" unicode="&#xe065;" horiz-adv-x="489" 
d="M346 385v-385h-203v385h-143v160h489v-160h-143z" />
    <glyph glyph-name="U.small" unicode="&#xe06a;" horiz-adv-x="678" 
d="M598 268q0 -158 -54.5 -216.5t-204.5 -58.5q-147 0 -203 60t-56 215v277h204v-290q0 -51 13.5 -69.5t42.5 -18.5q28 0 41 18.5t13 69.5v290h204v-277z" />
    <glyph glyph-name="V.small" unicode="&#xe075;" horiz-adv-x="636" 
d="M616 545l-198 -545h-200l-198 545h210l87 -332h4l85 332h210z" />
    <glyph glyph-name="W.small" unicode="&#xe076;" horiz-adv-x="856" 
d="M425 261l-80 -261h-193l-112 545h205l12 -120q3 -24 4.5 -65.5t1.5 -83.5h5q14 58 23.5 95.5t14.5 53.5l38 120h169l38 -120q15 -49 24.5 -82t17.5 -67h5q0 60 1 97t2 51l12 121h203l-109 -545h-194l-84 261h-4z" />
    <glyph glyph-name="X.small" unicode="&#xe07b;" horiz-adv-x="618" 
d="M302 121l-74 -121h-218l188 294l-178 251h219l75 -111h4l70 111h218l-190 -277l192 -268h-218l-86 121h-2z" />
    <glyph glyph-name="Y.small" unicode="&#xe07c;" horiz-adv-x="589" 
d="M397 164v-164h-203v164l-204 381h228l47 -119q7 -18 12.5 -34t14.5 -51h6q8 31 13.5 48t13.5 37l45 119h229z" />
    <glyph glyph-name="Z.small" unicode="&#xe081;" horiz-adv-x="539" 
d="M489 160v-160h-439v141l197 242l-1 2h-188v160h424v-154l-198 -229l1 -2h204z" />
    <glyph glyph-name="ring.cap" unicode="&#xe0ff;" horiz-adv-x="454" 
d="M227 1079q88 0 143.5 -39.5t55.5 -99.5t-55.5 -99.5t-143.5 -39.5t-143.5 39.5t-55.5 99.5t55.5 99.5t143.5 39.5zM227 989q-36 0 -57.5 -13t-21.5 -36t21.5 -36t57.5 -13t57.5 13t21.5 36t-21.5 36t-57.5 13z" />
    <glyph glyph-name="commaaccent" unicode="&#xf6c3;" horiz-adv-x="500" 
d="M418 -164l-200 -157l-86 85l148 186z" />
    <glyph glyph-name="commainferior" unicode="&#xf6e1;" horiz-adv-x="285" 
d="M262 -172l-141 -216l-109 57l101 218z" />
    <glyph glyph-name="commasuperior" unicode="&#xf6e2;" horiz-adv-x="285" 
d="M262 259l-141 -216l-109 57l101 218z" />
    <glyph glyph-name=".null" horiz-adv-x="0" 
 />
    <glyph glyph-name="germandbls.cap" horiz-adv-x="1240" 
d="M594 234q0 -120 -81 -182t-238 -62q-63 0 -117 9t-108 28v186q49 -28 108 -43t120 -15q48 0 72 15t24 45q0 21 -19.5 38.5t-88.5 45.5q-66 28 -97.5 46.5t-54.5 40.5q-32 31 -48 70.5t-16 88.5q0 108 79 168t221 60q58 0 114 -11.5t97 -32.5v-196q-39 33 -97 52.5
t-117 19.5q-42 0 -62 -11.5t-20 -35.5q0 -23 21.5 -42.5t95.5 -51.5q63 -27 93.5 -44.5t52.5 -36.5q33 -30 49.5 -67t16.5 -82zM1190 234q0 -120 -81 -182t-238 -62q-63 0 -117 9t-108 28v186q49 -28 108 -43t120 -15q48 0 72 15t24 45q0 21 -19.5 38.5t-88.5 45.5
q-66 28 -97.5 46.5t-54.5 40.5q-32 31 -48 70.5t-16 88.5q0 108 79 168t221 60q58 0 114 -11.5t97 -32.5v-196q-39 33 -97 52.5t-117 19.5q-42 0 -62 -11.5t-20 -35.5q0 -23 21.5 -42.5t95.5 -51.5q63 -27 93.5 -44.5t52.5 -36.5q33 -30 49.5 -67t16.5 -82z" />
    <glyph glyph-name="uni021A" horiz-adv-x="608" 
d="M412 589v-589h-216v589h-196v174h608v-174h-196zM428 -164l-200 -157l-86 85l148 186z" />
    <glyph glyph-name="idotaccent" horiz-adv-x="360" 
d="M300 744q0 -50 -34.5 -83.5t-84.5 -33.5q-52 0 -86.5 33.5t-34.5 83.5t34.5 83t86.5 33q51 0 85 -33t34 -83zM280 545v-545h-200v545h200z" />
    <glyph glyph-name="schwa" horiz-adv-x="585" 
d="M63 525q45 16 91.5 24t96.5 8q135 0 214.5 -78t79.5 -213q0 -125 -73.5 -200.5t-198.5 -75.5q-111 0 -172 59.5t-61 166.5q0 28 4 56t11 51h301q-9 44 -38.5 63.5t-87.5 19.5q-34 0 -69 -6t-98 -26v151zM203 187q0 -35 19.5 -54.5t54.5 -19.5q39 0 60.5 25t22.5 73h-155
q-1 -2 -1.5 -6.5t-0.5 -17.5z" />
    <glyph glyph-name="a.superior" horiz-adv-x="470" 
d="M249 308q-29 -26 -49.5 -34t-47.5 -8q-51 0 -79.5 29.5t-28.5 80.5q0 56 41.5 82.5t129.5 26.5h30q1 3 0.5 6t-0.5 4q0 9 -15 13.5t-44 4.5q-32 0 -56 -3t-50 -11v118q30 6 61.5 9t65.5 3q112 0 158.5 -41t46.5 -134v-181h-144l-15 35h-4zM234 416q-19 0 -28 -5.5
t-9 -18.5q0 -11 6.5 -17.5t15.5 -6.5t17.5 5.5t11.5 12.5v30h-14z" />
    <glyph glyph-name="b.superior" horiz-adv-x="516" 
d="M479 464q0 -89 -60 -143t-160 -54q-37 0 -85.5 10t-109.5 29v475h182v-187l1 -1q21 19 46 28t57 9q57 0 93 -45.5t36 -120.5zM246 388q3 -2 7.5 -3.5t8.5 -1.5q18 0 26.5 16t8.5 51q0 34 -8 48.5t-26 14.5q-6 0 -10.5 -2t-6.5 -6v-117z" />
    <glyph glyph-name="c.superior" horiz-adv-x="393" 
d="M349 292q-32 -13 -60 -19t-55 -6q-88 0 -142.5 50.5t-54.5 130.5q0 85 51.5 133t145.5 48q32 0 58.5 -6t54.5 -19v-113q-17 10 -36.5 15.5t-39.5 5.5q-26 0 -39.5 -15.5t-13.5 -46.5q0 -29 14 -45t40 -16q20 0 39 5.5t38 16.5v-119z" />
    <glyph glyph-name="d.superior" horiz-adv-x="517" 
d="M269 301q-14 -17 -38.5 -26t-55.5 -9q-62 0 -100 49t-38 132q0 80 37.5 131.5t100.5 51.5q18 0 43 -5.5t48 -14.5l5 2v169h182v-508h-182v27zM271 511q-3 2 -7.5 3.5t-8.5 1.5q-18 0 -26.5 -16.5t-8.5 -53.5q0 -35 8 -50.5t26 -15.5q6 0 10.5 2t6.5 6v123z" />
    <glyph glyph-name="e.superior" horiz-adv-x="430" 
d="M383 287q-33 -11 -67.5 -16t-71.5 -5q-97 0 -155 51t-58 137q0 81 52.5 128.5t144.5 47.5q81 0 126 -39t45 -107q0 -13 -3 -29.5t-9 -29.5h-195q4 -26 22 -36.5t61 -10.5q27 0 55 5t53 15v-111zM249 511q0 17 -7 25.5t-22 8.5q-16 0 -25 -14.5t-8 -36.5h60q1 3 1.5 7
t0.5 10z" />
    <glyph glyph-name="f.superior" horiz-adv-x="391" 
d="M268 511v-238h-182v238h-56v112h57q7 80 57.5 122t140.5 42q27 0 57 -3.5t60 -9.5v-121q-34 7 -52.5 9t-39.5 2q-20 0 -31 -11t-9 -30h96v-112h-98z" />
    <glyph glyph-name="g.superior" horiz-adv-x="484" 
d="M44 216q0 17 9 31.5t28 27.5q-14 6 -22 19.5t-8 31.5q0 21 11 42t35 46q-21 17 -32 39t-11 47q0 56 50 92.5t134 36.5q24 0 46 -4t47 -13l117 26v-115h-26q0 -4 -0.5 -12t-0.5 -11q0 -57 -49 -92.5t-134 -35.5q-12 0 -17.5 0.5t-10.5 1.5q-3 -1 -4.5 -3t-1.5 -5
q0 -4 2 -6t6 -2h132q50 0 80 -30t30 -77q0 -62 -58 -95.5t-167 -33.5q-89 0 -137 24.5t-48 69.5zM239 471q11 0 17 8t6 22q0 13 -6 21t-17 8t-17 -8t-6 -22q0 -13 6 -21t17 -8zM222 258h-10t-5 1q-2 -2 -3.5 -6.5t-1.5 -10.5q0 -11 10 -16.5t33 -5.5t34 5t11 16q0 9 -4 13
t-13 4h-51z" />
    <glyph glyph-name="h.superior" horiz-adv-x="532" 
d="M247 508v-235h-183v508h183v-179l3 -2q20 15 43 22.5t48 7.5q63 0 95 -31.5t32 -94.5v-231h-183v204q0 22 -3 30t-12 8q-4 0 -10 -2t-13 -5z" />
    <glyph glyph-name="j.superior" horiz-adv-x="310" 
d="M252 749q0 -37 -29.5 -61.5t-72.5 -24.5q-45 0 -75 24.5t-30 61.5t30 61t75 24q44 0 73 -24t29 -61zM-44 258q28 -4 49 -3t34 7q12 8 18.5 23.5t6.5 36.5v301h183v-295q0 -62 -16.5 -103.5t-50.5 -65.5q-33 -23 -89 -31.5t-135 -1.5v132z" />
    <glyph glyph-name="k.superior" horiz-adv-x="495" 
d="M246 394v-121h-182v508h182v-266q2 6 6.5 17.5t12.5 30.5q7 16 12.5 30.5t11.5 29.5h188l-71 -121q-15 -24 -26.5 -37.5t-16.5 -13.5v-2q10 0 21 -9t21 -25l83 -142h-183q-24 49 -41.5 85z" />
    <glyph glyph-name="l.superior" horiz-adv-x="311" 
d="M247 781v-508h-183v508h183z" />
    <glyph glyph-name="m.superior" horiz-adv-x="740" 
d="M247 508v-235h-183v350h183v-30l3 -2q28 21 52.5 30t51.5 9t48 -9.5t36 -28.5q27 19 57.5 28.5t63.5 9.5q59 0 88 -30t29 -91v-236h-182v210q0 18 -2 25t-8 7q-1 0 -7.5 -2.5t-15.5 -4.5v-235h-182v212q0 17 -2.5 23.5t-9.5 6.5q-5 -1 -10 -3z" />
    <glyph glyph-name="o.superior" horiz-adv-x="489" 
d="M452 448q0 -85 -55 -133t-153 -48q-97 0 -152 48t-55 133t55 133t152 48q98 0 153 -48t55 -133zM269 448q0 46 -6 57.5t-19 11.5t-18.5 -11.5t-5.5 -57.5t5.5 -57.5t18.5 -11.5q14 0 19.5 11.5t5.5 57.5z" />
    <glyph glyph-name="p.superior" horiz-adv-x="517" 
d="M246 284v-155h-182v494h182v-26l2 -1q16 17 40 25.5t54 8.5q63 0 100.5 -49t37.5 -129q0 -84 -37.5 -135t-103.5 -51q-17 0 -41 5.5t-47 14.5zM263 518q-6 0 -10.5 -2t-6.5 -6v-125q3 -2 7.5 -3.5t8.5 -1.5q19 0 27.5 17t8.5 54q0 36 -8 51.5t-27 15.5z" />
    <glyph glyph-name="q.superior" horiz-adv-x="517" 
d="M269 301q-11 -16 -35.5 -25.5t-54.5 -9.5q-67 0 -104.5 47.5t-37.5 128.5q0 90 37 139t108 49q25 0 52 -6.5t49 -18.5l170 25v-501h-182v171zM271 512q-3 2 -7.5 3.5t-8.5 1.5q-19 0 -27.5 -17t-8.5 -54q0 -36 8 -51.5t27 -15.5q6 0 10.5 2t6.5 6v125z" />
    <glyph glyph-name="r.superior" horiz-adv-x="399" 
d="M247 441v-168h-183v350h183v-42l2 -2q34 34 52 42.5t38 8.5q7 0 15.5 -1t21.5 -3v-155q-10 2 -19 2.5t-18 0.5q-38 0 -57.5 -7t-34.5 -26z" />
    <glyph glyph-name="s.superior" horiz-adv-x="413" 
d="M369 389q0 -55 -46 -89.5t-112 -34.5q-49 0 -88.5 4.5t-70.5 14.5v118q33 -14 68 -22t59 -8q11 0 15 2t4 9q0 5 -6.5 8.5t-29.5 7.5q-66 12 -90.5 39t-24.5 74q0 59 44 88t132 29q37 0 65.5 -3t59.5 -10v-115q-12 8 -49 15t-65 7q-8 0 -11.5 -2t-3.5 -7q0 -4 6 -7t29 -8
q66 -13 90.5 -39t24.5 -71z" />
    <glyph glyph-name="t.superior" horiz-adv-x="405" 
d="M375 283q-27 -8 -56.5 -12t-60.5 -4q-79 0 -127 35.5t-48 95.5v114h-60v111h60v92h182v-92h104v-111h-104v-72q0 -26 10.5 -34.5t34.5 -8.5q8 0 22.5 2t42.5 7v-123z" />
    <glyph glyph-name="u.superior" horiz-adv-x="532" 
d="M282 296q-19 -15 -42.5 -22.5t-48.5 -7.5q-63 0 -95 31.5t-32 94.5v231h183v-204q0 -22 3 -30t12 -8q4 0 10 2t13 5v235h183v-349h-183v20z" />
    <glyph glyph-name="v.superior" horiz-adv-x="471" 
d="M461 623l-147 -350h-158l-146 350h193l18 -132q5 -35 8 -58.5t5 -36.5h2q2 13 5 36.5t8 58.5l18 132h194z" />
    <glyph glyph-name="w.superior" horiz-adv-x="640" 
d="M300 314l-10 -41h-149l-131 350h182l15 -122q2 -18 4 -32.5t3 -24.5h1q1 10 3 24.5t5 32.5l18 122h158l16 -122q2 -18 4 -32.5t4 -24.5q1 10 3 24.5t5 32.5l17 122h182l-130 -350h-151l-10 41q-6 27 -10.5 47t-7.5 34h-3q-2 -14 -6.5 -34t-11.5 -47z" />
    <glyph glyph-name="x.superior" horiz-adv-x="500" 
d="M247 348l-30 -75h-200l130 182l-125 168h199l34 -69h2l20 69h200l-126 -178l133 -172h-199l-34 75h-4z" />
    <glyph glyph-name="y.superior" horiz-adv-x="495" 
d="M326 273q-41 -90 -86.5 -121t-134.5 -31q-20 0 -35.5 1t-30.5 3v133q7 -2 18.5 -2.5t29.5 -0.5q30 0 51 4.5t30 13.5l-158 350h193l30 -132q5 -24 8.5 -42.5t4.5 -31.5h2q2 13 5.5 31.5t8.5 42.5l29 132h194z" />
    <glyph glyph-name="z.superior" horiz-adv-x="431" 
d="M394 395v-122h-350v90l115 135l-1 3h-108v122h337v-90l-118 -136l1 -2h124z" />
    <glyph glyph-name="zero.slash" horiz-adv-x="691" 
d="M700 381q0 -189 -82 -290t-238 -101q-157 0 -238.5 100.5t-81.5 290.5t81.5 291t238.5 101q156 0 238 -101.5t82 -290.5zM264 381q0 -27 1.5 -50.5t4.5 -43.5l166 299q-11 9 -25.5 13t-30.5 4q-59 0 -87.5 -54t-28.5 -168zM496 381q0 26 -1.5 49.5t-4.5 42.5l-166 -297
q12 -8 26 -12t30 -4q59 0 87.5 54t28.5 167z" />
    <glyph glyph-name="zero.slashosf" horiz-adv-x="690" 
d="M630 272q0 -134 -73.5 -206.5t-211.5 -72.5q-139 0 -212 72t-73 207t73 207.5t212 72.5q138 0 211.5 -73t73.5 -207zM261 272v-11.5t1 -10.5l109 151q-6 2 -12.5 3t-13.5 1q-43 0 -63.5 -32.5t-20.5 -100.5zM428 272q0 9 -0.5 17.5t-0.5 15.5l-115 -159q7 -3 15.5 -4.5
t17.5 -1.5q42 0 62.5 32.5t20.5 99.5z" />
    <glyph glyph-name="zero.osf" horiz-adv-x="690" 
d="M630 272q0 -134 -73.5 -206.5t-211.5 -72.5q-139 0 -212 72t-73 207t73 207.5t212 72.5q138 0 211.5 -73t73.5 -207zM428 272q0 68 -20.5 100.5t-62.5 32.5q-43 0 -63.5 -32.5t-20.5 -100.5q0 -67 21 -99.5t63 -32.5t62.5 32.5t20.5 99.5z" />
    <glyph glyph-name="one.osf" horiz-adv-x="510" 
d="M480 141v-141h-430v141h119v210h-117v126q14 0 27 1.5t24 3.5q13 4 24 9t19 12q12 9 17.5 20t5.5 22h192v-404h119z" />
    <glyph glyph-name="two.osf" horiz-adv-x="563" 
d="M503 141v-141h-453v138q191 134 225.5 167.5t34.5 63.5q0 20 -23 30.5t-69 10.5q-41 0 -79.5 -11t-77.5 -33v147q41 19 97.5 30t113.5 11q106 0 163 -39.5t57 -115.5q0 -66 -50 -125t-161 -129l3 -4h219z" />
    <glyph glyph-name="three.osf" horiz-adv-x="617" 
d="M258 -229q-26 0 -51 2t-49 5q-31 5 -55.5 10.5t-42.5 12.5v176q22 -9 47.5 -16t54.5 -13q29 -7 55.5 -10t50.5 -3q55 0 82 19t27 59q0 38 -28.5 55t-108.5 17h-91v162h91q62 0 93.5 19.5t31.5 57.5q0 35 -21.5 51.5t-66.5 16.5q-26 0 -53 -5t-55 -14q-29 -10 -53.5 -22
t-44.5 -26v184q43 22 105.5 34.5t125.5 12.5q125 0 193.5 -55t68.5 -152q0 -64 -31 -113.5t-81 -63.5v-4q55 -12 90 -56.5t35 -104.5q0 -111 -84.5 -173.5t-234.5 -62.5z" />
    <glyph glyph-name="four.osf" horiz-adv-x="708" 
d="M379 -218v163h-339v152l293 448h246v-444h79v-156h-79v-163h-200zM245 104l1 -3h133v141q0 28 1.5 56.5t3.5 56.5h-3q-14 -27 -29.5 -55t-31.5 -58z" />
    <glyph glyph-name="five.osf" horiz-adv-x="643" 
d="M259 -230q-24 0 -48 1.5t-48 5.5q-29 4 -52.5 9t-40.5 12v175q56 -19 106 -29t95 -10q56 0 86.5 24.5t30.5 69.5q0 58 -62.5 77t-241.5 9v430h469v-164h-269v-112q143 7 223.5 -53.5t80.5 -178.5q0 -125 -86.5 -195.5t-242.5 -70.5z" />
    <glyph glyph-name="six.osf" horiz-adv-x="711" 
d="M656 259q0 -120 -80.5 -195t-214.5 -75q-142 0 -221.5 98t-79.5 269q0 204 91.5 311t264.5 107q47 0 101 -8.5t91 -22.5v-182q-47 24 -95 36.5t-95 12.5q-81 0 -121 -40.5t-40 -122.5q34 21 76.5 33t86.5 12q108 0 172 -63t64 -170zM456 243q0 48 -24 73.5t-69 25.5
q-29 0 -56 -10t-46 -28q0 -69 28 -110t78 -41q40 0 64.5 24.5t24.5 65.5z" />
    <glyph glyph-name="seven.osf" horiz-adv-x="580" 
d="M550 393l-269 -611h-201l264 597l-1 2h-323v164h530v-152z" />
    <glyph glyph-name="eight.osf" horiz-adv-x="724" 
d="M664 229q0 -104 -85.5 -171.5t-213.5 -67.5q-140 0 -222.5 59t-82.5 158q0 59 30 107t88 82q-45 33 -66 70.5t-21 83.5q0 102 73 162.5t198 60.5q120 0 194 -56.5t74 -144.5q0 -50 -26 -92.5t-70 -66.5q65 -32 97.5 -78t32.5 -106zM429 545q0 33 -20 52.5t-54 19.5
q-28 0 -46 -17t-18 -44q0 -25 22 -45t71 -37q25 19 35 35t10 36zM464 219q0 32 -32 58t-114 55q-27 -19 -42 -44.5t-15 -53.5q0 -41 27 -64.5t74 -23.5t74.5 20t27.5 53z" />
    <glyph glyph-name="nine.osf" horiz-adv-x="711" 
d="M55 286q0 120 80.5 195t214.5 75q142 0 221.5 -98t79.5 -269q0 -204 -91.5 -311t-264.5 -107q-47 0 -101 8.5t-91 22.5v182q47 -24 95 -36.5t95 -12.5q81 0 121 40.5t40 122.5q-34 -21 -76.5 -33t-86.5 -12q-108 0 -172 63t-64 170zM255 302q0 -48 24 -73.5t69 -25.5
q29 0 56 10t46 28q0 69 -28 110t-78 41q-40 0 -64.5 -24.5t-24.5 -65.5z" />
    <glyph glyph-name="dollar.osf" horiz-adv-x="534" 
d="M484 169q0 -67 -44 -113.5t-115 -61.5v-72h-112v67q-42 2 -81 10t-71 21v160q38 -21 86 -34.5t88 -13.5q31 0 45 7t14 22q0 12 -12.5 20.5t-56.5 20.5q-52 15 -78 27t-44 29q-24 22 -36 52.5t-12 69.5q0 70 40 112.5t118 55.5v75h112v-70q34 -2 66.5 -8t66.5 -16v-155
q-26 15 -73 25.5t-89 10.5q-28 0 -39.5 -6t-11.5 -21q0 -11 12 -19t56 -20q51 -15 77 -27t44 -28q25 -22 37.5 -52t12.5 -68z" />
    <glyph glyph-name="cent.osf" horiz-adv-x="510" 
d="M470 28q-27 -14 -55.5 -22.5t-57.5 -12.5v-71h-112v75q-94 19 -149.5 93t-55.5 182q0 113 53.5 186t151.5 91v74h112v-70q32 -4 59 -13t51 -23v-163q-27 20 -63 31.5t-72 11.5q-46 0 -69.5 -31t-23.5 -91q0 -59 24 -90.5t69 -31.5q38 0 74 11.5t64 31.5v-168z" />
    <glyph glyph-name="sterling.osf" horiz-adv-x="553" 
d="M503 141v-141h-453v141h60q8 12 13 23.5t6 23.5q1 7 1.5 13.5t-1.5 14.5h-66v95h27q-12 29 -16 49t-4 40q0 73 62 113.5t176 40.5q52 0 102.5 -9.5t81.5 -25.5v-160q-38 24 -76.5 36t-75.5 12q-56 0 -76 -13.5t-20 -44.5q0 -6 3 -16t7 -22h174v-95h-141q2 -6 2.5 -12
t0.5 -11q0 -13 -2 -26t-6 -26h221z" />
    <glyph glyph-name="yen.osf" horiz-adv-x="609" 
d="M548 78h-141v-78h-203v78h-142v101h134l-25 46h-109v101h55l-117 219h228l47 -119q7 -18 12.5 -34t14.5 -51h6q8 31 13.5 48t13.5 37l45 119h229l-116 -219h55v-101h-109l-24 -46h133v-101z" />
    <glyph glyph-name="Euro.osf" horiz-adv-x="592" 
d="M552 35q-39 -21 -87.5 -31.5t-105.5 -10.5q-111 0 -178.5 61.5t-79.5 169.5h-71v101h71q15 107 87.5 167t194.5 60q48 0 87.5 -7t77.5 -23v-185q-32 22 -65 32t-80 10q-42 0 -64.5 -12t-31.5 -42h139v-101h-139q8 -30 29.5 -43.5t61.5 -13.5q39 0 80 12.5t74 33.5v-178z
" />
    <glyph glyph-name="florin.osf" horiz-adv-x="498" 
d="M286 22q-9 -132 -75.5 -194.5t-198.5 -62.5q-22 0 -42 1t-40 3v174q80 -10 116.5 11t39.5 75l20 288h-91v150h102l5 78q9 130 72 193t182 63q33 0 69 -5t73 -15v-162q-32 10 -59 14t-57 4q-41 0 -58.5 -19t-21.5 -73l-5 -78h124v-150h-135z" />
    <glyph glyph-name="numbersign.osf" horiz-adv-x="824" 
d="M384 0l21 76h-98l-21 -76h-182l21 76h-75v160h120l21 74h-69v160h114l21 75h182l-21 -75h98l21 75h182l-21 -75h76v-160h-121l-21 -74h70v-160h-115l-21 -76h-182zM352 236h98l21 74h-98z" />
    <glyph glyph-name="hyphen.cap" horiz-adv-x="480" 
d="M440 473v-160h-400v160h400z" />
    <glyph glyph-name="endash.cap" 
d="M620 473v-160h-580v160h580z" />
    <glyph glyph-name="emdash.cap" horiz-adv-x="830" 
d="M790 472v-160h-750v160h750z" />
    <glyph glyph-name="parenleft.cap" horiz-adv-x="393" 
d="M260 403q0 -137 31.5 -250.5t91.5 -193.5l-145 -95q-86 101 -132 240.5t-46 297.5q0 157 46 296.5t132 243.5l145 -95q-60 -79 -91.5 -192.5t-31.5 -251.5z" />
    <glyph glyph-name="bracketleft.cap" horiz-adv-x="379" 
d="M369 757h-109v-703h109v-156h-309v1015h309v-156z" />
    <glyph glyph-name="braceleft.cap" horiz-adv-x="383" 
d="M104 161q15 36 19.5 53.5t4.5 31.5q0 26 -18 49t-50 32v132q32 9 50 32t18 49q0 14 -4.5 31.5t-19.5 53.5q-17 39 -22 58.5t-5 36.5q0 103 77.5 151.5t218.5 33.5v-146q-53 5 -73.5 -8.5t-20.5 -49.5q0 -17 4.5 -36.5t19.5 -57.5q15 -39 19.5 -59t4.5 -38
q0 -37 -16.5 -62t-60.5 -55q44 -30 60.5 -55t16.5 -62q0 -18 -4.5 -38t-19.5 -59q-15 -38 -19.5 -57.5t-4.5 -36.5q0 -36 20.5 -49.5t73.5 -8.5v-146q-141 -15 -218.5 33.5t-77.5 151.5q0 17 5 37t22 58z" />
    <glyph glyph-name="parenright.cap" horiz-adv-x="393" 
d="M133 382q0 137 -31.5 250.5t-91.5 193.5l145 95q86 -101 132 -240.5t46 -297.5q0 -157 -46 -296.5t-132 -243.5l-145 95q60 79 91.5 192.5t31.5 251.5z" />
    <glyph glyph-name="bracketright.cap" horiz-adv-x="379" 
d="M119 758h-109v156h309v-1015h-309v156h109v703z" />
    <glyph glyph-name="braceright.cap" horiz-adv-x="383" 
d="M279 625q-15 -36 -19.5 -53.5t-4.5 -31.5q0 -26 18 -49t50 -32v-132q-32 -9 -50 -32t-18 -49q0 -14 4.5 -31.5t19.5 -53.5q17 -39 22 -58.5t5 -36.5q0 -103 -77.5 -151.5t-218.5 -33.5v146q53 -5 73.5 8.5t20.5 49.5q0 17 -4.5 36.5t-19.5 57.5q-15 39 -19.5 59t-4.5 38
q0 37 16.5 62t60.5 55q-44 30 -60.5 55t-16.5 62q0 18 4.5 38t19.5 59q15 38 19.5 57.5t4.5 36.5q0 36 -20.5 49.5t-73.5 8.5v146q141 15 218.5 -33.5t77.5 -151.5q0 -17 -5 -37t-22 -58z" />
    <glyph glyph-name="guilsinglleft.cap" horiz-adv-x="414" 
d="M384 248l-99 -129l-255 204v137l255 204l99 -129l-168 -143z" />
    <glyph glyph-name="guillemotleft.cap" horiz-adv-x="768" 
d="M384 248l-99 -129l-255 204v137l255 204l99 -129l-168 -143zM738 248l-99 -129l-255 204v137l255 204l99 -129l-168 -143z" />
    <glyph glyph-name="guilsinglright.cap" horiz-adv-x="414" 
d="M30 536l99 129l255 -204v-137l-255 -204l-99 129l168 143z" />
    <glyph glyph-name="guillemotright.cap" horiz-adv-x="768" 
d="M384 536l99 129l255 -204v-137l-255 -204l-99 129l168 143zM30 536l99 129l255 -204v-137l-255 -204l-99 129l168 143z" />
    <glyph glyph-name="periodcentered.cap" horiz-adv-x="324" 
d="M284 395q0 -50 -35 -83.5t-86 -33.5q-53 0 -88 33.5t-35 83.5t35.5 83t87.5 33q51 0 86 -33t35 -83z" />
    <glyph glyph-name="questiondown.cap" horiz-adv-x="537" 
d="M180 660q0 50 35 83.5t86 33.5q53 0 88 -33.5t35 -83.5t-35.5 -83t-87.5 -33q-51 0 -86 33t-35 83zM40 173q0 35 17 68.5t73 89.5q54 55 71 87.5t17 66.5h183q1 -46 -20.5 -90t-86.5 -108q-35 -36 -45 -51t-10 -28q0 -28 21 -41t64 -13t85.5 13.5t87.5 41.5v-173
q-42 -21 -98.5 -34t-107.5 -13q-124 0 -187.5 46.5t-63.5 137.5z" />
    <glyph glyph-name="exclamdown.cap" horiz-adv-x="324" 
d="M40 659q0 50 35 83.5t86 33.5q53 0 88 -33.5t35 -83.5t-35.5 -83t-87.5 -33q-51 0 -86 33t-35 83zM268 289q4 -116 5.5 -176.5t1.5 -112.5h-211q0 47 1 102t5 161q3 97 4 141.5t1 79.5h188q0 -31 1 -70.5t4 -124.5z" />
    <glyph glyph-name="verticalbar" horiz-adv-x="360" 
d="M80 -224v1015h200v-1015h-200z" />
    <glyph glyph-name="at.cap" horiz-adv-x="849" 
d="M453 136q49 0 102 9.5t81 24.5v-152q-27 -15 -75 -24t-105 -9q-198 0 -307 105.5t-109 291.5q0 180 109.5 286t300.5 106q163 0 241 -70t78 -213v-273h-155l-20 52l-4 1q-35 -35 -68.5 -49.5t-75.5 -14.5q-79 0 -123.5 46t-44.5 124q0 87 63 129t194 42h35q1 3 1 6.5
v10.5q0 25 -36.5 40.5t-93.5 15.5q-110 0 -173.5 -64.5t-63.5 -173.5q0 -115 65.5 -181t183.5 -66zM548 434q-41 0 -59.5 -10.5t-18.5 -35.5q0 -21 11.5 -31.5t33.5 -10.5q23 0 44 10t29 25v53h-40z" />
    <glyph glyph-name="zero.slashLP" horiz-adv-x="760" 
d="M700 381q0 -189 -82 -290t-238 -101q-157 0 -238.5 100.5t-81.5 290.5t81.5 291t238.5 101q156 0 238 -101.5t82 -290.5zM264 381q0 -27 1.5 -50.5t4.5 -43.5l166 299q-11 9 -25.5 13t-30.5 4q-59 0 -87.5 -54t-28.5 -168zM496 381q0 26 -1.5 49.5t-4.5 42.5l-166 -297
q12 -8 26 -12t30 -4q59 0 87.5 54t28.5 167z" />
    <glyph glyph-name="zero.LP" horiz-adv-x="760" 
d="M700 381q0 -189 -82 -290t-238 -101q-157 0 -238.5 100.5t-81.5 290.5t81.5 291t238.5 101q156 0 238 -101.5t82 -290.5zM496 381q0 113 -28.5 167.5t-87.5 54.5t-87.5 -54t-28.5 -168t28.5 -167.5t87.5 -53.5t87.5 54t28.5 167z" />
    <glyph glyph-name="one.LP" horiz-adv-x="564" 
d="M534 164v-164h-484v164h142v353h-142v146q18 0 34.5 2t30.5 7q16 5 29.5 13.5t23.5 19.5q12 14 18 28.5t6 29.5h200v-599h142z" />
    <glyph glyph-name="two.LP" horiz-adv-x="621" 
d="M561 164v-164h-511v168q195 184 247.5 249.5t52.5 113.5q0 41 -23 60t-72 19q-52 0 -100.5 -14t-92.5 -41v173q43 21 105 34t121 13q122 0 191.5 -60t69.5 -170q0 -74 -54.5 -153.5t-204.5 -223.5l3 -4h268z" />
    <glyph glyph-name="three.LP" horiz-adv-x="617" 
d="M258 -10q-26 0 -51 2t-49 5q-31 5 -55.5 10.5t-42.5 12.5v176q22 -9 47.5 -16t54.5 -13q29 -7 55.5 -10t50.5 -3q55 0 82 19t27 59q0 38 -28.5 55t-108.5 17h-91v162h91q62 0 93.5 19.5t31.5 57.5q0 35 -21.5 51.5t-66.5 16.5q-26 0 -53 -5t-55 -14q-29 -10 -53.5 -22
t-44.5 -26v184q43 22 105.5 34.5t125.5 12.5q125 0 193.5 -55t68.5 -152q0 -64 -31 -113.5t-81 -63.5v-4q55 -12 90 -56.5t35 -104.5q0 -111 -84.5 -173.5t-234.5 -62.5z" />
    <glyph glyph-name="four.LP" horiz-adv-x="708" 
d="M379 0v163h-339v152l293 448h246v-444h79v-156h-79v-163h-200zM245 322l1 -3h133v141q0 28 1.5 56.5t3.5 56.5h-3q-14 -27 -29.5 -55t-31.5 -58z" />
    <glyph glyph-name="five.LP" horiz-adv-x="643" 
d="M259 -11q-24 0 -48 1.5t-48 5.5q-29 4 -52.5 9t-40.5 12v175q56 -19 106 -29t95 -10q56 0 86.5 24.5t30.5 69.5q0 58 -62.5 77t-241.5 9v430h469v-164h-269v-112q143 7 223.5 -53.5t80.5 -178.5q0 -125 -86.5 -195.5t-242.5 -70.5z" />
    <glyph glyph-name="six.LP" horiz-adv-x="711" 
d="M656 259q0 -120 -80.5 -195t-214.5 -75q-142 0 -221.5 98t-79.5 269q0 204 91.5 311t264.5 107q47 0 101 -8.5t91 -22.5v-182q-47 24 -95 36.5t-95 12.5q-81 0 -121 -40.5t-40 -122.5q34 21 76.5 33t86.5 12q108 0 172 -63t64 -170zM456 243q0 48 -24 73.5t-69 25.5
q-29 0 -56 -10t-46 -28q0 -69 28 -110t78 -41q40 0 64.5 24.5t24.5 65.5z" />
    <glyph glyph-name="seven.LP" horiz-adv-x="580" 
d="M550 611l-269 -611h-201l264 597l-1 2h-323v164h530v-152z" />
    <glyph glyph-name="eight.LP" horiz-adv-x="724" 
d="M664 229q0 -104 -85.5 -171.5t-213.5 -67.5q-140 0 -222.5 59t-82.5 158q0 59 30 107t88 82q-45 33 -66 70.5t-21 83.5q0 102 73 162.5t198 60.5q120 0 194 -56.5t74 -144.5q0 -50 -26 -92.5t-70 -66.5q65 -32 97.5 -78t32.5 -106zM429 545q0 33 -20 52.5t-54 19.5
q-28 0 -46 -17t-18 -44q0 -25 22 -45t71 -37q25 19 35 35t10 36zM464 219q0 32 -32 58t-114 55q-27 -19 -42 -44.5t-15 -53.5q0 -41 27 -64.5t74 -23.5t74.5 20t27.5 53z" />
    <glyph glyph-name="nine.LP" horiz-adv-x="711" 
d="M55 504q0 120 80.5 195t214.5 75q142 0 221.5 -98t79.5 -269q0 -204 -91.5 -311t-264.5 -107q-47 0 -101 8.5t-91 22.5v182q47 -24 95 -36.5t95 -12.5q81 0 121 40.5t40 122.5q-34 -21 -76.5 -33t-86.5 -12q-108 0 -172 63t-64 170zM255 520q0 -48 24 -73.5t69 -25.5
q29 0 56 10t46 28q0 69 -28 110t-78 41q-40 0 -64.5 -24.5t-24.5 -65.5z" />
    <glyph glyph-name="dollar.LP" horiz-adv-x="644" 
d="M594 234q0 -86 -42 -142.5t-123 -81.5v-88h-200v69q-48 3 -91.5 12t-87.5 24v186q49 -28 108 -43t120 -15q48 0 72 15t24 45q0 21 -19.5 38.5t-88.5 45.5q-66 28 -97.5 46.5t-54.5 40.5q-32 31 -48 70.5t-16 88.5q0 82 46.5 137.5t132.5 76.5v111h200v-102
q37 -6 71 -15.5t61 -23.5v-196q-39 33 -97 52.5t-117 19.5q-42 0 -62 -11.5t-20 -35.5q0 -23 21.5 -42.5t95.5 -51.5q63 -27 93.5 -44.5t52.5 -36.5q33 -30 49.5 -67t16.5 -82z" />
    <glyph glyph-name="cent.LP" horiz-adv-x="510" 
d="M470 138q-19 -10 -39.5 -17.5t-41.5 -11.5v-109h-200v125q-70 31 -109.5 98.5t-39.5 158.5q0 96 39 163.5t110 97.5v120h200v-106q22 -4 41 -12t37 -18v-163q-27 20 -63 31.5t-72 11.5q-46 0 -69.5 -31t-23.5 -91q0 -59 24 -90.5t69 -31.5q38 0 74 11.5t64 31.5v-168z
" />
    <glyph glyph-name="sterling.LP" horiz-adv-x="688" 
d="M638 164v-164h-578v164h86q20 32 27.5 68t3.5 78h-103v164h68q-5 25 -8 48.5t-3 41.5q0 92 68.5 150.5t178.5 58.5q79 0 140 -12.5t96 -35.5v-170q-24 22 -76 39.5t-99 17.5q-63 0 -88 -18t-25 -58q0 -6 2.5 -22.5t6.5 -39.5h257v-164h-236q2 -44 -3.5 -80.5t-18.5 -65.5
h304z" />
    <glyph glyph-name="yen.LP" horiz-adv-x="744" 
d="M646 115h-165v-115h-216v115h-163v101h163v65l-2 4h-161v101h105l-207 377h243l96 -208q8 -18 14.5 -36t16.5 -53h6q8 29 15 49t16 40l93 208h244l-206 -377h108v-101h-163l-2 -4v-65h165v-101z" />
    <glyph glyph-name="Euro.LP" horiz-adv-x="714" 
d="M674 47q-48 -28 -110 -42.5t-129 -14.5q-125 0 -209 68.5t-114 187.5h-82v101h67q-1 8 -1 16.5v17.5v18t1 17h-67v101h83q31 120 121 188t225 68q60 0 111.5 -11.5t98.5 -34.5v-197q-44 31 -88.5 45t-100.5 14q-51 0 -85.5 -18t-54.5 -54h212v-101h-237q0 -8 -0.5 -16.5
t-0.5 -17.5t0.5 -18t0.5 -17h237v-101h-211q20 -35 53 -53t80 -18q51 0 104 17t96 47v-192z" />
    <glyph glyph-name="florin.LP" horiz-adv-x="498" 
d="M286 22q-9 -132 -75.5 -194.5t-198.5 -62.5q-22 0 -42 1t-40 3v174q80 -10 116.5 11t39.5 75l20 288h-91v150h102l5 78q9 130 72 193t182 63q33 0 69 -5t73 -15v-162q-32 10 -59 14t-57 4q-41 0 -58.5 -19t-21.5 -73l-5 -78h124v-150h-135z" />
    <glyph glyph-name="numbersign.LP" horiz-adv-x="864" 
d="M375 0l51 181h-98l-51 -181h-182l51 181h-96v160h141l20 74h-89v160h134l53 188h182l-53 -188h98l53 188h182l-53 -188h96v-160h-141l-20 -74h89v-160h-134l-51 -181h-182zM373 341h98l20 74h-98z" />
    <glyph glyph-name="zero.slashLT" 
d="M650 381q0 -189 -82 -290t-238 -101q-157 0 -238.5 100.5t-81.5 290.5t81.5 291t238.5 101q156 0 238 -101.5t82 -290.5zM214 381q0 -27 1.5 -50.5t4.5 -43.5l166 299q-11 9 -25.5 13t-30.5 4q-59 0 -87.5 -54t-28.5 -168zM446 381q0 26 -1.5 49.5t-4.5 42.5l-166 -297
q12 -8 26 -12t30 -4q59 0 87.5 54t28.5 167z" />
    <glyph glyph-name="zero.LT" 
d="M650 381q0 -189 -82 -290t-238 -101q-157 0 -238.5 100.5t-81.5 290.5t81.5 291t238.5 101q156 0 238 -101.5t82 -290.5zM446 381q0 113 -28.5 167.5t-87.5 54.5t-87.5 -54t-28.5 -168t28.5 -167.5t87.5 -53.5t87.5 54t28.5 167z" />
    <glyph glyph-name="one.LT" 
d="M572 164v-164h-484v164h142v353h-142v146q18 0 34.5 2t30.5 7q16 5 29.5 13.5t23.5 19.5q12 14 18 28.5t6 29.5h200v-599h142z" />
    <glyph glyph-name="two.LT" horiz-adv-x="661" 
d="M586 164v-164h-511v168q195 184 247.5 249.5t52.5 113.5q0 41 -23 60t-72 19q-52 0 -100.5 -14t-92.5 -41v173q43 21 105 34t121 13q122 0 191.5 -60t69.5 -170q0 -74 -54.5 -153.5t-204.5 -223.5l3 -4h268z" />
    <glyph glyph-name="three.LT" horiz-adv-x="661" 
d="M270 -10q-26 0 -51 2t-49 5q-31 5 -55.5 10.5t-42.5 12.5v176q22 -9 47.5 -16t54.5 -13q29 -7 55.5 -10t50.5 -3q55 0 82 19t27 59q0 38 -28.5 55t-108.5 17h-91v162h91q62 0 93.5 19.5t31.5 57.5q0 35 -21.5 51.5t-66.5 16.5q-26 0 -53 -5t-55 -14q-29 -10 -53.5 -22
t-44.5 -26v184q43 22 105.5 34.5t125.5 12.5q125 0 193.5 -55t68.5 -152q0 -64 -31 -113.5t-81 -63.5v-4q55 -12 90 -56.5t35 -104.5q0 -111 -84.5 -173.5t-234.5 -62.5z" />
    <glyph glyph-name="four.LT" 
d="M360 0v163h-339v152l293 448h246v-444h79v-156h-79v-163h-200zM226 322l1 -3h133v141q0 28 1.5 56.5t3.5 56.5h-3q-14 -27 -29.5 -55t-31.5 -58z" />
    <glyph glyph-name="five.LT" 
d="M260 -11q-24 0 -48 1.5t-48 5.5q-29 4 -52.5 9t-40.5 12v175q56 -19 106 -29t95 -10q56 0 86.5 24.5t30.5 69.5q0 58 -62.5 77t-241.5 9v430h469v-164h-269v-112q143 7 223.5 -53.5t80.5 -178.5q0 -125 -86.5 -195.5t-242.5 -70.5z" />
    <glyph glyph-name="six.LT" 
d="M628 259q0 -120 -80.5 -195t-214.5 -75q-142 0 -221.5 98t-79.5 269q0 204 91.5 311t264.5 107q47 0 101 -8.5t91 -22.5v-182q-47 24 -95 36.5t-95 12.5q-81 0 -121 -40.5t-40 -122.5q34 21 76.5 33t86.5 12q108 0 172 -63t64 -170zM428 243q0 48 -24 73.5t-69 25.5
q-29 0 -56 -10t-46 -28q0 -69 28 -110t78 -41q40 0 64.5 24.5t24.5 65.5z" />
    <glyph glyph-name="seven.LT" 
d="M595 611l-269 -611h-201l264 597l-1 2h-323v164h530v-152z" />
    <glyph glyph-name="eight.LT" 
d="M632 229q0 -104 -85.5 -171.5t-213.5 -67.5q-140 0 -222.5 59t-82.5 158q0 59 30 107t88 82q-45 33 -66 70.5t-21 83.5q0 102 73 162.5t198 60.5q120 0 194 -56.5t74 -144.5q0 -50 -26 -92.5t-70 -66.5q65 -32 97.5 -78t32.5 -106zM397 545q0 33 -20 52.5t-54 19.5
q-28 0 -46 -17t-18 -44q0 -25 22 -45t71 -37q25 19 35 35t10 36zM432 219q0 32 -32 58t-114 55q-27 -19 -42 -44.5t-15 -53.5q0 -41 27 -64.5t74 -23.5t74.5 20t27.5 53z" />
    <glyph glyph-name="nine.LT" 
d="M32 504q0 120 80.5 195t214.5 75q142 0 221.5 -98t79.5 -269q0 -204 -91.5 -311t-264.5 -107q-47 0 -101 8.5t-91 22.5v182q47 -24 95 -36.5t95 -12.5q81 0 121 40.5t40 122.5q-34 -21 -76.5 -33t-86.5 -12q-108 0 -172 63t-64 170zM232 520q0 -48 24 -73.5t69 -25.5
q29 0 56 10t46 28q0 69 -28 110t-78 41q-40 0 -64.5 -24.5t-24.5 -65.5z" />
    <glyph glyph-name="dollar.LT" 
d="M602 234q0 -86 -42 -142.5t-123 -81.5v-88h-200v69q-48 3 -91.5 12t-87.5 24v186q49 -28 108 -43t120 -15q48 0 72 15t24 45q0 21 -19.5 38.5t-88.5 45.5q-66 28 -97.5 46.5t-54.5 40.5q-32 31 -48 70.5t-16 88.5q0 82 46.5 137.5t132.5 76.5v111h200v-102
q37 -6 71 -15.5t61 -23.5v-196q-39 33 -97 52.5t-117 19.5q-42 0 -62 -11.5t-20 -35.5q0 -23 21.5 -42.5t95.5 -51.5q63 -27 93.5 -44.5t52.5 -36.5q33 -30 49.5 -67t16.5 -82z" />
    <glyph glyph-name="cent.LT" 
d="M545 138q-19 -10 -39.5 -17.5t-41.5 -11.5v-109h-200v125q-70 31 -109.5 98.5t-39.5 158.5q0 96 39 163.5t110 97.5v120h200v-106q22 -4 41 -12t37 -18v-163q-27 20 -63 31.5t-72 11.5q-46 0 -69.5 -31t-23.5 -91q0 -59 24 -90.5t69 -31.5q38 0 74 11.5t64 31.5v-168z
" />
    <glyph glyph-name="sterling.LT" 
d="M619 164v-164h-578v164h86q20 32 27.5 68t3.5 78h-103v164h68q-5 25 -8 48.5t-3 41.5q0 92 68.5 150.5t178.5 58.5q79 0 140 -12.5t96 -35.5v-170q-24 22 -76 39.5t-99 17.5q-63 0 -88 -18t-25 -58q0 -6 2.5 -22.5t6.5 -39.5h257v-164h-236q2 -44 -3.5 -80.5t-18.5 -65.5
h304z" />
    <glyph glyph-name="yen.LT" 
d="M604 115h-165v-115h-216v115h-163v101h163v65l-2 4h-161v101h105l-207 377h243l96 -208q8 -18 14.5 -36t16.5 -53h6q8 29 15 49t16 40l93 208h244l-206 -377h108v-101h-163l-2 -4v-65h165v-101z" />
    <glyph glyph-name="Euro.LT" 
d="M652 47q-48 -28 -110 -42.5t-129 -14.5q-125 0 -209 68.5t-114 187.5h-82v101h67q-1 8 -1 16.5v17.5v18t1 17h-67v101h83q31 120 121 188t225 68q60 0 111.5 -11.5t98.5 -34.5v-197q-44 31 -88.5 45t-100.5 14q-51 0 -85.5 -18t-54.5 -54h212v-101h-237q0 -8 -0.5 -16.5
t-0.5 -17.5t0.5 -18t0.5 -17h237v-101h-211q20 -35 53 -53t80 -18q51 0 104 17t96 47v-192z" />
    <glyph glyph-name="florin.LT" 
d="M372 22q-9 -132 -75.5 -194.5t-198.5 -62.5q-22 0 -42 1t-40 3v174q80 -10 116.5 11t39.5 75l20 288h-91v150h102l5 78q9 130 72 193t182 63q33 0 69 -5t73 -15v-162q-32 10 -59 14t-57 4q-41 0 -58.5 -19t-21.5 -73l-5 -78h124v-150h-135z" />
    <glyph glyph-name="numbersign.LT" 
d="M273 0l51 181h-98l-51 -181h-182l51 181h-96v160h141l20 74h-89v160h134l53 188h182l-53 -188h98l53 188h182l-53 -188h96v-160h-141l-20 -74h89v-160h-134l-51 -181h-182zM271 341h98l20 74h-98z" />
    <glyph glyph-name="zero.slashOP" horiz-adv-x="690" 
d="M630 272q0 -134 -73.5 -206.5t-211.5 -72.5q-139 0 -212 72t-73 207t73 207.5t212 72.5q138 0 211.5 -73t73.5 -207zM261 272v-11.5t1 -10.5l109 151q-6 2 -12.5 3t-13.5 1q-43 0 -63.5 -32.5t-20.5 -100.5zM428 272q0 9 -0.5 17.5t-0.5 15.5l-115 -159q7 -3 15.5 -4.5
t17.5 -1.5q42 0 62.5 32.5t20.5 99.5z" />
    <glyph glyph-name="zero.OP" horiz-adv-x="690" 
d="M630 272q0 -134 -73.5 -206.5t-211.5 -72.5q-139 0 -212 72t-73 207t73 207.5t212 72.5q138 0 211.5 -73t73.5 -207zM428 272q0 68 -20.5 100.5t-62.5 32.5q-43 0 -63.5 -32.5t-20.5 -100.5q0 -67 21 -99.5t63 -32.5t62.5 32.5t20.5 99.5z" />
    <glyph glyph-name="one.OP" horiz-adv-x="510" 
d="M480 141v-141h-430v141h119v210h-117v126q14 0 27 1.5t24 3.5q13 4 24 9t19 12q12 9 17.5 20t5.5 22h192v-404h119z" />
    <glyph glyph-name="two.OP" horiz-adv-x="563" 
d="M503 141v-141h-453v138q191 134 225.5 167.5t34.5 63.5q0 20 -23 30.5t-69 10.5q-41 0 -79.5 -11t-77.5 -33v147q41 19 97.5 30t113.5 11q106 0 163 -39.5t57 -115.5q0 -66 -50 -125t-161 -129l3 -4h219z" />
    <glyph glyph-name="three.OP" horiz-adv-x="617" 
d="M258 -229q-26 0 -51 2t-49 5q-31 5 -55.5 10.5t-42.5 12.5v176q22 -9 47.5 -16t54.5 -13q29 -7 55.5 -10t50.5 -3q55 0 82 19t27 59q0 38 -28.5 55t-108.5 17h-91v162h91q62 0 93.5 19.5t31.5 57.5q0 35 -21.5 51.5t-66.5 16.5q-26 0 -53 -5t-55 -14q-29 -10 -53.5 -22
t-44.5 -26v184q43 22 105.5 34.5t125.5 12.5q125 0 193.5 -55t68.5 -152q0 -64 -31 -113.5t-81 -63.5v-4q55 -12 90 -56.5t35 -104.5q0 -111 -84.5 -173.5t-234.5 -62.5z" />
    <glyph glyph-name="four.OP" horiz-adv-x="708" 
d="M379 -218v163h-339v152l293 448h246v-444h79v-156h-79v-163h-200zM245 104l1 -3h133v141q0 28 1.5 56.5t3.5 56.5h-3q-14 -27 -29.5 -55t-31.5 -58z" />
    <glyph glyph-name="five.OP" horiz-adv-x="643" 
d="M259 -230q-24 0 -48 1.5t-48 5.5q-29 4 -52.5 9t-40.5 12v175q56 -19 106 -29t95 -10q56 0 86.5 24.5t30.5 69.5q0 58 -62.5 77t-241.5 9v430h469v-164h-269v-112q143 7 223.5 -53.5t80.5 -178.5q0 -125 -86.5 -195.5t-242.5 -70.5z" />
    <glyph glyph-name="six.OP" horiz-adv-x="721" 
d="M656 259q0 -120 -80.5 -195t-214.5 -75q-142 0 -221.5 98t-79.5 269q0 204 91.5 311t264.5 107q47 0 101 -8.5t91 -22.5v-182q-47 24 -95 36.5t-95 12.5q-81 0 -121 -40.5t-40 -122.5q34 21 76.5 33t86.5 12q108 0 172 -63t64 -170zM456 243q0 48 -24 73.5t-69 25.5
q-29 0 -56 -10t-46 -28q0 -69 28 -110t78 -41q40 0 64.5 24.5t24.5 65.5z" />
    <glyph glyph-name="seven.OP" horiz-adv-x="580" 
d="M550 393l-269 -611h-201l264 597l-1 2h-323v164h530v-152z" />
    <glyph glyph-name="eight.OP" horiz-adv-x="724" 
d="M664 229q0 -104 -85.5 -171.5t-213.5 -67.5q-140 0 -222.5 59t-82.5 158q0 59 30 107t88 82q-45 33 -66 70.5t-21 83.5q0 102 73 162.5t198 60.5q120 0 194 -56.5t74 -144.5q0 -50 -26 -92.5t-70 -66.5q65 -32 97.5 -78t32.5 -106zM429 545q0 33 -20 52.5t-54 19.5
q-28 0 -46 -17t-18 -44q0 -25 22 -45t71 -37q25 19 35 35t10 36zM464 219q0 32 -32 58t-114 55q-27 -19 -42 -44.5t-15 -53.5q0 -41 27 -64.5t74 -23.5t74.5 20t27.5 53z" />
    <glyph glyph-name="nine.OP" horiz-adv-x="711" 
d="M55 286q0 120 80.5 195t214.5 75q142 0 221.5 -98t79.5 -269q0 -204 -91.5 -311t-264.5 -107q-47 0 -101 8.5t-91 22.5v182q47 -24 95 -36.5t95 -12.5q81 0 121 40.5t40 122.5q-34 -21 -76.5 -33t-86.5 -12q-108 0 -172 63t-64 170zM255 302q0 -48 24 -73.5t69 -25.5
q29 0 56 10t46 28q0 69 -28 110t-78 41q-40 0 -64.5 -24.5t-24.5 -65.5z" />
    <glyph glyph-name="dollar.OP" horiz-adv-x="534" 
d="M484 169q0 -67 -44 -113.5t-115 -61.5v-72h-112v67q-42 2 -81 10t-71 21v160q38 -21 86 -34.5t88 -13.5q31 0 45 7t14 22q0 12 -12.5 20.5t-56.5 20.5q-52 15 -78 27t-44 29q-24 22 -36 52.5t-12 69.5q0 70 40 112.5t118 55.5v75h112v-70q34 -2 66.5 -8t66.5 -16v-155
q-26 15 -73 25.5t-89 10.5q-28 0 -39.5 -6t-11.5 -21q0 -11 12 -19t56 -20q51 -15 77 -27t44 -28q25 -22 37.5 -52t12.5 -68z" />
    <glyph glyph-name="cent.OP" horiz-adv-x="510" 
d="M470 28q-27 -14 -55.5 -22.5t-57.5 -12.5v-71h-112v75q-94 19 -149.5 93t-55.5 182q0 113 53.5 186t151.5 91v74h112v-70q32 -4 59 -13t51 -23v-163q-27 20 -63 31.5t-72 11.5q-46 0 -69.5 -31t-23.5 -91q0 -59 24 -90.5t69 -31.5q38 0 74 11.5t64 31.5v-168z" />
    <glyph glyph-name="sterling.OP" horiz-adv-x="553" 
d="M503 141v-141h-453v141h60q8 12 13 23.5t6 23.5q1 7 1.5 13.5t-1.5 14.5h-66v95h27q-12 29 -16 49t-4 40q0 73 62 113.5t176 40.5q52 0 102.5 -9.5t81.5 -25.5v-160q-38 24 -76.5 36t-75.5 12q-56 0 -76 -13.5t-20 -44.5q0 -6 3 -16t7 -22h174v-95h-141q2 -6 2.5 -12
t0.5 -11q0 -13 -2 -26t-6 -26h221z" />
    <glyph glyph-name="yen.OP" horiz-adv-x="609" 
d="M548 78h-141v-78h-203v78h-142v101h134l-25 46h-109v101h55l-117 219h228l47 -119q7 -18 12.5 -34t14.5 -51h6q8 31 13.5 48t13.5 37l45 119h229l-116 -219h55v-101h-109l-24 -46h133v-101z" />
    <glyph glyph-name="Euro.OP" horiz-adv-x="592" 
d="M552 35q-39 -21 -87.5 -31.5t-105.5 -10.5q-111 0 -178.5 61.5t-79.5 169.5h-71v101h71q15 107 87.5 167t194.5 60q48 0 87.5 -7t77.5 -23v-185q-32 22 -65 32t-80 10q-42 0 -64.5 -12t-31.5 -42h139v-101h-139q8 -30 29.5 -43.5t61.5 -13.5q39 0 80 12.5t74 33.5v-178z
" />
    <glyph glyph-name="florin.OP" horiz-adv-x="498" 
d="M286 22q-9 -132 -75.5 -194.5t-198.5 -62.5q-22 0 -42 1t-40 3v174q80 -10 116.5 11t39.5 75l20 288h-91v150h102l5 78q9 130 72 193t182 63q33 0 69 -5t73 -15v-162q-32 10 -59 14t-57 4q-41 0 -58.5 -19t-21.5 -73l-5 -78h124v-150h-135z" />
    <glyph glyph-name="numbersign.OP" horiz-adv-x="732" 
d="M384 0l21 76h-98l-21 -76h-182l21 76h-75v160h120l21 74h-69v160h114l21 75h182l-21 -75h98l21 75h182l-21 -75h76v-160h-121l-21 -74h70v-160h-115l-21 -76h-182zM352 236h98l21 74h-98z" />
    <glyph glyph-name="zero.slashOT" 
d="M615 272q0 -134 -73.5 -206.5t-211.5 -72.5q-139 0 -212 72t-73 207t73 207.5t212 72.5q138 0 211.5 -73t73.5 -207zM246 272v-11.5t1 -10.5l109 151q-6 2 -12.5 3t-13.5 1q-43 0 -63.5 -32.5t-20.5 -100.5zM413 272q0 9 -0.5 17.5t-0.5 15.5l-115 -159q7 -3 15.5 -4.5
t17.5 -1.5q42 0 62.5 32.5t20.5 99.5z" />
    <glyph glyph-name="zero.OT" 
d="M615 272q0 -134 -73.5 -206.5t-211.5 -72.5q-139 0 -212 72t-73 207t73 207.5t212 72.5q138 0 211.5 -73t73.5 -207zM413 272q0 68 -20.5 100.5t-62.5 32.5q-43 0 -63.5 -32.5t-20.5 -100.5q0 -67 21 -99.5t63 -32.5t62.5 32.5t20.5 99.5z" />
    <glyph glyph-name="one.OT" 
d="M545 141v-141h-430v141h119v210h-117v126q14 0 27 1.5t24 3.5q13 4 24 9t19 12q12 9 17.5 20t5.5 22h192v-404h119z" />
    <glyph glyph-name="two.OT" horiz-adv-x="661" 
d="M557 141v-141h-453v138q191 134 225.5 167.5t34.5 63.5q0 20 -23 30.5t-69 10.5q-41 0 -79.5 -11t-77.5 -33v147q41 19 97.5 30t113.5 11q106 0 163 -39.5t57 -115.5q0 -66 -50 -125t-161 -129l3 -4h219z" />
    <glyph glyph-name="three.OT" horiz-adv-x="661" 
d="M270 -229q-26 0 -51 2t-49 5q-31 5 -55.5 10.5t-42.5 12.5v176q22 -9 47.5 -16t54.5 -13q29 -7 55.5 -10t50.5 -3q55 0 82 19t27 59q0 38 -28.5 55t-108.5 17h-91v162h91q62 0 93.5 19.5t31.5 57.5q0 35 -21.5 51.5t-66.5 16.5q-26 0 -53 -5t-55 -14q-29 -10 -53.5 -22
t-44.5 -26v184q43 22 105.5 34.5t125.5 12.5q125 0 193.5 -55t68.5 -152q0 -64 -31 -113.5t-81 -63.5v-4q55 -12 90 -56.5t35 -104.5q0 -111 -84.5 -173.5t-234.5 -62.5z" />
    <glyph glyph-name="four.OT" 
d="M360 -218v163h-339v152l293 448h246v-444h79v-156h-79v-163h-200zM226 104l1 -3h133v141q0 28 1.5 56.5t3.5 56.5h-3q-14 -27 -29.5 -55t-31.5 -58z" />
    <glyph glyph-name="five.OT" 
d="M260 -230q-24 0 -48 1.5t-48 5.5q-29 4 -52.5 9t-40.5 12v175q56 -19 106 -29t95 -10q56 0 86.5 24.5t30.5 69.5q0 58 -62.5 77t-241.5 9v430h469v-164h-269v-112q143 7 223.5 -53.5t80.5 -178.5q0 -125 -86.5 -195.5t-242.5 -70.5z" />
    <glyph glyph-name="six.OT" 
d="M628 259q0 -120 -80.5 -195t-214.5 -75q-142 0 -221.5 98t-79.5 269q0 204 91.5 311t264.5 107q47 0 101 -8.5t91 -22.5v-182q-47 24 -95 36.5t-95 12.5q-81 0 -121 -40.5t-40 -122.5q34 21 76.5 33t86.5 12q108 0 172 -63t64 -170zM428 243q0 48 -24 73.5t-69 25.5
q-29 0 -56 -10t-46 -28q0 -69 28 -110t78 -41q40 0 64.5 24.5t24.5 65.5z" />
    <glyph glyph-name="seven.OT" 
d="M595 393l-269 -611h-201l264 597l-1 2h-323v164h530v-152z" />
    <glyph glyph-name="eight.OT" 
d="M632 229q0 -104 -85.5 -171.5t-213.5 -67.5q-140 0 -222.5 59t-82.5 158q0 59 30 107t88 82q-45 33 -66 70.5t-21 83.5q0 102 73 162.5t198 60.5q120 0 194 -56.5t74 -144.5q0 -50 -26 -92.5t-70 -66.5q65 -32 97.5 -78t32.5 -106zM397 545q0 33 -20 52.5t-54 19.5
q-28 0 -46 -17t-18 -44q0 -25 22 -45t71 -37q25 19 35 35t10 36zM432 219q0 32 -32 58t-114 55q-27 -19 -42 -44.5t-15 -53.5q0 -41 27 -64.5t74 -23.5t74.5 20t27.5 53z" />
    <glyph glyph-name="nine.OT" 
d="M32 286q0 120 80.5 195t214.5 75q142 0 221.5 -98t79.5 -269q0 -204 -91.5 -311t-264.5 -107q-47 0 -101 8.5t-91 22.5v182q47 -24 95 -36.5t95 -12.5q81 0 121 40.5t40 122.5q-34 -21 -76.5 -33t-86.5 -12q-108 0 -172 63t-64 170zM232 302q0 -48 24 -73.5t69 -25.5
q29 0 56 10t46 28q0 69 -28 110t-78 41q-40 0 -64.5 -24.5t-24.5 -65.5z" />
    <glyph glyph-name="dollar.OT" horiz-adv-x="661" 
d="M545 169q0 -67 -44 -113.5t-115 -61.5v-72h-112v67q-42 2 -81 10t-71 21v160q38 -21 86 -34.5t88 -13.5q31 0 45 7t14 22q0 12 -12.5 20.5t-56.5 20.5q-52 15 -78 27t-44 29q-24 22 -36 52.5t-12 69.5q0 70 40 112.5t118 55.5v75h112v-70q34 -2 66.5 -8t66.5 -16v-155
q-26 15 -73 25.5t-89 10.5q-28 0 -39.5 -6t-11.5 -21q0 -11 12 -19t56 -20q51 -15 77 -27t44 -28q25 -22 37.5 -52t12.5 -68z" />
    <glyph glyph-name="cent.OT" 
d="M545 28q-27 -14 -55.5 -22.5t-57.5 -12.5v-71h-112v75q-94 19 -149.5 93t-55.5 182q0 113 53.5 186t151.5 91v74h112v-70q32 -4 59 -13t51 -23v-163q-27 20 -63 31.5t-72 11.5q-46 0 -69.5 -31t-23.5 -91q0 -59 24 -90.5t69 -31.5q38 0 74 11.5t64 31.5v-168z" />
    <glyph glyph-name="sterling.OT" horiz-adv-x="661" 
d="M557 141v-141h-453v141h60q8 12 13 23.5t6 23.5q1 7 1.5 13.5t-1.5 14.5h-66v95h27q-12 29 -16 49t-4 40q0 73 62 113.5t176 40.5q52 0 102.5 -9.5t81.5 -25.5v-160q-38 24 -76.5 36t-75.5 12q-56 0 -76 -13.5t-20 -44.5q0 -6 3 -16t7 -22h174v-95h-141q2 -6 2.5 -12
t0.5 -11q0 -13 -2 -26t-6 -26h221z" />
    <glyph glyph-name="yen.OT" horiz-adv-x="661" 
d="M574 78h-141v-78h-203v78h-142v101h134l-25 46h-109v101h55l-117 219h228l47 -119q7 -18 12.5 -34t14.5 -51h6q8 31 13.5 48t13.5 37l45 119h229l-116 -219h55v-101h-109l-24 -46h133v-101z" />
    <glyph glyph-name="Euro.OT" 
d="M591 35q-39 -21 -87.5 -31.5t-105.5 -10.5q-111 0 -178.5 61.5t-79.5 169.5h-71v101h71q15 107 87.5 167t194.5 60q48 0 87.5 -7t77.5 -23v-185q-32 22 -65 32t-80 10q-42 0 -64.5 -12t-31.5 -42h139v-101h-139q8 -30 29.5 -43.5t61.5 -13.5q39 0 80 12.5t74 33.5v-178z
" />
    <glyph glyph-name="florin.OT" 
d="M372 22q-9 -132 -75.5 -194.5t-198.5 -62.5q-22 0 -42 1t-40 3v174q80 -10 116.5 11t39.5 75l20 288h-91v150h102l5 78q9 130 72 193t182 63q33 0 69 -5t73 -15v-162q-32 10 -59 14t-57 4q-41 0 -58.5 -19t-21.5 -73l-5 -78h124v-150h-135z" />
    <glyph glyph-name="numbersign.OT" 
d="M302 0l21 76h-98l-21 -76h-182l21 76h-75v160h120l21 74h-69v160h114l21 75h182l-21 -75h98l21 75h182l-21 -75h76v-160h-121l-21 -74h70v-160h-115l-21 -76h-182zM270 236h98l21 74h-98z" />
    <glyph glyph-name="Aacute.small" horiz-adv-x="636" 
d="M531 803l-224 -188l-94 92l172 217zM249 81l-19 -81h-210l195 545h205l196 -545h-210l-19 81h-138zM315 389q0 -13 -7.5 -50.5t-16.5 -65.5l-14 -45h82l-13 44q-9 29 -16.5 67t-7.5 50h-7z" />
    <glyph glyph-name="Abreve.small" horiz-adv-x="636" 
d="M521 859q0 -105 -54.5 -169.5t-148.5 -64.5t-148.5 64.5t-54.5 169.5h126q2 -44 22 -70t55 -26t55 26t22 70h126zM249 81l-19 -81h-210l195 545h205l196 -545h-210l-19 81h-138zM315 389q0 -13 -7.5 -50.5t-16.5 -65.5l-14 -45h82l-13 44q-9 29 -16.5 67t-7.5 50h-7z" />
    <glyph glyph-name="Acircumflex.small" horiz-adv-x="636" 
d="M319 733l-124 -125l-92 90l147 192h135l149 -192l-94 -90zM249 81l-19 -81h-210l195 545h205l196 -545h-210l-19 81h-138zM315 389q0 -13 -7.5 -50.5t-16.5 -65.5l-14 -45h82l-13 44q-9 29 -16.5 67t-7.5 50h-7z" />
    <glyph glyph-name="Adieresis.small" horiz-adv-x="636" 
d="M193 874q43 0 72 -28.5t29 -71.5q0 -42 -29 -70.5t-72 -28.5q-44 0 -73 28.5t-29 70.5q0 43 29 71.5t73 28.5zM443 873q43 0 72.5 -28.5t29.5 -70.5t-29.5 -70.5t-72.5 -28.5q-44 0 -73 28.5t-29 70.5t29 70.5t73 28.5zM249 81l-19 -81h-210l195 545h205l196 -545h-210
l-19 81h-138zM315 389q0 -13 -7.5 -50.5t-16.5 -65.5l-14 -45h82l-13 44q-9 29 -16.5 67t-7.5 50h-7z" />
    <glyph glyph-name="Agrave.small" horiz-adv-x="636" 
d="M253 924l172 -217l-94 -92l-224 188zM249 81l-19 -81h-210l195 545h205l196 -545h-210l-19 81h-138zM315 389q0 -13 -7.5 -50.5t-16.5 -65.5l-14 -45h82l-13 44q-9 29 -16.5 67t-7.5 50h-7z" />
    <glyph glyph-name="Amacron.small" horiz-adv-x="636" 
d="M519 839v-132h-402v132h402zM249 80l-19 -81h-210l195 545h205l196 -545h-210l-19 81h-138zM315 388q0 -13 -7.5 -50.5t-16.5 -65.5l-14 -45h82l-13 44q-9 29 -16.5 67t-7.5 50h-7z" />
    <glyph glyph-name="Aogonek.small" horiz-adv-x="636" 
d="M616 -215q-27 -10 -59.5 -15.5t-66.5 -5.5q-66 0 -109.5 36t-43.5 93q0 34 14.5 61t43.5 46q2 2 4.5 3.5t5.5 2.5l-18 75h-138l-19 -81h-210l195 545h205l196 -545q-47 -9 -77 -32t-30 -47q0 -14 10 -21.5t30 -7.5q16 0 32.5 4t34.5 13v-124zM315 389q0 -13 -7.5 -50.5
t-16.5 -65.5l-14 -45h82l-13 44q-9 29 -16.5 67t-7.5 50h-7z" />
    <glyph glyph-name="Aring.small" horiz-adv-x="636" 
d="M318 928q65 0 109.5 -44.5t44.5 -109.5q0 -64 -44.5 -109t-109.5 -45q-64 0 -109 45t-45 109q0 65 45 109.5t109 44.5zM318 823q-22 0 -35.5 -13t-13.5 -36q0 -22 13.5 -35.5t35.5 -13.5t35.5 13.5t13.5 35.5t-13.5 35.5t-35.5 13.5zM249 81l-19 -81h-210l195 545h205
l196 -545h-210l-19 81h-138zM315 389q0 -13 -7.5 -50.5t-16.5 -65.5l-14 -45h82l-13 44q-9 29 -16.5 67t-7.5 50h-7z" />
    <glyph glyph-name="Aringacute.small" horiz-adv-x="636" 
d="M519 1101l-224 -188l-94 92l172 217zM318 884q65 0 109.5 -44.5t44.5 -109.5q0 -64 -44.5 -109t-109.5 -45q-64 0 -109 45t-45 109q0 65 45 109.5t109 44.5zM318 779q-22 0 -35.5 -13t-13.5 -36q0 -22 13.5 -35.5t35.5 -13.5t35.5 13.5t13.5 35.5t-13.5 35.5t-35.5 13.5z
M249 81l-19 -81h-210l195 545h205l196 -545h-210l-19 81h-138zM315 389q0 -13 -7.5 -50.5t-16.5 -65.5l-14 -45h82l-13 44q-9 29 -16.5 67t-7.5 50h-7z" />
    <glyph glyph-name="Atilde.small" horiz-adv-x="636" 
d="M537 878q1 -116 -38 -178.5t-108 -57.5q-24 2 -45 12t-51 37q-17 16 -25 21t-15 5q-14 1 -21.5 -17.5t-7.5 -55.5h-127q-1 115 38.5 177t107.5 57q25 -2 47 -12t52 -38q15 -15 22.5 -19.5t14.5 -4.5q14 -1 21.5 18t7.5 56h127zM249 80l-19 -81h-210l195 545h205l196 -545
h-210l-19 81h-138zM315 388q0 -13 -7.5 -50.5t-16.5 -65.5l-14 -45h82l-13 44q-9 29 -16.5 67t-7.5 50h-7z" />
    <glyph glyph-name="AE.small" horiz-adv-x="903" 
d="M10 0l374 545h450v-147h-203v-51h186v-147h-186v-53h212v-147h-416v72h-172l-43 -72h-202zM342 219h85v145z" />
    <glyph glyph-name="AEacute.small" horiz-adv-x="903" 
d="M810 803l-224 -188l-94 92l172 217zM10 0l374 545h450v-147h-203v-51h186v-147h-186v-53h212v-147h-416v72h-172l-43 -72h-202zM342 219h85v145z" />
    <glyph glyph-name="Cacute.small" horiz-adv-x="544" 
d="M527 803l-224 -188l-94 92l172 217zM254 273q0 -57 21.5 -81.5t74.5 -24.5q39 0 80 12.5t74 33.5v-178q-39 -21 -87.5 -31.5t-105.5 -10.5q-123 0 -192 75t-69 204q0 131 74.5 205.5t210.5 74.5q48 0 87.5 -7t77.5 -23v-185q-32 22 -65 32t-80 10q-57 0 -79 -23t-22 -83z
" />
    <glyph glyph-name="Ccaron.small" horiz-adv-x="544" 
d="M321 771l124 125l92 -90l-147 -192h-135l-149 192l94 90zM254 273q0 -57 21.5 -81.5t74.5 -24.5q39 0 80 12.5t74 33.5v-178q-39 -21 -87.5 -31.5t-105.5 -10.5q-123 0 -192 75t-69 204q0 131 74.5 205.5t210.5 74.5q48 0 87.5 -7t77.5 -23v-185q-32 22 -65 32t-80 10
q-57 0 -79 -23t-22 -83z" />
    <glyph glyph-name="Ccedilla.small" horiz-adv-x="544" 
d="M455 -117q0 -57 -43.5 -93t-109.5 -36q-34 0 -66.5 5.5t-59.5 15.5v124q20 -9 34.5 -13t28.5 -4q21 0 32.5 12t11.5 33q0 18 -9 34.5t-34 38.5q-90 20 -140 91.5t-50 180.5q0 131 74.5 205.5t210.5 74.5q48 0 87.5 -7t77.5 -23v-185q-32 22 -65 32t-80 10q-57 0 -79 -23
t-22 -83q0 -57 21.5 -81.5t74.5 -24.5q39 0 80 12.5t74 33.5v-178q-24 -13 -52 -22t-59 -14q13 -10 19.5 -16.5t12.5 -13.5q15 -19 22.5 -40t7.5 -46z" />
    <glyph glyph-name="Ccircumflex.small" horiz-adv-x="544" 
d="M317 733l-124 -125l-92 90l147 192h135l149 -192l-94 -90zM254 273q0 -57 21.5 -81.5t74.5 -24.5q39 0 80 12.5t74 33.5v-178q-39 -21 -87.5 -31.5t-105.5 -10.5q-123 0 -192 75t-69 204q0 131 74.5 205.5t210.5 74.5q48 0 87.5 -7t77.5 -23v-185q-32 22 -65 32t-80 10
q-57 0 -79 -23t-22 -83z" />
    <glyph glyph-name="Cdotaccent.small" horiz-adv-x="544" 
d="M450 744q0 -50 -34.5 -83.5t-84.5 -33.5q-52 0 -86.5 33.5t-34.5 83.5t34.5 83t86.5 33q51 0 85 -33t34 -83zM254 273q0 -57 21.5 -81.5t74.5 -24.5q39 0 80 12.5t74 33.5v-178q-39 -21 -87.5 -31.5t-105.5 -10.5q-123 0 -192 75t-69 204q0 131 74.5 205.5t210.5 74.5
q48 0 87.5 -7t77.5 -23v-185q-32 22 -65 32t-80 10q-57 0 -79 -23t-22 -83z" />
    <glyph glyph-name="Dcaron.small" horiz-adv-x="641" 
d="M299 771l124 125l92 -90l-147 -192h-135l-149 192l94 90zM601 272q0 -128 -81.5 -200t-231.5 -72h-208v545h209q153 0 232.5 -70t79.5 -203zM284 160h4q55 0 81.5 27.5t26.5 85.5t-27 84.5t-85 27.5v-225z" />
    <glyph glyph-name="Dcroat.small" horiz-adv-x="641" 
d="M601 272q0 -128 -81.5 -200t-231.5 -72h-208v225h-52v96h52v224h209q153 0 232.5 -70t79.5 -203zM284 160h4q55 0 81.5 27.5t26.5 85.5t-27 84.5t-85 27.5v-64h50v-96h-50v-65z" />
    <glyph glyph-name="Eth.small" horiz-adv-x="641" 
d="M601 272q0 -128 -81.5 -200t-231.5 -72h-208v225h-52v96h52v224h209q153 0 232.5 -70t79.5 -203zM284 160h4q55 0 81.5 27.5t26.5 85.5t-27 84.5t-85 27.5v-64h50v-96h-50v-65z" />
    <glyph glyph-name="Eacute.small" horiz-adv-x="557" 
d="M511 803l-224 -188l-94 92l172 217zM496 147v-147h-416v545h407v-147h-203v-51h186v-147h-186v-53h212z" />
    <glyph glyph-name="Ebreve.small" horiz-adv-x="557" 
d="M491 859q0 -105 -54.5 -169.5t-148.5 -64.5t-148.5 64.5t-54.5 169.5h126q2 -44 22 -70t55 -26t55 26t22 70h126zM496 147v-147h-416v545h407v-147h-203v-51h186v-147h-186v-53h212z" />
    <glyph glyph-name="Ecaron.small" horiz-adv-x="557" 
d="M288 771l124 125l92 -90l-147 -192h-135l-149 192l94 90zM496 147v-147h-416v545h407v-147h-203v-51h186v-147h-186v-53h212z" />
    <glyph glyph-name="Ecircumflex.small" horiz-adv-x="557" 
d="M288 733l-124 -125l-92 90l147 192h135l149 -192l-94 -90zM496 147v-147h-416v545h407v-147h-203v-51h186v-147h-186v-53h212z" />
    <glyph glyph-name="Edieresis.small" horiz-adv-x="557" 
d="M163 874q43 0 72 -28.5t29 -71.5q0 -42 -29 -70.5t-72 -28.5q-44 0 -73 28.5t-29 70.5q0 43 29 71.5t73 28.5zM413 873q43 0 72.5 -28.5t29.5 -70.5t-29.5 -70.5t-72.5 -28.5q-44 0 -73 28.5t-29 70.5t29 70.5t73 28.5zM496 147v-147h-416v545h407v-147h-203v-51h186
v-147h-186v-53h212z" />
    <glyph glyph-name="Edotaccent.small" horiz-adv-x="557" 
d="M407 744q0 -50 -34.5 -83.5t-84.5 -33.5q-52 0 -86.5 33.5t-34.5 83.5t34.5 83t86.5 33q51 0 85 -33t34 -83zM496 147v-147h-416v545h407v-147h-203v-51h186v-147h-186v-53h212z" />
    <glyph glyph-name="Egrave.small" horiz-adv-x="557" 
d="M195 924l172 -217l-94 -92l-224 188zM496 147v-147h-416v545h407v-147h-203v-51h186v-147h-186v-53h212z" />
    <glyph glyph-name="Emacron.small" horiz-adv-x="557" 
d="M489 840v-132h-402v132h402zM496 147v-147h-416v545h407v-147h-203v-51h186v-147h-186v-53h212z" />
    <glyph glyph-name="Eogonek.small" horiz-adv-x="557" 
d="M496 -215q-27 -10 -59.5 -15.5t-66.5 -5.5q-66 0 -109.5 36t-43.5 93q0 34 14.5 61t43.5 46h-195v545h407v-147h-203v-51h186v-147h-186v-53h212v-147q-47 -9 -77 -32t-30 -47q0 -14 10 -21.5t30 -7.5q16 0 32.5 4t34.5 13v-124z" />
    <glyph glyph-name="Gbreve.small" horiz-adv-x="642" 
d="M531 859q0 -105 -54.5 -169.5t-148.5 -64.5t-148.5 64.5t-54.5 169.5h126q2 -44 22 -70t55 -26t55 26t22 70h126zM562 42q-78 -30 -123.5 -39.5t-98.5 -9.5q-138 0 -219 74t-81 205q0 133 86.5 206.5t240.5 73.5q58 0 103 -4t91 -14v-179q-44 20 -87 29.5t-90 9.5
q-75 0 -107 -28t-32 -93q0 -66 23 -94t78 -28h11v146h205v-255z" />
    <glyph glyph-name="Gcircumflex.small" horiz-adv-x="642" 
d="M355 733l-124 -125l-92 90l147 192h135l149 -192l-94 -90zM562 42q-78 -30 -123.5 -39.5t-98.5 -9.5q-138 0 -219 74t-81 205q0 133 86.5 206.5t240.5 73.5q58 0 103 -4t91 -14v-179q-44 20 -87 29.5t-90 9.5q-75 0 -107 -28t-32 -93q0 -66 23 -94t78 -28h11v146h205
v-255z" />
    <glyph glyph-name="Gcommaaccent.small" horiz-adv-x="642" 
d="M562 42q-78 -30 -123.5 -39.5t-98.5 -9.5q-138 0 -219 74t-81 205q0 133 86.5 206.5t240.5 73.5q58 0 103 -4t91 -14v-179q-44 20 -87 29.5t-90 9.5q-75 0 -107 -28t-32 -93q0 -66 23 -94t78 -28h11v146h205v-255zM469 -164l-200 -157l-86 85l148 186z" />
    <glyph glyph-name="Gdotaccent.small" horiz-adv-x="642" 
d="M471 744q0 -50 -34.5 -83.5t-84.5 -33.5q-52 0 -86.5 33.5t-34.5 83.5t34.5 83t86.5 33q51 0 85 -33t34 -83zM562 42q-78 -30 -123.5 -39.5t-98.5 -9.5q-138 0 -219 74t-81 205q0 133 86.5 206.5t240.5 73.5q58 0 103 -4t91 -14v-179q-44 20 -87 29.5t-90 9.5
q-75 0 -107 -28t-32 -93q0 -66 23 -94t78 -28h11v146h205v-255z" />
    <glyph glyph-name="Hbar.small" horiz-adv-x="678" 
d="M284 193v-193h-204v395h-50v96h50v54h204v-54h110v54h204v-54h50v-96h-50v-395h-204v193h-110zM284 353h110v42h-110v-42z" />
    <glyph glyph-name="Hcircumflex.small" horiz-adv-x="678" 
d="M340 733l-124 -125l-92 90l147 192h135l149 -192l-94 -90zM284 193v-193h-204v545h204v-192h110v192h204v-545h-204v193h-110z" />
    <glyph glyph-name="IJ.small" horiz-adv-x="942" 
d="M862 217q0 -109 -58 -166.5t-168 -57.5q-47 0 -97.5 8t-73.5 20v186q33 -17 66 -26.5t58 -9.5q5 0 22.5 -1t24.5 1q11 3 16 12t5 26v189h-175v147h380v-328zM430 147v-147h-370v147h83v251h-83v147h370v-147h-82v-251h82z" />
    <glyph glyph-name="Iacute.small" horiz-adv-x="490" 
d="M449 803l-224 -188l-94 92l172 217zM430 147v-147h-370v147h83v251h-83v147h370v-147h-82v-251h82z" />
    <glyph glyph-name="Ibreve.small" horiz-adv-x="490" 
d="M448 859q0 -105 -54.5 -169.5t-148.5 -64.5t-148.5 64.5t-54.5 169.5h126q2 -44 22 -70t55 -26t55 26t22 70h126zM430 147v-147h-370v147h83v251h-83v147h370v-147h-82v-251h82z" />
    <glyph glyph-name="Icircumflex.small" horiz-adv-x="490" 
d="M246 733l-124 -125l-92 90l147 192h135l149 -192l-94 -90zM430 147v-147h-370v147h83v251h-83v147h370v-147h-82v-251h82z" />
    <glyph glyph-name="Idieresis.small" horiz-adv-x="490" 
d="M120 874q43 0 72 -28.5t29 -71.5q0 -42 -29 -70.5t-72 -28.5q-44 0 -73 28.5t-29 70.5q0 43 29 71.5t73 28.5zM370 873q43 0 72.5 -28.5t29.5 -70.5t-29.5 -70.5t-72.5 -28.5q-44 0 -73 28.5t-29 70.5t29 70.5t73 28.5zM430 147v-147h-370v147h83v251h-83v147h370v-147
h-82v-251h82z" />
    <glyph glyph-name="Idotaccent.small" horiz-adv-x="490" 
d="M365 744q0 -50 -34.5 -83.5t-84.5 -33.5q-52 0 -86.5 33.5t-34.5 83.5t34.5 83t86.5 33q51 0 85 -33t34 -83zM430 147v-147h-370v147h83v251h-83v147h370v-147h-82v-251h82z" />
    <glyph glyph-name="Igrave.small" horiz-adv-x="490" 
d="M197 924l172 -217l-94 -92l-224 188zM430 147v-147h-370v147h83v251h-83v147h370v-147h-82v-251h82z" />
    <glyph glyph-name="Imacron.small" horiz-adv-x="490" 
d="M446 840v-132h-402v132h402zM430 147v-147h-370v147h83v251h-83v147h370v-147h-82v-251h82z" />
    <glyph glyph-name="Iogonek.small" horiz-adv-x="490" 
d="M430 -215q-27 -10 -59.5 -15.5t-66.5 -5.5q-66 0 -109.5 36t-43.5 93q0 34 14.5 61t43.5 46h-149v147h83v251h-83v147h370v-147h-82v-251h82v-147q-47 -9 -77 -32t-30 -47q0 -14 10 -21.5t30 -7.5q16 0 32.5 4t34.5 13v-124z" />
    <glyph glyph-name="Itilde.small" horiz-adv-x="490" 
d="M465 879q1 -116 -38 -178.5t-108 -57.5q-24 2 -45 12t-51 37q-17 16 -25 21t-15 5q-14 1 -21.5 -17.5t-7.5 -55.5h-127q-1 115 38.5 177t107.5 57q25 -2 47 -12t52 -38q15 -15 22.5 -19.5t14.5 -4.5q14 -1 21.5 18t7.5 56h127zM431 147v-147h-370v147h83v251h-83v147h370
v-147h-82v-251h82z" />
    <glyph glyph-name="Jcircumflex.small" horiz-adv-x="527" 
d="M258 733l-124 -125l-92 90l147 192h135l149 -192l-94 -90zM447 217q0 -109 -58 -166.5t-168 -57.5q-47 0 -97.5 8t-73.5 20v186q33 -17 66 -26.5t58 -9.5q5 0 22.5 -1t24.5 1q11 3 16 12t5 26v189h-175v147h380v-328z" />
    <glyph glyph-name="Kcommaaccent.small" horiz-adv-x="626" 
d="M285 181v-181h-205v545h205v-185q24 0 33 8.5t19 33.5q4 11 10 28t15 43q4 13 9 29.5t13 42.5h235l-92 -178q-19 -37 -34.5 -56.5t-31.5 -27.5v-4q14 -9 29 -30t38 -65l98 -184h-235q-17 43 -25.5 65.5t-14.5 37.5q-20 48 -31 63t-35 15zM468 -164l-200 -157l-86 85
l148 186z" />
    <glyph glyph-name="Lacute.small" horiz-adv-x="526" 
d="M435 803l-224 -188l-94 92l172 217zM496 160v-160h-416v545h204v-385h212z" />
    <glyph glyph-name="Lcaron.small" horiz-adv-x="526" 
d="M563 510l-114 -269l-126 39l55 272zM496 160v-160h-416v545h204v-385h212z" />
    <glyph glyph-name="Lcommaaccent.small" horiz-adv-x="526" 
d="M496 160v-160h-416v545h204v-385h212zM416 -164l-200 -157l-86 85l148 186z" />
    <glyph glyph-name="Ldot.small" horiz-adv-x="526" 
d="M496 160v-160h-416v545h204v-385h212zM554 345q0 -50 -34.5 -83.5t-84.5 -33.5q-52 0 -86.5 33.5t-34.5 83.5t34.5 83t86.5 33q51 0 85 -33t34 -83z" />
    <glyph glyph-name="Lslash.small" horiz-adv-x="526" 
d="M496 160v-160h-416v144l-50 -36v115l50 36v286h204v-141l110 79v-115l-110 -79v-129h212z" />
    <glyph glyph-name="Nacute.small" horiz-adv-x="678" 
d="M570 803l-224 -188l-94 92l172 217zM273 154v-154h-193v545h183l90 -146q18 -28 31 -51t22 -41l3 1q-1 18 -2 40t-1 47v150h192v-545h-183l-90 150q-15 26 -28.5 49t-25.5 43l-3 -2q3 -21 4 -42.5t1 -43.5z" />
    <glyph glyph-name="Ncaron.small" horiz-adv-x="678" 
d="M339 771l124 125l92 -90l-147 -192h-135l-149 192l94 90zM273 154v-154h-193v545h183l90 -146q18 -28 31 -51t22 -41l3 1q-1 18 -2 40t-1 47v150h192v-545h-183l-90 150q-15 26 -28.5 49t-25.5 43l-3 -2q3 -21 4 -42.5t1 -43.5z" />
    <glyph glyph-name="Ncommaaccent.small" horiz-adv-x="678" 
d="M273 154v-154h-193v545h183l90 -146q18 -28 31 -51t22 -41l3 1q-1 18 -2 40t-1 47v150h192v-545h-183l-90 150q-15 26 -28.5 49t-25.5 43l-3 -2q3 -21 4 -42.5t1 -43.5zM468 -164l-200 -157l-86 85l148 186z" />
    <glyph glyph-name="Ntilde.small" horiz-adv-x="678" 
d="M575 879q1 -116 -38 -178.5t-108 -57.5q-24 2 -45 12t-51 37q-17 16 -25 21t-15 5q-14 1 -21.5 -17.5t-7.5 -55.5h-127q-1 115 38.5 177t107.5 57q25 -2 47 -12t52 -38q15 -15 22.5 -19.5t14.5 -4.5q14 -1 21.5 18t7.5 56h127zM273 154v-154h-193v545h183l90 -146
q18 -28 31 -51t22 -41l3 1q-1 18 -2 40t-1 47v150h192v-545h-183l-90 150q-15 26 -28.5 49t-25.5 43l-3 -2q3 -21 4 -42.5t1 -43.5z" />
    <glyph glyph-name="Eng.small" horiz-adv-x="678" 
d="M406 545h192v-471q0 -95 -22 -157t-67 -97q-42 -33 -109.5 -46t-160.5 -5v174q44 -4 74 -0.5t48 15.5q14 10 22.5 26.5t11.5 41.5l-70 94q-16 26 -29.5 49t-24.5 43l-3 -2q3 -21 4 -42.5t1 -43.5v-124h-193v545h183l90 -116q18 -28 31 -51t22 -41l3 1q-1 18 -2 40t-1 47
v120z" />
    <glyph glyph-name="Oacute.small" horiz-adv-x="667" 
d="M528 803l-224 -188l-94 92l172 217zM627 272q0 -130 -77.5 -204.5t-216.5 -74.5t-216 74t-77 205q0 132 77 206t216 74t216.5 -74.5t77.5 -205.5zM423 272q0 61 -22 90.5t-68 29.5t-67.5 -29t-21.5 -91t21.5 -90.5t67.5 -28.5t68 29t22 90z" />
    <glyph glyph-name="Obreve.small" horiz-adv-x="667" 
d="M536 859q0 -105 -54.5 -169.5t-148.5 -64.5t-148.5 64.5t-54.5 169.5h126q2 -44 22 -70t55 -26t55 26t22 70h126zM627 272q0 -130 -77.5 -204.5t-216.5 -74.5t-216 74t-77 205q0 132 77 206t216 74t216.5 -74.5t77.5 -205.5zM423 272q0 61 -22 90.5t-68 29.5t-67.5 -29
t-21.5 -91t21.5 -90.5t67.5 -28.5t68 29t22 90z" />
    <glyph glyph-name="Ocircumflex.small" horiz-adv-x="667" 
d="M334 733l-124 -125l-92 90l147 192h135l149 -192l-94 -90zM627 272q0 -130 -77.5 -204.5t-216.5 -74.5t-216 74t-77 205q0 132 77 206t216 74t216.5 -74.5t77.5 -205.5zM423 272q0 61 -22 90.5t-68 29.5t-67.5 -29t-21.5 -91t21.5 -90.5t67.5 -28.5t68 29t22 90z" />
    <glyph glyph-name="Odieresis.small" horiz-adv-x="667" 
d="M208 874q43 0 72 -28.5t29 -71.5q0 -42 -29 -70.5t-72 -28.5q-44 0 -73 28.5t-29 70.5q0 43 29 71.5t73 28.5zM458 873q43 0 72.5 -28.5t29.5 -70.5t-29.5 -70.5t-72.5 -28.5q-44 0 -73 28.5t-29 70.5t29 70.5t73 28.5zM627 272q0 -130 -77.5 -204.5t-216.5 -74.5
t-216 74t-77 205q0 132 77 206t216 74t216.5 -74.5t77.5 -205.5zM423 272q0 61 -22 90.5t-68 29.5t-67.5 -29t-21.5 -91t21.5 -90.5t67.5 -28.5t68 29t22 90z" />
    <glyph glyph-name="Ograve.small" horiz-adv-x="667" 
d="M294 924l172 -217l-94 -92l-224 188zM627 272q0 -130 -77.5 -204.5t-216.5 -74.5t-216 74t-77 205q0 132 77 206t216 74t216.5 -74.5t77.5 -205.5zM423 272q0 61 -22 90.5t-68 29.5t-67.5 -29t-21.5 -91t21.5 -90.5t67.5 -28.5t68 29t22 90z" />
    <glyph glyph-name="Ohungarumlaut.small" horiz-adv-x="667" 
d="M392 855l-171 -237l-114 66l114 253zM649 797l-216 -197l-97 88l163 224zM627 272q0 -130 -77.5 -204.5t-216.5 -74.5t-216 74t-77 205q0 132 77 206t216 74t216.5 -74.5t77.5 -205.5zM423 272q0 61 -22 90.5t-68 29.5t-67.5 -29t-21.5 -91t21.5 -90.5t67.5 -28.5t68 29
t22 90z" />
    </font>
</defs>
</svg>
